<svg width="20" height="20" viewBox="0 0 20 20" fill="none" xmlns="http://www.w3.org/2000/svg">
<path d="M7.18172 5.67671L6.58218 3.82735L7.68403 3.45423L8.29977 5.30359L7.18172 5.67671ZM9.41783 4.9467V3H10.5845V4.9467H9.41783ZM12.8044 5.66049L11.7025 5.30359L12.3183 3.45423L13.4201 3.81112L12.8044 5.66049ZM3.85996 17L3.69792 15.8482L6.87044 15.3748C6.98074 15.3551 7.07639 15.3102 7.15741 15.2399C7.23843 15.1696 7.29514 15.0803 7.32755 14.9722L7.94329 13.0742C7.9865 12.9336 7.9757 12.7984 7.91088 12.6686C7.84607 12.5388 7.74884 12.4361 7.61922 12.3604L7.08449 14.08L5.96644 13.7231L7.45572 9.03849C7.4783 8.97112 7.48959 8.90769 7.48959 8.8482C7.48959 8.78872 7.47932 8.72653 7.4588 8.66164L5.39931 12.9119C5.24807 13.2148 5.03202 13.4554 4.75116 13.6338C4.4703 13.8123 4.16243 13.9015 3.82755 13.9015H3.00116V12.7335H3.82755C3.94638 12.7335 4.049 12.7037 4.13542 12.6443C4.22184 12.5848 4.29205 12.5064 4.34607 12.409L7.06829 6.76362L7.9919 7.49363C8.27276 7.72074 8.46451 8.00734 8.56713 8.35342C8.66976 8.6995 8.66705 9.04558 8.55903 9.39166L7.9757 11.241C8.46181 11.4898 8.79398 11.8142 8.97222 12.2144C9.15047 12.6145 9.17477 13.0201 9.04514 13.4311L8.4456 15.3291C8.34838 15.6427 8.17284 15.9077 7.91898 16.124C7.66513 16.3403 7.37076 16.4755 7.03588 16.5295L3.85996 17ZM16.1424 17L12.9664 16.5295C12.6316 16.4755 12.3372 16.3403 12.0833 16.124C11.8295 15.9077 11.6539 15.6427 11.5567 15.3291L10.9572 13.4311C10.8275 13.0201 10.8519 12.6145 11.0301 12.2144C11.2083 11.8142 11.5405 11.4898 12.0266 11.241L11.4433 9.39166C11.3353 9.04558 11.3326 8.6995 11.4352 8.35342C11.5378 8.00734 11.7296 7.72074 12.0104 7.49363L12.934 6.76362L15.6563 12.409C15.7103 12.5064 15.7805 12.5848 15.8669 12.6443C15.9533 12.7037 16.0559 12.7335 16.1748 12.7335H17.0012V13.9015H16.1748C15.8399 13.9015 15.532 13.8123 15.2512 13.6338C14.9703 13.4554 14.7542 13.2148 14.603 12.9119L12.5435 8.66164C12.523 8.72653 12.5127 8.78872 12.5127 8.8482C12.5127 8.90769 12.524 8.97112 12.5466 9.03849L14.0359 13.7231L12.9178 14.08L12.3831 12.3604C12.2535 12.4361 12.1563 12.5388 12.0914 12.6686C12.0266 12.7984 12.0158 12.9336 12.059 13.0742L12.6748 14.9722C12.7072 15.0803 12.7644 15.1702 12.8464 15.2418C12.9284 15.3134 13.0224 15.3587 13.1285 15.3778L16.3044 15.8482L16.1424 17Z" fill="#5F6368"/>
</svg>
