<svg width="24" height="24" viewBox="0 0 24 24" fill="none" xmlns="http://www.w3.org/2000/svg">
<path d="M6.2334 3.5C6.0331 3.50004 5.83903 3.53537 5.65137 3.60645C5.46343 3.67759 5.29714 3.7912 5.15234 3.94629L3.93066 5.18262C3.7755 5.32745 3.66463 5.49412 3.59863 5.68262C3.53266 5.87105 3.50002 6.05961 3.5 6.24805C3.5 6.44921 3.53387 6.64155 3.60254 6.82422C3.67121 7.00704 3.78084 7.17404 3.93066 7.3252L15.1133 18.5H5V20.5H20.5V17.1152L7.30957 3.93066C7.1584 3.79333 6.99126 3.68714 6.80859 3.6123C6.62582 3.53736 6.43382 3.5 6.2334 3.5ZM19 17.7383V19H17.7383L7.50195 8.76367L8.14355 8.14355L8.76367 7.50195L19 17.7383Z" fill="white"/>
</svg>
