<svg width="24" height="24" viewBox="0 0 24 24" fill="none" xmlns="http://www.w3.org/2000/svg">
<path d="M17.7666 3.5C17.9669 3.50004 18.161 3.53537 18.3486 3.60645C18.5366 3.67759 18.7029 3.7912 18.8477 3.94629L20.0693 5.18262C20.2245 5.32745 20.3354 5.49412 20.4014 5.68262C20.4673 5.87105 20.5 6.05961 20.5 6.24805C20.5 6.44921 20.4661 6.64155 20.3975 6.82422C20.3288 7.00704 20.2192 7.17404 20.0693 7.3252L8.88672 18.5H19V20.5H3.5V17.1152L16.6904 3.93066C16.8416 3.79333 17.0087 3.68714 17.1914 3.6123C17.3742 3.53736 17.5662 3.5 17.7666 3.5ZM5 17.7383V19H6.26172L16.498 8.76367L15.8564 8.14355L15.2363 7.50195L5 17.7383Z" fill="#5F6368"/>
</svg>
