<svg width="95" height="40" viewBox="0 0 95 40" fill="none" xmlns="http://www.w3.org/2000/svg">
<g clip-path="url(#clip0_239_593)">
<path d="M4.42078 34.1125C5.47513 30.9015 6.48155 27.7744 7.44005 24.7312C7.84741 23.4851 8.26676 22.1552 8.69808 20.7414C9.1294 19.3276 9.56073 17.9139 9.99205 16.5001C10.4234 15.0623 10.8307 13.6845 11.2141 12.3665C11.5975 11.0486 11.921 9.87445 12.1846 8.84407C13.5025 8.84407 14.7486 8.77218 15.9228 8.62841C16.5218 8.55652 17.1329 8.48463 17.7559 8.41275C18.4029 8.34086 19.0618 8.28095 19.7328 8.23303L19.5171 9.99427C19.4692 10.3297 19.4213 10.6772 19.3733 11.0366C19.3254 11.3721 19.2775 11.7196 19.2296 12.079C19.1816 12.4384 19.1217 12.8099 19.0499 13.1933C18.978 13.5527 18.9181 13.9241 18.8701 14.3075C18.7743 15.0503 18.6305 16.0927 18.4388 17.4346C18.2471 18.7525 18.0195 20.1903 17.7559 21.7478H18.2231C18.9181 19.9267 19.4932 18.4171 19.9484 17.2189C20.4037 15.9969 20.7752 15.0024 21.0627 14.2356C21.4701 13.1094 21.9134 11.9712 22.3926 10.821C22.8719 9.67077 23.2672 8.78416 23.5788 8.16114C24.1539 8.11321 24.8368 8.04133 25.6275 7.94548C26.4423 7.82566 27.257 7.69387 28.0717 7.5501C28.9104 7.40632 29.6293 7.28651 30.2283 7.19066C29.8929 9.20351 29.5813 11.2403 29.2938 13.3011C29.0302 15.3379 28.7906 17.2908 28.5749 19.1599C28.3832 21.005 28.2155 22.6704 28.0717 24.1561C27.9279 25.6417 27.7961 27.1154 27.6763 28.5771C27.5565 30.0149 27.4367 31.4407 27.3169 32.8544L21.0627 33.9687C21.0627 33.9208 21.0986 33.3816 21.1705 32.3512C21.2424 31.3208 21.3622 30.0388 21.53 28.5053C21.6977 26.9717 21.8654 25.5219 22.0332 24.1561C22.2009 22.7662 22.3687 21.628 22.5364 20.7414H22.2129C21.6138 22.5626 20.883 24.5514 20.0203 26.7081C19.1816 28.8647 18.3549 31.249 17.5402 33.8609C16.7015 33.8848 15.9827 33.9208 15.3836 33.9687C14.7845 33.9927 14.0896 34.0286 13.2989 34.0765L14.4491 20.7414H13.9099C13.8859 21.005 13.7781 21.5202 13.5864 22.287C13.3947 23.0298 13.1671 23.8925 12.9035 24.8749C12.6399 25.8334 12.3643 26.7919 12.0768 27.7504C10.9985 31.5125 10.4234 33.5014 10.3515 33.7171L4.42078 34.1125ZM37.7816 34.2562C37.8295 33.8489 37.8774 33.4535 37.9253 33.0701C37.9733 32.6867 38.0212 32.3033 38.0691 31.9199L38.2848 29.9071C38.3087 29.5716 38.3327 29.2601 38.3567 28.9725C38.3806 28.685 38.4046 28.4214 38.4285 28.1818H35.3014L33.8637 33.3576C33.3365 33.4295 32.7135 33.5134 31.9946 33.6093C31.2758 33.6811 30.6048 33.753 29.9818 33.8249C29.5984 33.8728 29.215 33.9208 28.8316 33.9687C28.4721 34.0166 28.1007 34.0645 27.7173 34.1125L30.5569 24.6952C30.8924 23.569 31.2758 22.287 31.7071 20.8493C32.1384 19.4115 32.5697 17.9378 33.0011 16.4282C33.4563 14.9185 33.8757 13.5048 34.2591 12.1868C34.6664 10.8449 34.9899 9.7187 35.2296 8.80812C36.859 8.68831 38.5124 8.54454 40.1898 8.3768C41.8911 8.20906 43.5445 7.98142 45.15 7.69387C45.0302 9.03577 44.9104 10.5574 44.7906 12.2587C44.6947 13.9361 44.5989 15.6734 44.503 17.4705C44.4311 19.2677 44.3473 21.041 44.2514 22.7902C44.2035 24.4436 44.1436 26.1569 44.0717 27.9302C43.9998 29.6794 43.9279 31.4766 43.856 33.3217C43.4966 33.3696 43.1372 33.4176 42.7777 33.4655C42.4183 33.5134 42.0589 33.5613 41.6994 33.6093C41.1004 33.7051 40.4414 33.8129 39.7225 33.9327C39.0036 34.0526 38.3567 34.1604 37.7816 34.2562ZM36.1641 24.5874C36.3079 24.5874 36.5715 24.5754 36.9549 24.5514C37.3622 24.5275 37.7456 24.5035 38.1051 24.4796C38.4645 24.4556 38.6801 24.4436 38.752 24.4436C38.752 24.1321 38.8 23.4971 38.8958 22.5386C38.9917 21.5801 39.0875 20.5737 39.1834 19.5193C39.2313 18.8963 39.2792 18.2613 39.3271 17.6143C39.399 16.9434 39.4709 16.2604 39.5428 15.5655L39.7585 12.4384L39.2193 12.4744L38.3926 15.5655L36.1641 24.5874ZM43.6626 34.1125C44.7169 30.9015 45.7233 27.7744 46.6818 24.7312C47.0892 23.4851 47.5085 22.1552 47.9399 20.7414C48.3712 19.3276 48.8025 17.9139 49.2338 16.5001C49.6651 15.0623 50.0725 13.6845 50.4559 12.3665C50.8393 11.0486 51.1628 9.87445 51.4264 8.84407C52.7443 8.84407 53.9904 8.77218 55.1645 8.62841C55.7636 8.55652 56.3746 8.48463 56.9977 8.41275C57.6446 8.34086 58.3036 8.28095 58.9746 8.23303L58.7589 9.99427C58.711 10.3297 58.663 10.6772 58.6151 11.0366C58.5672 11.3721 58.5193 11.7196 58.4713 12.079C58.4234 12.4384 58.3635 12.8099 58.2916 13.1933C58.2197 13.5527 58.1598 13.9241 58.1119 14.3075C58.0161 15.0503 57.8723 16.0927 57.6806 17.4346C57.4889 18.7525 57.2612 20.1903 56.9977 21.7478H57.4649C58.1598 19.9267 58.7349 18.4171 59.1902 17.2189C59.6455 15.9969 60.0169 15.0024 60.3045 14.2356C60.7118 13.1094 61.1551 11.9712 61.6344 10.821C62.1136 9.67077 62.509 8.78416 62.8205 8.16114C63.3956 8.11321 64.0786 8.04133 64.8693 7.94548C65.684 7.82566 66.4988 7.69387 67.3135 7.5501C68.1522 7.40632 68.871 7.28651 69.4701 7.19066C69.1346 9.20351 68.8231 11.2403 68.5356 13.3011C68.272 15.3379 68.0324 17.2908 67.8167 19.1599C67.625 21.005 67.4573 22.6704 67.3135 24.1561C67.1697 25.6417 67.0379 27.1154 66.9181 28.5771C66.7983 30.0149 66.6785 31.4407 66.5587 32.8544L60.3045 33.9687C60.3045 33.9208 60.3404 33.3816 60.4123 32.3512C60.4842 31.3208 60.604 30.0388 60.7717 28.5053C60.9395 26.9717 61.1072 25.5219 61.275 24.1561C61.4427 22.7662 61.6104 21.628 61.7782 20.7414H61.4547C60.8556 22.5626 60.1248 24.5514 59.2621 26.7081C58.4234 28.8647 57.5967 31.249 56.782 33.8609C55.9433 33.8848 55.2244 33.9208 54.6254 33.9687C54.0263 33.9927 53.3314 34.0286 52.5406 34.0765L53.6908 20.7414H53.1517C53.1277 21.005 53.0199 21.5202 52.8282 22.287C52.6365 23.0298 52.4088 23.8925 52.1453 24.8749C51.8817 25.8334 51.6061 26.7919 51.3186 27.7504C50.2402 31.5125 49.6651 33.5014 49.5933 33.7171L43.6626 34.1125Z" fill="white"/>
<path d="M69.9982 18.745C70.5072 17.1949 70.993 15.6853 71.4558 14.2161C71.6524 13.6146 71.8549 12.9725 72.0631 12.29C72.2713 11.6075 72.4795 10.925 72.6878 10.2425C72.896 9.54839 73.0926 8.88322 73.2777 8.24698C73.4628 7.61074 73.619 7.0439 73.7462 6.54647C74.3825 6.54647 74.984 6.51177 75.5509 6.44236C75.8401 6.40766 76.1351 6.37295 76.4358 6.33825C76.7482 6.30354 77.0663 6.27462 77.3902 6.25149L77.2861 7.10174C77.2629 7.26369 77.2398 7.43143 77.2167 7.60495C77.1935 7.76691 77.1704 7.93464 77.1473 8.10816C77.1241 8.28168 77.0952 8.46099 77.0605 8.64608C77.0258 8.8196 76.9969 8.99891 76.9737 9.18399C76.9275 9.5426 76.8581 10.0458 76.7655 10.6936C76.673 11.3299 76.5631 12.024 76.4358 12.7759H76.6614C76.9969 11.8967 77.2745 11.1679 77.4943 10.5895C77.7141 9.99954 77.8934 9.51947 78.0322 9.14929C78.2289 8.60559 78.4429 8.05611 78.6742 7.50084C78.9056 6.94557 79.0965 6.51755 79.2469 6.21678C79.5245 6.19365 79.8542 6.15894 80.2359 6.11267C80.6292 6.05483 81.0226 5.99121 81.4159 5.9218C81.8208 5.85239 82.1678 5.79455 82.457 5.74828C82.2951 6.71999 82.1447 7.70328 82.0059 8.69814C81.8786 9.68142 81.7629 10.6242 81.6588 11.5265C81.5663 12.4173 81.4853 13.2213 81.4159 13.9385C81.3465 14.6557 81.2828 15.3671 81.225 16.0728C81.1672 16.7669 81.1093 17.4552 81.0515 18.1377L78.0322 18.6756C78.0322 18.6525 78.0496 18.3922 78.0843 17.8948C78.119 17.3973 78.1768 16.7784 78.2578 16.0381C78.3388 15.2977 78.4197 14.5979 78.5007 13.9385C78.5817 13.2675 78.6627 12.718 78.7437 12.29H78.5875C78.2983 13.1692 77.9455 14.1293 77.529 15.1705C77.1241 16.2116 76.725 17.3626 76.3317 18.6235C75.9268 18.6351 75.5798 18.6525 75.2906 18.6756C75.0014 18.6872 74.6659 18.7045 74.2842 18.7277L74.8394 12.29H74.5791C74.5676 12.4173 74.5155 12.666 74.423 13.0362C74.3304 13.3948 74.2205 13.8112 74.0933 14.2855C73.966 14.7482 73.833 15.211 73.6942 15.6737C73.1736 17.4899 72.896 18.45 72.8613 18.5541L69.9982 18.745ZM86.1034 18.8144C86.1265 18.6178 86.1497 18.4269 86.1728 18.2418C86.1959 18.0567 86.2191 17.8716 86.2422 17.6865L86.3463 16.7148C86.3579 16.5529 86.3695 16.4025 86.381 16.2637C86.3926 16.1248 86.4042 15.9976 86.4157 15.8819H84.9061L84.212 18.3806C83.9575 18.4153 83.6567 18.4558 83.3097 18.5021C82.9627 18.5368 82.6388 18.5715 82.338 18.6062C82.1529 18.6293 81.9678 18.6525 81.7827 18.6756C81.6092 18.6987 81.4299 18.7219 81.2448 18.745L82.6156 14.1988C82.7776 13.6551 82.9627 13.0362 83.1709 12.3421C83.3791 11.648 83.5873 10.9366 83.7956 10.2078C84.0154 9.47898 84.2178 8.79646 84.4029 8.16022C84.5995 7.51241 84.7557 6.96871 84.8714 6.52912C85.658 6.47128 86.4562 6.40187 87.266 6.3209C88.0873 6.23992 88.8855 6.13002 89.6606 5.99121C89.6027 6.63902 89.5449 7.37359 89.4871 8.19492C89.4408 9.00469 89.3945 9.84337 89.3482 10.711C89.3135 11.5786 89.273 12.4346 89.2268 13.2791C89.2036 14.0773 89.1747 14.9044 89.14 15.7604C89.1053 16.6049 89.0706 17.4725 89.0359 18.3633C88.8624 18.3864 88.6889 18.4095 88.5153 18.4327C88.3418 18.4558 88.1683 18.4789 87.9948 18.5021C87.7056 18.5484 87.3874 18.6004 87.0404 18.6582C86.6934 18.7161 86.381 18.7681 86.1034 18.8144ZM85.3225 14.1467C85.392 14.1467 85.5192 14.1409 85.7043 14.1293C85.9009 14.1178 86.086 14.1062 86.2596 14.0946C86.4331 14.0831 86.5372 14.0773 86.5719 14.0773C86.5719 13.9269 86.595 13.6204 86.6413 13.1576C86.6876 12.6949 86.7338 12.209 86.7801 11.7001C86.8033 11.3993 86.8264 11.0927 86.8495 10.7804C86.8842 10.4565 86.9189 10.1268 86.9536 9.79132L87.0578 8.28168L86.7975 8.29904L86.3984 9.79132L85.3225 14.1467Z" fill="white"/>
<path d="M67.9451 33.0852C68.1071 32.4142 68.269 31.6565 68.431 30.8121C68.5929 29.956 68.7549 29.0711 68.9168 28.1572C69.0788 27.2433 69.2292 26.3641 69.368 25.5197C69.4952 24.7793 69.6167 24.0274 69.7324 23.2639C69.8596 22.5004 69.9811 21.7311 70.0968 20.9561L72.8037 20.5223L72.0229 25.0859C71.8493 26.1617 71.6932 27.1276 71.5544 27.9837C71.4271 28.8397 71.2999 29.6495 71.1726 30.413C71.0569 31.1765 70.9355 31.9573 70.8082 32.7555C70.5884 32.7555 70.3224 32.7728 70.01 32.8076C69.6977 32.8307 69.3853 32.8654 69.073 32.9117C68.7607 32.9464 68.4946 32.9811 68.2748 33.0158C68.0666 33.0505 67.9567 33.0736 67.9451 33.0852ZM76.5543 33.0678C76.5775 32.8712 76.6006 32.6803 76.6238 32.4952C76.6469 32.3101 76.67 32.125 76.6932 31.9399L76.7973 30.9682C76.8088 30.8063 76.8204 30.6559 76.832 30.5171C76.8435 30.3783 76.8551 30.251 76.8667 30.1353H75.357L74.663 32.634C74.4085 32.6687 74.1077 32.7092 73.7607 32.7555C73.4136 32.7902 73.0897 32.8249 72.7889 32.8596C72.6038 32.8827 72.4188 32.9059 72.2337 32.929C72.0601 32.9522 71.8808 32.9753 71.6958 32.9984L73.0666 28.4522C73.2285 27.9085 73.4136 27.2896 73.6218 26.5955C73.8301 25.9014 74.0383 25.19 74.2465 24.4612C74.4663 23.7324 74.6687 23.0499 74.8538 22.4136C75.0505 21.7658 75.2067 21.2221 75.3223 20.7825C76.109 20.7247 76.9072 20.6553 77.7169 20.5743C78.5383 20.4933 79.3365 20.3834 80.1115 20.2446C80.0537 20.8924 79.9958 21.627 79.938 22.4483C79.8917 23.2581 79.8455 24.0968 79.7992 24.9644C79.7645 25.832 79.724 26.688 79.6777 27.5325C79.6546 28.3307 79.6257 29.1578 79.591 30.0139C79.5563 30.8583 79.5216 31.7259 79.4869 32.6167C79.3133 32.6398 79.1398 32.663 78.9663 32.6861C78.7928 32.7092 78.6192 32.7324 78.4457 32.7555C78.1565 32.8018 77.8384 32.8538 77.4914 32.9117C77.1443 32.9695 76.832 33.0216 76.5543 33.0678ZM75.7735 28.4001C75.8429 28.4001 75.9702 28.3943 76.1552 28.3828C76.3519 28.3712 76.537 28.3596 76.7105 28.3481C76.884 28.3365 76.9881 28.3307 77.0229 28.3307C77.0229 28.1803 77.046 27.8738 77.0923 27.411C77.1385 26.9483 77.1848 26.4625 77.2311 25.9535C77.2542 25.6527 77.2774 25.3461 77.3005 25.0338C77.3352 24.7099 77.3699 24.3802 77.4046 24.0447L77.5087 22.5351L77.2484 22.5525L76.8493 24.0447L75.7735 28.4001ZM81.7533 29.0942C81.9384 28.377 82.1177 27.6655 82.2913 26.9599C82.4648 26.2542 82.6383 25.5486 82.8118 24.8429C82.9738 24.1373 83.1415 23.4316 83.315 22.726C83.5001 22.0088 83.6852 21.2973 83.8703 20.5917C84.5297 20.4876 85.1312 20.4008 85.6749 20.3314C86.2186 20.262 86.664 20.1984 87.011 20.1405C86.3863 21.5981 85.8137 23.0672 85.2932 24.5479C84.7842 26.0171 84.2752 27.4978 83.7662 28.9901C83.4307 28.9901 83.0952 29.0017 82.7598 29.0248C82.4243 29.0479 82.0888 29.0711 81.7533 29.0942ZM81.7186 33.5016C81.3716 33.5016 81.0824 33.4149 80.851 33.2414C80.6312 33.0794 80.4635 32.877 80.3478 32.634C80.2437 32.3795 80.1916 32.125 80.1916 31.8705C80.1916 31.4078 80.342 31.0087 80.6428 30.6732C80.9551 30.3262 81.3832 30.1527 81.9269 30.1527C82.5978 30.1527 83.101 30.3146 83.4365 30.6385C83.772 30.9509 83.9397 31.3095 83.9397 31.7144C83.9397 32.1771 83.7488 32.5935 83.3671 32.9637C82.9853 33.3223 82.4359 33.5016 81.7186 33.5016Z" fill="white"/>
<path d="M3.80067 31.9718C4.85501 28.7609 5.86144 25.6338 6.81993 22.5905C7.2273 21.3445 7.64664 20.0146 8.07796 18.6008C8.50929 17.187 8.94061 15.7732 9.37193 14.3594C9.80326 12.9217 10.2106 11.5439 10.594 10.2259C10.9774 8.90799 11.3009 7.73383 11.5645 6.70344C12.8824 6.70344 14.1285 6.63156 15.3026 6.48778C15.9017 6.41589 16.5127 6.34401 17.1358 6.27212C17.7828 6.20023 18.4417 6.14033 19.1127 6.0924L18.897 7.85364C18.8491 8.18911 18.8012 8.53657 18.7532 8.89601C18.7053 9.23148 18.6574 9.57894 18.6095 9.93837C18.5615 10.2978 18.5016 10.6692 18.4297 11.0526C18.3578 11.4121 18.2979 11.7835 18.25 12.1669C18.1542 12.9097 18.0104 13.9521 17.8187 15.294C17.627 16.6119 17.3994 18.0497 17.1358 19.6072H17.603C18.2979 17.7861 18.873 16.2764 19.3283 15.0783C19.7836 13.8562 20.155 12.8618 20.4426 12.095C20.8499 10.9688 21.2932 9.83054 21.7725 8.68034C22.2517 7.53015 22.6471 6.64354 22.9586 6.02051C23.5337 5.97259 24.2167 5.9007 25.0074 5.80485C25.8222 5.68504 26.6369 5.55325 27.4516 5.40947C28.2903 5.2657 29.0092 5.14588 29.6082 5.05003C29.2727 7.06288 28.9612 9.09969 28.6737 11.1605C28.4101 13.1973 28.1705 15.1502 27.9548 17.0193C27.7631 18.8644 27.5954 20.5298 27.4516 22.0154C27.3078 23.5011 27.176 24.9748 27.0562 26.4365C26.9364 27.8743 26.8166 29.3 26.6968 30.7138L20.4426 31.8281C20.4426 31.7801 20.4785 31.241 20.5504 30.2106C20.6223 29.1802 20.7421 27.8982 20.9098 26.3646C21.0776 24.831 21.2453 23.3813 21.4131 22.0154C21.5808 20.6256 21.7485 19.4874 21.9163 18.6008H21.5928C20.9937 20.4219 20.2629 22.4108 19.4002 24.5674C18.5615 26.7241 17.7348 29.1083 16.9201 31.7202C16.0814 31.7442 15.3625 31.7801 14.7635 31.8281C14.1644 31.852 13.4695 31.888 12.6788 31.9359L13.8289 18.6008H13.2898C13.2658 18.8644 13.158 19.3796 12.9663 20.1464C12.7746 20.8892 12.547 21.7519 12.2834 22.7343C12.0198 23.6928 11.7442 24.6513 11.4567 25.6098C10.3784 29.3719 9.80326 31.3608 9.73137 31.5765L3.80067 31.9718ZM37.1614 32.1156C37.2094 31.7083 37.2573 31.3129 37.3052 30.9295C37.3531 30.5461 37.4011 30.1627 37.449 29.7793L37.6647 27.7664C37.6886 27.431 37.7126 27.1194 37.7365 26.8319C37.7605 26.5443 37.7845 26.2808 37.8084 26.0411H34.6813L33.2436 31.217C32.7164 31.2889 32.0934 31.3728 31.3745 31.4686C30.6556 31.5405 29.9847 31.6124 29.3617 31.6843C28.9783 31.7322 28.5949 31.7801 28.2115 31.8281C27.852 31.876 27.4806 31.9239 27.0972 31.9718L29.9368 22.5546C30.2722 21.4284 30.6556 20.1464 31.087 18.7086C31.5183 17.2709 31.9496 15.7972 32.3809 14.2876C32.8362 12.7779 33.2556 11.3641 33.639 10.0462C34.0463 8.70431 34.3698 7.57807 34.6094 6.6675C36.2389 6.54769 37.8923 6.40391 39.5697 6.23617C41.271 6.06844 42.9244 5.8408 44.5299 5.55325C44.4101 6.89514 44.2903 8.41676 44.1705 10.1181C44.0746 11.7955 43.9788 13.5327 43.8829 15.3299C43.811 17.1271 43.7271 18.9003 43.6313 20.6496C43.5834 22.303 43.5235 24.0163 43.4516 25.7895C43.3797 27.5388 43.3078 29.336 43.2359 31.1811C42.8765 31.229 42.517 31.2769 42.1576 31.3249C41.7982 31.3728 41.4387 31.4207 41.0793 31.4686C40.4802 31.5645 39.8213 31.6723 39.1024 31.7921C38.3835 31.9119 37.7365 32.0198 37.1614 32.1156ZM35.544 22.4468C35.6878 22.4468 35.9513 22.4348 36.3347 22.4108C36.7421 22.3869 37.1255 22.3629 37.4849 22.3389C37.8444 22.315 38.06 22.303 38.1319 22.303C38.1319 21.9915 38.1798 21.3565 38.2757 20.398C38.3715 19.4395 38.4674 18.4331 38.5632 17.3787C38.6112 16.7557 38.6591 16.1207 38.707 15.4737C38.7789 14.8027 38.8508 14.1198 38.9227 13.4249L39.1383 10.2978L38.5992 10.3338L37.7725 13.4249L35.544 22.4468ZM43.0424 31.9718C44.0968 28.7609 45.1032 25.6338 46.0617 22.5905C46.4691 21.3445 46.8884 20.0146 47.3197 18.6008C47.7511 17.187 48.1824 15.7732 48.6137 14.3594C49.045 12.9217 49.4524 11.5439 49.8358 10.2259C50.2192 8.90799 50.5427 7.73383 50.8063 6.70344C52.1242 6.70344 53.3703 6.63156 54.5444 6.48778C55.1435 6.41589 55.7545 6.34401 56.3775 6.27212C57.0245 6.20023 57.6835 6.14033 58.3544 6.0924L58.1388 7.85364C58.0909 8.18911 58.0429 8.53657 57.995 8.89601C57.9471 9.23148 57.8992 9.57894 57.8512 9.93837C57.8033 10.2978 57.7434 10.6692 57.6715 11.0526C57.5996 11.4121 57.5397 11.7835 57.4918 12.1669C57.3959 12.9097 57.2522 13.9521 57.0605 15.294C56.8688 16.6119 56.6411 18.0497 56.3775 19.6072H56.8448C57.5397 17.7861 58.1148 16.2764 58.5701 15.0783C59.0254 13.8562 59.3968 12.8618 59.6844 12.095C60.0917 10.9688 60.535 9.83054 61.0143 8.68034C61.4935 7.53015 61.8889 6.64354 62.2004 6.02051C62.7755 5.97259 63.4584 5.9007 64.2492 5.80485C65.0639 5.68504 65.8786 5.55325 66.6934 5.40947C67.5321 5.2657 68.2509 5.14588 68.85 5.05003C68.5145 7.06288 68.203 9.09969 67.9155 11.1605C67.6519 13.1973 67.4122 15.1502 67.1966 17.0193C67.0049 18.8644 66.8371 20.5298 66.6934 22.0154C66.5496 23.5011 66.4178 24.9748 66.298 26.4365C66.1782 27.8743 66.0584 29.3 65.9386 30.7138L59.6844 31.8281C59.6844 31.7801 59.7203 31.241 59.7922 30.2106C59.8641 29.1802 59.9839 27.8982 60.1516 26.3646C60.3194 24.831 60.4871 23.3813 60.6548 22.0154C60.8226 20.6256 60.9903 19.4874 61.158 18.6008H60.8346C60.2355 20.4219 59.5046 22.4108 58.642 24.5674C57.8033 26.7241 56.9766 29.1083 56.1619 31.7202C55.3232 31.7442 54.6043 31.7801 54.0053 31.8281C53.4062 31.852 52.7113 31.888 51.9205 31.9359L53.0707 18.6008H52.5316C52.5076 18.8644 52.3998 19.3796 52.2081 20.1464C52.0164 20.8892 51.7887 21.7519 51.5251 22.7343C51.2616 23.6928 50.986 24.6513 50.6984 25.6098C49.6201 29.3719 49.045 31.3608 48.9731 31.5765L43.0424 31.9718Z" fill="black"/>
<path d="M69.3781 16.6044C69.8871 15.0543 70.3729 13.5446 70.8356 12.0755C71.0323 11.4739 71.2347 10.8319 71.443 10.1494C71.6512 9.46688 71.8594 8.78436 72.0676 8.10185C72.2759 7.40776 72.4725 6.7426 72.6576 6.10636C72.8427 5.47011 72.9989 4.90328 73.1261 4.40585C73.7624 4.40585 74.3639 4.37114 74.9307 4.30174C75.2199 4.26703 75.5149 4.23233 75.8157 4.19762C76.128 4.16292 76.4462 4.134 76.7701 4.11086L76.666 4.96112C76.6428 5.12307 76.6197 5.29081 76.5966 5.46433C76.5734 5.62628 76.5503 5.79402 76.5271 5.96754C76.504 6.14106 76.4751 6.32036 76.4404 6.50545C76.4057 6.67898 76.3768 6.85828 76.3536 7.04337C76.3073 7.40198 76.2379 7.90519 76.1454 8.553C76.0529 9.18925 75.943 9.88333 75.8157 10.6353H76.0413C76.3768 9.75608 76.6544 9.02729 76.8742 8.44889C77.094 7.85892 77.2733 7.37884 77.4121 7.00867C77.6088 6.46497 77.8228 5.91548 78.0541 5.36021C78.2855 4.80495 78.4764 4.37693 78.6267 4.07616C78.9044 4.05302 79.2341 4.01832 79.6158 3.97205C80.0091 3.91421 80.4024 3.85058 80.7958 3.78117C81.2006 3.71176 81.5477 3.65392 81.8369 3.60765C81.6749 4.57937 81.5246 5.56266 81.3857 6.55751C81.2585 7.5408 81.1428 8.48359 81.0387 9.3859C80.9461 10.2766 80.8652 11.0806 80.7958 11.7978C80.7264 12.5151 80.6627 13.2265 80.6049 13.9322C80.547 14.6262 80.4892 15.3145 80.4314 15.9971L77.4121 16.535C77.4121 16.5118 77.4295 16.2516 77.4642 15.7541C77.4989 15.2567 77.5567 14.6378 77.6377 13.8975C77.7187 13.1571 77.7996 12.4572 77.8806 11.7978C77.9616 11.1269 78.0426 10.5774 78.1235 10.1494H77.9674C77.6782 11.0286 77.3253 11.9887 76.9089 13.0298C76.504 14.071 76.1049 15.222 75.7116 16.4829C75.3067 16.4945 74.9597 16.5118 74.6705 16.535C74.3813 16.5465 74.0458 16.5639 73.664 16.587L74.2193 10.1494H73.959C73.9475 10.2766 73.8954 10.5254 73.8029 10.8955C73.7103 11.2541 73.6004 11.6706 73.4732 12.1449C73.3459 12.6076 73.2129 13.0703 73.0741 13.5331C72.5535 15.3492 72.2759 16.3094 72.2412 16.4135L69.3781 16.6044ZM85.4833 16.6738C85.5064 16.4771 85.5295 16.2863 85.5527 16.1012C85.5758 15.9161 85.599 15.731 85.6221 15.5459L85.7262 14.5742C85.7378 14.4122 85.7493 14.2618 85.7609 14.123C85.7725 13.9842 85.784 13.857 85.7956 13.7413H84.286L83.5919 16.24C83.3374 16.2747 83.0366 16.3152 82.6896 16.3615C82.3425 16.3962 82.0186 16.4309 81.7179 16.4656C81.5328 16.4887 81.3477 16.5118 81.1626 16.535C80.9891 16.5581 80.8098 16.5812 80.6247 16.6044L81.9955 12.0581C82.1575 11.5144 82.3425 10.8955 82.5508 10.2015C82.759 9.50737 82.9672 8.79593 83.1754 8.06714C83.3952 7.33835 83.5977 6.65584 83.7828 6.01959C83.9794 5.37178 84.1356 4.82808 84.2513 4.3885C85.0379 4.33066 85.8361 4.26125 86.6459 4.18027C87.4672 4.09929 88.2654 3.9894 89.0405 3.85058C88.9826 4.49839 88.9248 5.23297 88.8669 6.0543C88.8207 6.86406 88.7744 7.70275 88.7281 8.57036C88.6934 9.43796 88.6529 10.294 88.6067 11.1385C88.5835 11.9367 88.5546 12.7638 88.5199 13.6198C88.4852 14.4643 88.4505 15.3319 88.4158 16.2226C88.2423 16.2458 88.0687 16.2689 87.8952 16.292C87.7217 16.3152 87.5482 16.3383 87.3747 16.3615C87.0855 16.4077 86.7673 16.4598 86.4203 16.5176C86.0732 16.5755 85.7609 16.6275 85.4833 16.6738ZM84.7024 12.0061C84.7718 12.0061 84.8991 12.0003 85.0842 11.9887C85.2808 11.9772 85.4659 11.9656 85.6394 11.954C85.813 11.9424 85.9171 11.9367 85.9518 11.9367C85.9518 11.7863 85.9749 11.4797 86.0212 11.017C86.0675 10.5543 86.1137 10.0684 86.16 9.55943C86.1831 9.25866 86.2063 8.9521 86.2294 8.63976C86.2641 8.31586 86.2988 7.98617 86.3335 7.65069L86.4376 6.14106L86.1774 6.15841L85.7783 7.65069L84.7024 12.0061Z" fill="black"/>
<path d="M67.325 30.9446C67.487 30.2736 67.6489 29.5159 67.8109 28.6714C67.9728 27.8154 68.1348 26.9304 68.2967 26.0166C68.4587 25.1027 68.6091 24.2235 68.7479 23.379C68.8751 22.6387 68.9966 21.8868 69.1123 21.1233C69.2395 20.3598 69.361 19.5905 69.4767 18.8154L72.1836 18.3816L71.4028 22.9452C71.2292 24.0211 71.0731 24.987 70.9342 25.843C70.807 26.6991 70.6797 27.5088 70.5525 28.2723C70.4368 29.0358 70.3154 29.8167 70.1881 30.6149C69.9683 30.6149 69.7022 30.6322 69.3899 30.6669C69.0776 30.6901 68.7652 30.7248 68.4529 30.771C68.1406 30.8057 67.8745 30.8404 67.6547 30.8752C67.4465 30.9099 67.3366 30.933 67.325 30.9446ZM75.9342 30.9272C75.9574 30.7306 75.9805 30.5397 76.0036 30.3546C76.0268 30.1695 76.0499 29.9844 76.073 29.7993L76.1772 28.8276C76.1887 28.6657 76.2003 28.5153 76.2119 28.3764C76.2234 28.2376 76.235 28.1104 76.2466 27.9947H74.7369L74.0428 30.4934C73.7884 30.5281 73.4876 30.5686 73.1405 30.6149C72.7935 30.6496 72.4696 30.6843 72.1688 30.719C71.9837 30.7421 71.7986 30.7653 71.6136 30.7884C71.44 30.8115 71.2607 30.8347 71.0756 30.8578L72.4465 26.3115C72.6084 25.7678 72.7935 25.149 73.0017 24.4549C73.2099 23.7608 73.4182 23.0494 73.6264 22.3206C73.8462 21.5918 74.0486 20.9093 74.2337 20.273C74.4304 19.6252 74.5865 19.0815 74.7022 18.6419C75.4889 18.5841 76.2871 18.5147 77.0968 18.4337C77.9182 18.3527 78.7164 18.2428 79.4914 18.104C79.4336 18.7518 79.3757 19.4864 79.3179 20.3077C79.2716 21.1175 79.2253 21.9562 79.1791 22.8238C79.1444 23.6914 79.1039 24.5474 79.0576 25.3919C79.0345 26.1901 79.0056 27.0172 78.9708 27.8732C78.9361 28.7177 78.9014 29.5853 78.8667 30.4761C78.6932 30.4992 78.5197 30.5223 78.3462 30.5455C78.1727 30.5686 77.9991 30.5917 77.8256 30.6149C77.5364 30.6611 77.2183 30.7132 76.8712 30.771C76.5242 30.8289 76.2119 30.8809 75.9342 30.9272ZM75.1534 26.2595C75.2228 26.2595 75.35 26.2537 75.5351 26.2421C75.7318 26.2306 75.9169 26.219 76.0904 26.2074C76.2639 26.1959 76.368 26.1901 76.4027 26.1901C76.4027 26.0397 76.4259 25.7331 76.4721 25.2704C76.5184 24.8077 76.5647 24.3218 76.611 23.8128C76.6341 23.5121 76.6572 23.2055 76.6804 22.8932C76.7151 22.5693 76.7498 22.2396 76.7845 21.9041L76.8886 20.3945L76.6283 20.4118L76.2292 21.9041L75.1534 26.2595ZM81.1332 26.9536C81.3183 26.2364 81.4976 25.5249 81.6711 24.8193C81.8447 24.1136 82.0182 23.408 82.1917 22.7023C82.3537 21.9967 82.5214 21.291 82.6949 20.5854C82.88 19.8681 83.0651 19.1567 83.2502 18.451C83.9096 18.3469 84.5111 18.2602 85.0548 18.1908C85.5985 18.1214 86.0439 18.0577 86.3909 17.9999C85.7662 19.4575 85.1936 20.9266 84.673 22.4073C84.1641 23.8765 83.6551 25.3572 83.1461 26.8495C82.8106 26.8495 82.4751 26.861 82.1396 26.8842C81.8042 26.9073 81.4687 26.9304 81.1332 26.9536ZM81.0985 31.361C80.7515 31.361 80.4623 31.2743 80.2309 31.1007C80.0111 30.9388 79.8434 30.7363 79.7277 30.4934C79.6236 30.2389 79.5715 29.9844 79.5715 29.7299C79.5715 29.2672 79.7219 28.8681 80.0227 28.5326C80.335 28.1856 80.763 28.0121 81.3067 28.0121C81.9777 28.0121 82.4809 28.174 82.8164 28.4979C83.1518 28.8103 83.3196 29.1689 83.3196 29.5737C83.3196 30.0365 83.1287 30.4529 82.747 30.8231C82.3652 31.1817 81.8157 31.361 81.0985 31.361Z" fill="black"/>
</g>
<defs>
<clipPath id="clip0_239_593">
<rect width="95" height="40" fill="white"/>
</clipPath>
</defs>
</svg>
