<svg width="120" height="120" viewBox="0 0 120 120" fill="none" xmlns="http://www.w3.org/2000/svg">
<rect width="120" height="120" fill="black"/>
<path d="M51.1194 38.024C47.3398 40.6072 47.5685 48.448 49.3453 51.2912C51.1221 54.1343 54.899 55.6107 54.899 55.6107C52.8851 60.3493 49.695 64.4366 53.2627 75.7046C56.8305 86.9726 70.9626 88.4839 83.4711 79.2585C95.9795 70.0331 101.961 65.3476 104.449 62.5044C93.5327 57.6108 88.071 44.1579 78.4754 37.4055C70.7989 32.0035 64.1352 35.4951 60.7284 39.4892C58.2614 35.8475 54.899 35.4408 51.1194 38.024Z" fill="white" stroke="#C80C0C" stroke-width="3" stroke-linecap="round"/>
<path d="M70.2937 51.8973C68.0295 49.9458 65.0779 49.7144 64.1094 51.8973C62.9488 54.513 58.0338 55.9703 57.0785 51.8973C57.5629 53.9628 56.8786 54.1899 55.3898 55.1373C58.746 56.4147 53.0389 67.1757 62.7836 67.1757C72.5283 67.1757 72.7457 60.8189 82.4756 60.8189C77.9535 60.6859 72.5579 53.8487 70.2937 51.8973Z" fill="#C80C0C"/>
<path d="M37.4782 32.6335C38.5675 30.5263 40.3939 27.1097 43.8576 28.5971C48.1875 30.4568 49.0672 36.232 48.7344 40.7488C48.468 44.3623 46.9873 50.0034 45.2721 52.6544C47.9886 52.2625 49.9025 52.6868 52.3356 55.7484C54.7685 58.81 53.6401 64.8432 49.1783 66.6062C50.0107 68.1164 51.3499 71.8178 50.0482 74.5415C48.4208 77.9458 42.5963 79.0851 39.9026 78.242C37.7477 77.5674 34.4813 79.2274 34.1258 79.8594C34.4402 80.8363 34.3457 83.1895 31.4508 84.7865C27.8319 86.7827 19.898 86.9527 16.0137 79.2584C14.5019 76.2635 16.9639 74.0963 18.8483 73.5687C15.649 63.8971 13.9095 60.0224 20.8059 53.3295C27.7025 46.6365 25.8941 37.4376 29.0082 33.4918C32.1222 29.5464 35.9632 31.1735 37.4782 32.6335ZM42.4786 58.0528C41.2141 59.1959 38.4497 60.3293 38.43 60.3373C38.9178 62.0808 37.3628 66.2259 37.3628 66.2259L40.545 67.8916C40.545 67.8916 40.763 65.2742 42.9516 64.6612C41.4655 63.4657 41.7709 59.5334 42.4786 58.0528Z" fill="white"/>
<path d="M37.4782 32.6335L36.4373 33.7136C36.7784 34.0423 37.2547 34.1906 37.7221 34.1135C38.1895 34.0365 38.5931 33.7431 38.8106 33.3223L37.4782 32.6335ZM43.8576 28.5971L44.4495 27.2188L44.4494 27.2188L43.8576 28.5971ZM48.7344 40.7488L50.2303 40.8591L50.2303 40.859L48.7344 40.7488ZM45.2721 52.6544L44.0127 51.8396C43.6932 52.3334 43.6918 52.9685 44.0092 53.4637C44.3265 53.959 44.9041 54.223 45.4863 54.139L45.2721 52.6544ZM52.3356 55.7484L53.51 54.8152L53.5099 54.8151L52.3356 55.7484ZM49.1783 66.6062L48.6271 65.2111C48.2262 65.3695 47.9128 65.6928 47.7669 66.0984C47.6209 66.504 47.6566 66.9527 47.8646 67.3303L49.1783 66.6062ZM50.0482 74.5415L51.4015 75.1884L51.4016 75.1883L50.0482 74.5415ZM39.9026 78.242L39.4545 79.6735L39.4546 79.6735L39.9026 78.242ZM34.1258 79.8594L32.8184 79.124C32.6136 79.4881 32.5699 79.9212 32.6979 80.319L34.1258 79.8594ZM31.4508 84.7865L32.1753 86.0999L32.1753 86.0999L31.4508 84.7865ZM16.0137 79.2584L14.6747 79.9344L14.6747 79.9344L16.0137 79.2584ZM18.8483 73.5687L19.2528 75.0131C19.6475 74.9026 19.9798 74.6353 20.1724 74.2735C20.365 73.9117 20.4012 73.4867 20.2724 73.0976L18.8483 73.5687ZM20.8059 53.3295L19.7613 52.2531L19.7612 52.2531L20.8059 53.3295ZM29.0082 33.4918L27.8308 32.5625L27.8308 32.5625L29.0082 33.4918ZM42.4786 58.0528L43.832 58.6997C44.1409 58.0533 43.9497 57.2787 43.3754 56.8504C42.8011 56.4221 42.0042 56.4596 41.4727 56.94L42.4786 58.0528ZM38.43 60.3373L37.8618 58.9491C37.157 59.2376 36.7803 60.0083 36.9855 60.7416L38.43 60.3373ZM37.3628 66.2259L35.9584 65.6991C35.6925 66.4079 35.9965 67.2038 36.6672 67.5549L37.3628 66.2259ZM40.545 67.8916L39.8494 69.2205C40.2947 69.4536 40.8273 69.4482 41.2677 69.206C41.7082 68.9638 41.9981 68.517 42.0398 68.0161L40.545 67.8916ZM42.9516 64.6612L43.3562 66.1056C43.8973 65.954 44.3083 65.5128 44.4211 64.9624C44.5339 64.4119 44.3296 63.8446 43.8918 63.4924L42.9516 64.6612ZM37.4782 32.6335L38.8106 33.3223C39.3746 32.2314 39.992 31.0989 40.786 30.3777C41.1593 30.0386 41.5155 29.8456 41.8657 29.7709C42.2005 29.6995 42.6481 29.7101 43.2657 29.9754L43.8576 28.5971L44.4494 27.2188C43.3352 26.7403 42.2556 26.6202 41.2398 26.837C40.2393 27.0504 39.4214 27.5644 38.769 28.157C37.5116 29.299 36.6711 30.9284 36.1457 31.9446L37.4782 32.6335ZM43.8576 28.5971L43.2656 29.9753C44.8981 30.6765 45.9772 32.1447 46.6163 34.1351C47.2581 36.1338 47.396 38.4994 47.2384 40.6386L48.7344 40.7488L50.2303 40.859C50.4055 38.4814 50.27 35.701 49.4727 33.2179C48.6727 30.7266 47.147 28.3774 44.4495 27.2188L43.8576 28.5971ZM48.7344 40.7488L47.2384 40.6386C47.1143 42.3223 46.7003 44.5346 46.1028 46.6558C45.4986 48.8005 44.7482 50.7028 44.0127 51.8396L45.2721 52.6544L46.5315 53.4693C47.5112 51.955 48.3588 49.7113 48.9904 47.4693C49.6286 45.2038 50.0881 42.7888 50.2303 40.8591L48.7344 40.7488ZM45.2721 52.6544L45.4863 54.139C46.7264 53.9601 47.5863 53.9986 48.3628 54.3029C49.1479 54.6106 50.0355 55.265 51.1613 56.6816L52.3356 55.7484L53.5099 54.8151C52.2026 53.1701 50.9167 52.0816 49.4574 51.5097C47.9895 50.9345 46.5342 50.9568 45.0579 51.1698L45.2721 52.6544ZM52.3356 55.7484L51.1612 56.6816C52.0203 57.7626 52.338 59.5239 51.8885 61.2954C51.447 63.0357 50.3247 64.5403 48.6271 65.2111L49.1783 66.6062L49.7295 68.0012C52.4937 66.909 54.1665 64.5156 54.7964 62.0332C55.4184 59.5818 55.0838 56.7957 53.51 54.8152L52.3356 55.7484ZM49.1783 66.6062L47.8646 67.3303C48.2124 67.9613 48.6962 69.1152 48.9399 70.3985C49.1869 71.6997 49.1512 72.9398 48.6948 73.8946L50.0482 74.5415L51.4016 75.1883C52.247 73.4194 52.1925 71.447 51.8872 69.839C51.5786 68.2132 50.9766 66.7613 50.492 65.8821L49.1783 66.6062ZM50.0482 74.5415L48.6949 73.8945C48.1452 75.0444 46.7618 75.997 44.9402 76.549C43.1282 77.0982 41.3217 77.1144 40.3507 76.8105L39.9026 78.242L39.4546 79.6735C41.1773 80.2127 43.6298 80.0809 45.8103 79.4201C47.9813 78.7621 50.3238 77.4429 51.4015 75.1884L50.0482 74.5415ZM39.9026 78.242L40.3508 76.8105C38.7997 76.3249 37.0597 76.7042 35.8283 77.1505C35.1793 77.3857 34.5821 77.6718 34.1035 77.959C33.8651 78.1021 33.6359 78.2575 33.4367 78.4207C33.2683 78.5588 33.0025 78.7968 32.8184 79.124L34.1258 79.8594L35.4331 80.5948C35.3379 80.764 35.2519 80.8119 35.3386 80.7408C35.3946 80.6949 35.4957 80.6223 35.6471 80.5314C35.9483 80.3507 36.3691 80.1454 36.8505 79.971C37.8799 79.5979 38.8506 79.4845 39.4545 79.6735L39.9026 78.242ZM34.1258 79.8594L32.6979 80.319C32.8038 80.648 32.9609 82.2403 30.7263 83.4731L31.4508 84.7865L32.1753 86.0999C35.7305 84.1387 36.0766 81.0247 35.5536 79.3998L34.1258 79.8594ZM31.4508 84.7865L30.7263 83.4731C29.2506 84.2871 26.7411 84.7845 24.167 84.1943C21.6607 83.6198 19.0849 82.0136 17.3528 78.5825L16.0137 79.2584L14.6747 79.9344C16.8268 84.1976 20.1601 86.3536 23.4966 87.1185C26.7652 87.8679 30.0321 87.2822 32.1753 86.0999L31.4508 84.7865ZM16.0137 79.2584L17.3528 78.5825C16.8544 77.5952 17.0265 76.8826 17.4012 76.3268C17.837 75.6804 18.6032 75.195 19.2528 75.0131L18.8483 73.5687L18.4439 72.1242C17.209 72.47 15.802 73.332 14.9137 74.6499C13.9642 76.0583 13.6612 77.9268 14.6747 79.9344L16.0137 79.2584ZM18.8483 73.5687L20.2724 73.0976C19.4624 70.6489 18.7726 68.6484 18.2805 66.8677C17.7907 65.0959 17.5293 63.6502 17.5411 62.3456C17.5634 59.8796 18.5635 57.5959 21.8506 54.4059L20.8059 53.3295L19.7612 52.2531C16.1518 55.7559 14.5735 58.756 14.5413 62.3185C14.5258 64.0282 14.8681 65.7829 15.3889 67.6669C15.9072 69.542 16.6346 71.6526 17.4242 74.0398L18.8483 73.5687ZM20.8059 53.3295L21.8506 54.4059C25.6152 50.7525 26.9694 46.4312 27.7904 42.703C28.2229 40.7387 28.4596 39.2093 28.8389 37.6748C29.2022 36.2047 29.612 35.148 30.1857 34.4211L29.0082 33.4918L27.8308 32.5625C26.8474 33.8085 26.3154 35.3813 25.9265 36.955C25.5535 38.4641 25.2273 40.3926 24.8606 42.0579C24.0831 45.5888 22.8933 49.2135 19.7613 52.2531L20.8059 53.3295ZM29.0082 33.4918L30.1857 34.4212C31.4555 32.8123 32.7295 32.469 33.7494 32.5327C34.8719 32.6028 35.8884 33.1845 36.4373 33.7136L37.4782 32.6335L38.5191 31.5534C37.553 30.6224 35.8915 29.6606 33.9363 29.5386C31.8785 29.4101 29.6749 30.226 27.8308 32.5625L29.0082 33.4918ZM42.4786 58.0528L41.4727 56.94C41.0033 57.3643 40.1564 57.8578 39.3149 58.28C38.5107 58.6834 37.8534 58.9526 37.8618 58.9491L38.43 60.3373L38.9982 61.7256C39.0262 61.7141 39.761 61.4125 40.6601 60.9614C41.5218 60.5291 42.6893 59.8843 43.4845 59.1655L42.4786 58.0528ZM38.43 60.3373L36.9855 60.7416C37.0258 60.8857 37.0506 61.2319 36.98 61.8116C36.914 62.3538 36.7828 62.9642 36.6281 63.5562C36.4747 64.143 36.3059 64.6832 36.1747 65.0781C36.1094 65.2747 36.0541 65.4333 36.0156 65.5413C35.9964 65.5952 35.9814 65.6364 35.9716 65.6633C35.9667 65.6767 35.9631 65.6865 35.9608 65.6926C35.9597 65.6956 35.9589 65.6977 35.9585 65.6987C35.9583 65.6993 35.9582 65.6996 35.9582 65.6996C35.9582 65.6997 35.9582 65.6996 35.9582 65.6995C35.9583 65.6995 35.9583 65.6994 35.9583 65.6994C35.9584 65.6992 35.9584 65.6991 37.3628 66.2259C38.7673 66.7528 38.7673 66.7526 38.7674 66.7524C38.7675 66.7523 38.7675 66.7521 38.7676 66.7519C38.7677 66.7516 38.7679 66.7512 38.7681 66.7507C38.7684 66.7497 38.7689 66.7485 38.7694 66.7471C38.7705 66.7442 38.7719 66.7403 38.7738 66.7354C38.7774 66.7256 38.7824 66.712 38.7888 66.6946C38.8015 66.6599 38.8195 66.6103 38.8418 66.5475C38.8865 66.422 38.9489 66.2432 39.0217 66.0239C39.1668 65.5871 39.3562 64.982 39.5306 64.3147C39.7037 63.6524 39.8697 62.8997 39.9581 62.1742C40.0418 61.4864 40.0781 60.6607 39.8745 59.9331L38.43 60.3373ZM37.3628 66.2259L36.6672 67.5549L39.8494 69.2205L40.545 67.8916L41.2406 66.5626L38.0585 64.897L37.3628 66.2259ZM40.545 67.8916C42.0398 68.0161 42.0398 68.0167 42.0397 68.0172C42.0397 68.0174 42.0397 68.018 42.0396 68.0183C42.0396 68.019 42.0395 68.0197 42.0395 68.0204C42.0393 68.0216 42.0392 68.0228 42.0392 68.0238C42.039 68.0257 42.0388 68.0272 42.0388 68.028C42.0386 68.0297 42.0386 68.0291 42.0389 68.0265C42.0395 68.0212 42.0411 68.0076 42.044 67.9868C42.0499 67.9451 42.061 67.8759 42.08 67.7873C42.1187 67.6065 42.1859 67.3659 42.2961 67.1205C42.5198 66.6219 42.845 66.2488 43.3562 66.1056L42.9516 64.6612L42.5471 63.2168C40.8697 63.6866 39.9915 64.9286 39.5591 65.892C39.3412 66.3775 39.2171 66.8297 39.1466 67.1587C39.1109 67.3251 39.0879 67.4652 39.0733 67.569C39.0659 67.621 39.0607 67.6642 39.057 67.6976C39.0552 67.7142 39.0537 67.7285 39.0526 67.7401C39.0521 67.7459 39.0516 67.7511 39.0512 67.7556C39.051 67.7578 39.0508 67.7599 39.0506 67.7618C39.0505 67.7628 39.0505 67.7637 39.0504 67.7646C39.0503 67.765 39.0503 67.7656 39.0503 67.7659C39.0502 67.7665 39.0502 67.7671 40.545 67.8916ZM42.9516 64.6612L43.8918 63.4924C43.8453 63.455 43.7094 63.3032 43.587 62.8984C43.4696 62.5098 43.4012 62.0064 43.3922 61.4401C43.3735 60.2638 43.611 59.162 43.832 58.6997L42.4786 58.0528L41.1252 57.4059C40.6385 58.4242 40.3694 60.0288 40.3926 61.4878C40.4046 62.2391 40.4943 63.0354 40.7154 63.7667C40.9316 64.4816 41.3149 65.2697 42.0115 65.83L42.9516 64.6612Z" fill="#C80C0C"/>
<path d="M24.0646 78.4363C24.0646 78.4363 20.2401 76.4934 18.6729 72.8652" stroke="#C80C0C" stroke-width="3" stroke-linecap="round" stroke-linejoin="round"/>
<path d="M35.019 79.114C35.019 79.114 33.5507 79.9558 31.4678 79.4717" stroke="#C80C0C" stroke-width="3" stroke-linecap="round" stroke-linejoin="round"/>
<path d="M33.5224 52.3915C37.1291 48.712 41.409 40.0303 37.6764 32.5648" stroke="#C80C0C" stroke-width="3" stroke-linecap="round" stroke-linejoin="round"/>
<path d="M51.8259 64.6329C48.1754 67.7745 43.9434 67.1756 42.1572 63.3501" stroke="#C80C0C" stroke-width="3" stroke-linecap="round" stroke-linejoin="round"/>
<path d="M28.8458 60.6408C31.4484 61.9634 35.5855 66.4824 31.3128 73.9775" stroke="#C80C0C" stroke-width="3" stroke-linecap="round" stroke-linejoin="round"/>
<path d="M42.5904 64.8995C42.018 64.616 40.2277 66.8331 40.8465 69.6773" stroke="#C80C0C" stroke-width="3" stroke-linecap="round" stroke-linejoin="round"/>
<rect x="39.1592" y="60.6489" width="1.82715" height="5.53857" fill="#C80C0C"/>
</svg>
