<svg width="24" height="24" viewBox="0 0 24 24" fill="none" xmlns="http://www.w3.org/2000/svg">
<path d="M18.2007 19.7575L15.5288 17.0966L13.5644 19.063L13.1282 18.6266C12.8203 18.3183 12.6663 17.9367 12.6663 17.4819C12.6663 17.0269 12.8203 16.6453 13.1282 16.3371L16.8408 12.6208C17.1487 12.3125 17.5299 12.1584 17.9844 12.1584C18.4388 12.1584 18.82 12.3125 19.128 12.6208L19.564 13.0574L17.5995 15.0238L20.2578 17.6984C20.4193 17.8599 20.5 18.0484 20.5 18.264C20.5 18.4794 20.4193 18.6678 20.2578 18.8293L19.3305 19.7575C19.1692 19.9192 18.9809 20 18.7657 20C18.5504 20 18.362 19.9192 18.2007 19.7575ZM20.4828 5.93936L10.4854 15.9554L10.8718 16.3284C11.1797 16.6366 11.3337 17.0182 11.3337 17.4731C11.3337 17.9281 11.1797 18.3097 10.8718 18.6179L10.4356 19.0546L8.47115 17.0881L5.79929 19.7491C5.63797 19.9105 5.44963 19.9913 5.23429 19.9913C5.01909 19.9913 4.83083 19.9105 4.66951 19.7491L3.74221 18.8208C3.58074 18.6592 3.5 18.4707 3.5 18.2552C3.5 18.0398 3.58074 17.8513 3.74221 17.6897L6.40045 15.0151L4.43601 13.0487L4.87198 12.612C5.18004 12.3038 5.56125 12.1497 6.0156 12.1497C6.4701 12.1497 6.85131 12.3038 7.15922 12.612L7.5405 13.0076L17.5464 3H20.4828V5.93936ZM7.79989 10.2349L3.51719 5.93936V3H6.45358L10.7276 7.28704L7.79989 10.2349Z" fill="#5F6368"/>
</svg>
