<svg width="24" height="24" viewBox="0 0 24 24" fill="none" xmlns="http://www.w3.org/2000/svg">
<path d="M12.1973 12.1842C11.2095 12.1842 10.3639 11.8325 9.66053 11.1291C8.957 10.4256 8.60523 9.5799 8.60523 8.59208C8.60523 7.60426 8.957 6.75866 9.66053 6.0553C10.3639 5.35177 11.2095 5 12.1973 5C13.1851 5 14.0307 5.35177 14.7341 6.0553C15.4376 6.75866 15.7894 7.60426 15.7894 8.59208C15.7894 9.5799 15.4376 10.4256 14.7341 11.1291C14.0307 11.8325 13.1851 12.1842 12.1973 12.1842ZM4.5 20V17.7183C4.5 17.2157 4.6365 16.7503 4.9095 16.322C5.18249 15.8937 5.54735 15.5644 6.00405 15.3341C7.01839 14.8369 8.0417 14.4639 9.074 14.2152C10.1063 13.9665 11.1474 13.8422 12.1973 13.8422C13.2472 13.8422 14.2883 13.9665 15.3206 14.2152C16.3529 14.4639 17.3762 14.8369 18.3906 15.3341C18.8473 15.5644 19.2121 15.8937 19.4851 16.322C19.7581 16.7503 19.8946 17.2157 19.8946 17.7183V20H4.5ZM6.03946 18.4605H18.3552V17.7183C18.3552 17.5104 18.2949 17.318 18.1745 17.141C18.0541 16.9641 17.8907 16.8197 17.6842 16.7079C16.7999 16.2724 15.8983 15.9424 14.9794 15.718C14.0603 15.4937 13.133 15.3816 12.1973 15.3816C11.2617 15.3816 10.3343 15.4937 9.41524 15.718C8.49636 15.9424 7.59474 16.2724 6.71041 16.7079C6.50395 16.8197 6.34051 16.9641 6.22009 17.141C6.09967 17.318 6.03946 17.5104 6.03946 17.7183V18.4605ZM12.1973 10.6447C12.7618 10.6447 13.245 10.4437 13.647 10.0417C14.0489 9.63977 14.2499 9.15655 14.2499 8.59208C14.2499 8.02761 14.0489 7.54439 13.647 7.14242C13.245 6.74045 12.7618 6.53946 12.1973 6.53946C11.6328 6.53946 11.1496 6.74045 10.7476 7.14242C10.3457 7.54439 10.1447 8.02761 10.1447 8.59208C10.1447 9.15655 10.3457 9.63977 10.7476 10.0417C11.1496 10.4437 11.6328 10.6447 12.1973 10.6447Z" fill="#5F6368"/>
</svg>
