<svg width="24" height="24" viewBox="0 0 24 24" fill="none" xmlns="http://www.w3.org/2000/svg">
<path d="M12.195 12.182C11.2075 12.182 10.3621 11.8304 9.65898 11.1273C8.95566 10.4239 8.604 9.57853 8.604 8.591C8.604 7.60348 8.95566 6.75814 9.65898 6.05498C10.3621 5.35166 11.2075 5 12.195 5C13.1825 5 14.0279 5.35166 14.731 6.05498C15.4343 6.75814 15.786 7.60348 15.786 8.591C15.786 9.57853 15.4343 10.4239 14.731 11.1273C14.0279 11.8304 13.1825 12.182 12.195 12.182ZM4.5 19.9955V17.7144C4.5 17.2121 4.63646 16.7468 4.90937 16.3186C5.18229 15.8904 5.54703 15.5612 6.0036 15.331C7.01763 14.834 8.04064 14.4611 9.07263 14.2125C10.1046 13.9638 11.1454 13.8395 12.195 13.8395C13.2446 13.8395 14.2854 13.9638 15.3174 14.2125C16.3494 14.4611 17.3724 14.834 18.3864 15.331C18.843 15.5612 19.2077 15.8904 19.4806 16.3186C19.7535 16.7468 19.89 17.2121 19.89 17.7144V19.9955H4.5Z" fill="#191919"/>
</svg>
