<svg width="24" height="24" viewBox="0 0 24 24" fill="none" xmlns="http://www.w3.org/2000/svg">
<path d="M12.0107 8.89551L14.6221 3H20.0225L16.1104 10.6318C17.2728 11.7261 18 13.2775 18 15C18 18.3137 15.3137 21 12 21C8.68629 21 6 18.3137 6 15C6 13.2704 6.73236 11.7122 7.90332 10.6172L4 3H9.40039L12.0107 8.89551ZM12 10.5C9.51472 10.5 7.5 12.5147 7.5 15C7.5 17.4853 9.51472 19.5 12 19.5C14.4853 19.5 16.5 17.4853 16.5 15C16.5 12.5147 14.4853 10.5 12 10.5ZM8.90332 9.27832L10.3906 8.94043L8.42383 4.5H6.4541L8.90332 9.27832ZM15.5986 4.5L13.6318 8.94043L15.1191 9.27832L17.5684 4.5H15.5986Z" fill="#5F6368"/>
<path d="M12 12L12.6735 14.0729H14.8532L13.0898 15.3541L13.7634 17.4271L12 16.1459L10.2366 17.4271L10.9102 15.3541L9.14683 14.0729H11.3265L12 12Z" fill="#5F6368"/>
</svg>
