<svg width="74" height="12" viewBox="0 0 74 12" fill="none" xmlns="http://www.w3.org/2000/svg">
<path d="M2.14504 11.2502C1.51504 11.2502 1.00004 10.9552 0.600039 10.3652C0.200039 9.77521 3.90746e-05 8.96521 3.90746e-05 7.93521C3.90746e-05 6.99521 0.130039 6.07021 0.390039 5.16021C0.650039 4.24021 1.01504 3.41521 1.48504 2.68521C1.95504 1.95521 2.51004 1.37021 3.15004 0.930214C3.80004 0.480215 4.51504 0.255215 5.29504 0.255215C5.78504 0.255215 6.20504 0.445215 6.55504 0.825215C6.90504 1.20521 7.08004 1.71521 7.08004 2.35521V2.53521C7.08004 2.57521 7.08004 2.61021 7.08004 2.64021C7.08004 2.67021 7.07504 2.70521 7.06504 2.74521L5.10004 3.27021C4.98004 3.02021 4.84004 2.89521 4.68004 2.89521C4.44004 2.89521 4.18504 3.09021 3.91504 3.48021C3.65504 3.87021 3.40504 4.33521 3.16504 4.87521C3.00504 5.23521 2.86004 5.60521 2.73004 5.98521C2.61004 6.36521 2.51504 6.72021 2.44504 7.05021C2.37504 7.38021 2.34004 7.65021 2.34004 7.86021C2.34004 8.17021 2.38504 8.39521 2.47504 8.53521C2.54504 8.66521 2.65504 8.73021 2.80504 8.73021C2.95504 8.73021 3.12004 8.66021 3.30004 8.52021C3.48004 8.37021 3.64504 8.18521 3.79504 7.96521C3.95504 7.74521 4.06004 7.52521 4.11004 7.30521L5.82004 7.99521C5.33004 9.11521 4.74504 9.94021 4.06504 10.4702C3.39504 10.9902 2.75504 11.2502 2.14504 11.2502ZM5.80598 11.2502C5.91598 10.4602 6.03098 9.66521 6.15098 8.86521C6.28098 8.06521 6.41098 7.29521 6.54098 6.55521C6.68098 5.80521 6.81098 5.13021 6.93098 4.53021C7.06098 3.88021 7.19098 3.22021 7.32098 2.55021C7.45098 1.88021 7.58598 1.20521 7.72598 0.525214L10.351 0.180214L9.57098 3.57021C9.43098 4.16021 9.28598 4.79521 9.13598 5.47521C8.99598 6.14521 8.86598 6.79521 8.74598 7.42521C8.62598 8.05521 8.53098 8.61521 8.46098 9.10521C8.71098 9.08521 8.97598 9.07521 9.25598 9.07521C9.54598 9.06521 9.80098 9.06021 10.021 9.06021C10.031 9.29021 10.051 9.53521 10.081 9.79521C10.111 10.0452 10.141 10.2652 10.171 10.4552C10.211 10.6352 10.231 10.7352 10.231 10.7552C10.191 10.7552 10.151 10.7552 10.111 10.7552C10.081 10.7552 10.046 10.7502 10.006 10.7402H9.76598C9.37598 10.7402 8.94098 10.7602 8.46098 10.8002C7.99098 10.8302 7.52098 10.8852 7.05098 10.9652C6.59098 11.0352 6.17598 11.1302 5.80598 11.2502ZM10.0623 11.2052C10.2323 10.6152 10.3973 9.94521 10.5573 9.19521C10.7273 8.44521 10.8873 7.68021 11.0373 6.90021C11.1973 6.11021 11.3473 5.36521 11.4873 4.66521C11.6173 4.02521 11.7423 3.37521 11.8623 2.71521C11.9823 2.05521 12.1023 1.39021 12.2223 0.720214L14.5623 0.345214C14.4323 1.01521 14.3023 1.68021 14.1723 2.34021C14.0423 2.99021 13.9123 3.64021 13.7823 4.29021C13.6423 4.99021 13.4973 5.73021 13.3473 6.51021C13.1973 7.29021 13.0523 8.06021 12.9123 8.82021C12.7723 9.57021 12.6423 10.2702 12.5223 10.9202C12.3423 10.9202 12.1173 10.9352 11.8473 10.9652C11.5773 10.9852 11.3073 11.0152 11.0373 11.0552C10.7673 11.0852 10.5373 11.1152 10.3473 11.1452C10.1673 11.1752 10.0723 11.1952 10.0623 11.2052ZM15.8853 11.2502C15.2553 11.2502 14.7403 10.9552 14.3403 10.3652C13.9403 9.77521 13.7403 8.96521 13.7403 7.93521C13.7403 6.99521 13.8703 6.07021 14.1303 5.16021C14.3903 4.24021 14.7553 3.41521 15.2253 2.68521C15.6953 1.95521 16.2503 1.37021 16.8903 0.930214C17.5403 0.480215 18.2553 0.255215 19.0353 0.255215C19.5253 0.255215 19.9453 0.445215 20.2953 0.825215C20.6453 1.20521 20.8203 1.71521 20.8203 2.35521V2.53521C20.8203 2.57521 20.8203 2.61021 20.8203 2.64021C20.8203 2.67021 20.8153 2.70521 20.8053 2.74521L18.8403 3.27021C18.7203 3.02021 18.5803 2.89521 18.4203 2.89521C18.1803 2.89521 17.9253 3.09021 17.6553 3.48021C17.3953 3.87021 17.1453 4.33521 16.9053 4.87521C16.7453 5.23521 16.6003 5.60521 16.4703 5.98521C16.3503 6.36521 16.2553 6.72021 16.1853 7.05021C16.1153 7.38021 16.0803 7.65021 16.0803 7.86021C16.0803 8.17021 16.1253 8.39521 16.2153 8.53521C16.2853 8.66521 16.3953 8.73021 16.5453 8.73021C16.6953 8.73021 16.8603 8.66021 17.0403 8.52021C17.2203 8.37021 17.3853 8.18521 17.5353 7.96521C17.6953 7.74521 17.8003 7.52521 17.8503 7.30521L19.5603 7.99521C19.0703 9.11521 18.4853 9.94021 17.8053 10.4702C17.1353 10.9902 16.4953 11.2502 15.8853 11.2502ZM19.4712 11.2352C19.6212 10.5352 19.7662 9.84521 19.9062 9.16521C20.0462 8.48521 20.1812 7.81521 20.3112 7.15521C20.5212 5.96521 20.7262 4.79021 20.9262 3.63021C21.1262 2.46021 21.2712 1.34521 21.3612 0.285214L22.1412 0.330215C22.2812 0.340215 22.4162 0.350214 22.5462 0.360214C22.6862 0.370214 22.8212 0.380214 22.9512 0.390214C23.1012 0.400214 23.2512 0.410215 23.4012 0.420214C23.5512 0.420214 23.7012 0.420214 23.8512 0.420214C23.8312 0.500215 23.7962 0.660215 23.7462 0.900214C23.7062 1.14021 23.6612 1.38521 23.6112 1.63521C23.5712 1.87521 23.5412 2.04021 23.5212 2.13021L23.2512 3.61521L23.3412 3.60021C23.6312 3.15021 23.9662 2.63021 24.3462 2.04021C24.7262 1.45021 25.0812 0.885215 25.4112 0.345214C25.9112 0.305214 26.4112 0.260214 26.9112 0.210214C27.4112 0.160214 27.9112 0.0952144 28.4112 0.0152143C28.1812 0.325214 27.9512 0.635214 27.7212 0.945214C27.4912 1.25521 27.2662 1.56521 27.0462 1.87521C26.8162 2.19521 26.5662 2.54521 26.2962 2.92521C26.0262 3.30521 25.7662 3.68021 25.5162 4.05021C25.2762 4.41021 25.0762 4.72021 24.9162 4.98021C25.0262 5.48021 25.1462 5.97521 25.2762 6.46521C25.4062 6.95521 25.5462 7.43521 25.6962 7.90521C25.8462 8.37521 25.9962 8.85021 26.1462 9.33021C26.2962 9.81021 26.4512 10.2952 26.6112 10.7852C26.3812 10.7752 26.1462 10.7702 25.9062 10.7702C25.6662 10.7602 25.4312 10.7552 25.2012 10.7552C24.9112 10.7552 24.6312 10.7602 24.3612 10.7702C24.0912 10.7702 23.8112 10.7752 23.5212 10.7852C23.4812 10.4652 23.4362 10.1352 23.3862 9.79521C23.3362 9.44521 23.2862 9.09021 23.2362 8.73021C23.1862 8.38021 23.1362 8.03521 23.0862 7.69521C23.0362 7.34521 22.9862 7.01021 22.9362 6.69021L22.6662 7.00521C22.5962 7.29521 22.5212 7.66521 22.4412 8.11521C22.4012 8.33521 22.3562 8.55521 22.3062 8.77521C22.2662 8.98521 22.2262 9.19021 22.1862 9.39021C22.1462 9.63021 22.1012 9.87521 22.0512 10.1252C22.0012 10.3652 21.9512 10.6152 21.9012 10.8752L19.4712 11.2352ZM30.5746 11.2352C30.6846 10.6852 30.7946 10.1402 30.9046 9.60021C31.0246 9.05021 31.1346 8.51021 31.2346 7.98021C31.6146 6.08021 31.9246 4.26021 32.1646 2.52021C32.0546 2.50021 31.9396 2.49021 31.8196 2.49021C31.6996 2.48021 31.5846 2.48021 31.4746 2.49021C31.2346 2.51021 30.9996 2.48021 30.7696 2.40021C30.7796 2.32021 30.7846 2.23521 30.7846 2.14521C30.7846 2.04521 30.7846 1.94521 30.7846 1.84521C30.7846 1.73521 30.7846 1.63021 30.7846 1.53021C30.7846 1.42021 30.7896 1.31521 30.7996 1.21521C30.8096 1.10521 30.8146 0.990214 30.8146 0.870214C30.8146 0.740214 30.8196 0.610215 30.8296 0.480215C31.0896 0.500214 31.3496 0.515214 31.6096 0.525214C31.8696 0.535214 32.1296 0.540215 32.3896 0.540215C33.1296 0.540215 33.8346 0.515215 34.5046 0.465215C35.1846 0.415214 35.8096 0.355214 36.3796 0.285214L36.2146 1.09521L36.0796 1.80021C36.0296 2.06021 35.9846 2.26521 35.9446 2.41521C35.8346 2.44521 35.7246 2.47021 35.6146 2.49021C35.5046 2.51021 35.3946 2.52521 35.2846 2.53521C35.1746 2.54521 35.0596 2.56021 34.9396 2.58021C34.8296 2.60021 34.7196 2.62021 34.6096 2.64021C34.4596 3.38021 34.3346 4.02021 34.2346 4.56021C34.1446 5.10021 34.0596 5.62021 33.9796 6.12021C33.9096 6.61021 33.8246 7.15021 33.7246 7.74021C33.5546 8.75021 33.4046 9.77521 33.2746 10.8152L30.5746 11.2352ZM36.9787 11.2802C36.3187 11.2802 35.7787 11.0252 35.3587 10.5152C34.9387 10.0052 34.7287 9.23521 34.7287 8.20521C34.7287 7.63521 34.7987 7.03521 34.9387 6.40521C35.0787 5.77521 35.2737 5.15521 35.5237 4.54521C35.7737 3.93521 36.0637 3.37021 36.3937 2.85021C36.9237 2.01021 37.5337 1.32521 38.2237 0.795214C38.9137 0.265214 39.6387 0.000214458 40.3987 0.000214458C40.9987 0.000214458 41.4587 0.155215 41.7787 0.465215C42.1087 0.765214 42.3387 1.15521 42.4687 1.63521C42.5987 2.10521 42.6637 2.59521 42.6637 3.10521C42.6637 4.29521 42.4787 5.40521 42.1087 6.43521C41.7487 7.45521 41.2787 8.32021 40.6987 9.03021C40.1187 9.76021 39.4987 10.3202 38.8387 10.7102C38.1887 11.0902 37.5687 11.2802 36.9787 11.2802ZM37.7887 8.80521C38.2387 8.80521 38.6337 8.65521 38.9737 8.35521C39.3237 8.05521 39.6187 7.67521 39.8587 7.21521C40.0987 6.74521 40.2787 6.25521 40.3987 5.74521C40.5187 5.23521 40.5787 4.77521 40.5787 4.36521C40.5787 4.20521 40.5637 4.03521 40.5337 3.85521C40.5037 3.66521 40.4387 3.50021 40.3387 3.36021C40.2387 3.22021 40.0837 3.15021 39.8737 3.15021C39.4137 3.15021 38.9987 3.32021 38.6287 3.66021C38.2587 3.99021 37.9487 4.41021 37.6987 4.92021C37.4487 5.44021 37.2637 5.95021 37.1437 6.45021C37.0237 6.95021 36.9637 7.40521 36.9637 7.81521C36.9637 8.02521 37.0387 8.24521 37.1887 8.47521C37.3387 8.69521 37.5387 8.80521 37.7887 8.80521ZM45.4758 11.3552C45.5458 10.6552 45.6108 9.96021 45.6708 9.27021C45.7308 8.58021 45.7858 7.90021 45.8358 7.23021C45.9458 6.01021 46.0308 4.81021 46.0908 3.63021C46.1608 2.45021 46.2058 1.34521 46.2258 0.315214C47.0058 0.315214 47.5908 0.300214 47.9808 0.270215C48.3708 0.230214 48.5658 0.210214 48.5658 0.210214C48.5158 0.790214 48.4658 1.32021 48.4158 1.80021C48.3658 2.27021 48.3208 2.69021 48.2808 3.06021L48.1008 4.87521C48.0508 5.42521 48.0058 5.89021 47.9658 6.27021C47.9358 6.65021 47.9058 7.00021 47.8758 7.32021C47.8458 7.64021 47.8058 7.99021 47.7558 8.37021H48.0258L49.7058 0.390214L50.5308 0.345214C50.6608 0.335215 50.7908 0.330215 50.9208 0.330215C51.0508 0.320214 51.1858 0.310214 51.3258 0.300214C51.4658 0.290214 51.5958 0.280214 51.7158 0.270215C51.8458 0.260215 51.9658 0.250215 52.0758 0.240214C51.8858 0.830214 51.6908 1.49021 51.4908 2.22021C51.3008 2.95021 51.1058 3.70521 50.9058 4.48521C50.7158 5.26521 50.5208 6.03521 50.3208 6.79521C50.1608 7.43521 50.0008 8.09021 49.8408 8.76021C49.6808 9.42021 49.5208 10.0902 49.3608 10.7702L45.4758 11.3552ZM52.9894 11.2802C52.3294 11.2802 51.7894 11.0252 51.3694 10.5152C50.9494 10.0052 50.7394 9.23521 50.7394 8.20521C50.7394 7.63521 50.8094 7.03521 50.9494 6.40521C51.0894 5.77521 51.2844 5.15521 51.5344 4.54521C51.7844 3.93521 52.0744 3.37021 52.4044 2.85021C52.9344 2.01021 53.5444 1.32521 54.2344 0.795214C54.9244 0.265214 55.6494 0.000214458 56.4094 0.000214458C57.0094 0.000214458 57.4694 0.155215 57.7894 0.465215C58.1194 0.765214 58.3494 1.15521 58.4794 1.63521C58.6094 2.10521 58.6744 2.59521 58.6744 3.10521C58.6744 4.29521 58.4894 5.40521 58.1194 6.43521C57.7594 7.45521 57.2894 8.32021 56.7094 9.03021C56.1294 9.76021 55.5094 10.3202 54.8494 10.7102C54.1994 11.0902 53.5794 11.2802 52.9894 11.2802ZM53.7994 8.80521C54.2494 8.80521 54.6444 8.65521 54.9844 8.35521C55.3344 8.05521 55.6294 7.67521 55.8694 7.21521C56.1094 6.74521 56.2894 6.25521 56.4094 5.74521C56.5294 5.23521 56.5894 4.77521 56.5894 4.36521C56.5894 4.20521 56.5744 4.03521 56.5444 3.85521C56.5144 3.66521 56.4494 3.50021 56.3494 3.36021C56.2494 3.22021 56.0944 3.15021 55.8844 3.15021C55.4244 3.15021 55.0094 3.32021 54.6394 3.66021C54.2694 3.99021 53.9594 4.41021 53.7094 4.92021C53.4594 5.44021 53.2744 5.95021 53.1544 6.45021C53.0344 6.95021 52.9744 7.40521 52.9744 7.81521C52.9744 8.02521 53.0494 8.24521 53.1994 8.47521C53.3494 8.69521 53.5494 8.80521 53.7994 8.80521ZM58.7436 11.2352C58.8536 10.6852 58.9636 10.1402 59.0736 9.60021C59.1936 9.05021 59.3036 8.51021 59.4036 7.98021C59.7836 6.08021 60.0936 4.26021 60.3336 2.52021C60.2236 2.50021 60.1086 2.49021 59.9886 2.49021C59.8686 2.48021 59.7536 2.48021 59.6436 2.49021C59.4036 2.51021 59.1686 2.48021 58.9386 2.40021C58.9486 2.32021 58.9536 2.23521 58.9536 2.14521C58.9536 2.04521 58.9536 1.94521 58.9536 1.84521C58.9536 1.73521 58.9536 1.63021 58.9536 1.53021C58.9536 1.42021 58.9586 1.31521 58.9686 1.21521C58.9786 1.10521 58.9836 0.990214 58.9836 0.870214C58.9836 0.740214 58.9886 0.610215 58.9986 0.480215C59.2586 0.500214 59.5186 0.515214 59.7786 0.525214C60.0386 0.535214 60.2986 0.540215 60.5586 0.540215C61.2986 0.540215 62.0036 0.515215 62.6736 0.465215C63.3536 0.415214 63.9786 0.355214 64.5486 0.285214L64.3836 1.09521L64.2486 1.80021C64.1986 2.06021 64.1536 2.26521 64.1136 2.41521C64.0036 2.44521 63.8936 2.47021 63.7836 2.49021C63.6736 2.51021 63.5636 2.52521 63.4536 2.53521C63.3436 2.54521 63.2286 2.56021 63.1086 2.58021C62.9986 2.60021 62.8886 2.62021 62.7786 2.64021C62.6286 3.38021 62.5036 4.02021 62.4036 4.56021C62.3136 5.10021 62.2286 5.62021 62.1486 6.12021C62.0786 6.61021 61.9936 7.15021 61.8936 7.74021C61.7236 8.75021 61.5736 9.77521 61.4436 10.8152L58.7436 11.2352ZM62.9481 11.2352L64.9131 0.570214L69.6531 0.165214C69.5831 0.385214 69.5231 0.610214 69.4731 0.840214C69.4231 1.03021 69.3731 1.23021 69.3231 1.44021C69.2831 1.64021 69.2481 1.82021 69.2181 1.98021C69.0881 1.99021 68.9031 2.00021 68.6631 2.01021C68.4231 2.01021 68.1781 2.01521 67.9281 2.02521C67.6781 2.02521 67.4631 2.02521 67.2831 2.02521C67.1031 2.02521 67.0081 2.02521 66.9981 2.02521L66.4731 4.71021L67.3431 4.66521C67.4531 4.65521 67.5631 4.65021 67.6731 4.65021C67.7931 4.65021 67.9081 4.65021 68.0181 4.65021C68.1281 4.65021 68.2281 4.65021 68.3181 4.65021C68.4081 4.65021 68.4781 4.64521 68.5281 4.63521C68.5081 4.77521 68.4881 4.91521 68.4681 5.05521C68.4581 5.18521 68.4431 5.32021 68.4231 5.46021L68.2881 6.28521C68.2381 6.29521 68.1731 6.30021 68.0931 6.30021C68.0131 6.30021 67.9181 6.30021 67.8081 6.30021C67.6981 6.31021 67.5831 6.31521 67.4631 6.31521C67.3431 6.31521 67.2281 6.32021 67.1181 6.33021C66.9881 6.34021 66.8531 6.34521 66.7131 6.34521C66.5731 6.34521 66.4231 6.35021 66.2631 6.36021L65.7531 9.12021L67.9431 8.77521L67.7931 10.4852L62.9481 11.2352ZM69.4502 7.75521C69.6102 7.13521 69.7652 6.52021 69.9152 5.91021C70.0652 5.30021 70.2152 4.69021 70.3652 4.08021C70.5052 3.47021 70.6502 2.86021 70.8002 2.25021C70.9602 1.63021 71.1202 1.01521 71.2802 0.405215C71.8502 0.315215 72.3702 0.240214 72.8402 0.180214C73.3102 0.120214 73.6952 0.0652142 73.9952 0.0152143C73.4552 1.27521 72.9602 2.54521 72.5102 3.82521C72.0702 5.09521 71.6302 6.37521 71.1902 7.66521C70.9002 7.66521 70.6102 7.67521 70.3202 7.69521C70.0302 7.71521 69.7402 7.73521 69.4502 7.75521ZM69.4202 11.5652C69.1202 11.5652 68.8702 11.4902 68.6702 11.3402C68.4802 11.2002 68.3352 11.0252 68.2352 10.8152C68.1452 10.5952 68.1002 10.3752 68.1002 10.1552C68.1002 9.75521 68.2302 9.41021 68.4902 9.12021C68.7602 8.82021 69.1302 8.67021 69.6002 8.67021C70.1802 8.67021 70.6152 8.81021 70.9052 9.09021C71.1952 9.36021 71.3402 9.67021 71.3402 10.0202C71.3402 10.4202 71.1752 10.7802 70.8452 11.1002C70.5152 11.4102 70.0402 11.5652 69.4202 11.5652Z" fill="#191919"/>
</svg>
