<svg width="20" height="20" viewBox="0 0 20 20" fill="none" xmlns="http://www.w3.org/2000/svg">
<path d="M7.85714 14.375C7.50357 14.375 7.20089 14.2465 6.94911 13.9895C6.69732 13.7324 6.57143 13.4234 6.57143 13.0625V4.3125C6.57143 3.95156 6.69732 3.64258 6.94911 3.38555C7.20089 3.12852 7.50357 3 7.85714 3H14.7143C15.0679 3 15.3705 3.12852 15.6223 3.38555C15.8741 3.64258 16 3.95156 16 4.3125V13.0625C16 13.4234 15.8741 13.7324 15.6223 13.9895C15.3705 14.2465 15.0679 14.375 14.7143 14.375H7.85714ZM7.85714 13.0625H14.7143V4.3125H7.85714V13.0625ZM5.28571 17C4.93214 17 4.62946 16.8715 4.37768 16.6145C4.12589 16.3574 4 16.0484 4 15.6875V5.625H5.28571V15.6875H13.4286V17H5.28571Z" fill="#37383C" fill-opacity="0.61"/>
</svg>
