<svg width="115" height="20" viewBox="0 0 115 20" fill="none" xmlns="http://www.w3.org/2000/svg">
<path d="M0.584687 18.856C1.28869 16.712 1.96069 14.624 2.60069 12.592C2.87269 11.76 3.15269 10.872 3.44069 9.928C3.72869 8.984 4.01669 8.04 4.30469 7.096C4.59269 6.136 4.86469 5.216 5.12069 4.336C5.37669 3.456 5.59269 2.672 5.76869 1.984C6.64869 1.984 7.48069 1.936 8.26469 1.84C8.66469 1.792 9.07269 1.744 9.48869 1.696C9.92069 1.648 10.3607 1.608 10.8087 1.576L10.6647 2.752C10.6327 2.976 10.6007 3.208 10.5687 3.448C10.5367 3.672 10.5047 3.904 10.4727 4.144C10.4407 4.384 10.4007 4.632 10.3527 4.888C10.3047 5.128 10.2647 5.376 10.2327 5.632C10.1687 6.128 10.0727 6.824 9.94469 7.72C9.81669 8.6 9.66469 9.56 9.48869 10.6H9.80069C10.2647 9.384 10.6487 8.376 10.9527 7.576C11.2567 6.76 11.5047 6.096 11.6967 5.584C11.9687 4.832 12.2647 4.072 12.5847 3.304C12.9047 2.536 13.1687 1.944 13.3767 1.528C13.7607 1.496 14.2167 1.448 14.7447 1.384C15.2887 1.304 15.8327 1.216 16.3767 1.12C16.9367 1.024 17.4167 0.943999 17.8167 0.879999C17.5927 2.224 17.3847 3.584 17.1927 4.96C17.0167 6.32 16.8567 7.624 16.7127 8.872C16.5847 10.104 16.4727 11.216 16.3767 12.208C16.2807 13.2 16.1927 14.184 16.1127 15.16C16.0327 16.12 15.9527 17.072 15.8727 18.016L11.6967 18.76C11.6967 18.728 11.7207 18.368 11.7687 17.68C11.8167 16.992 11.8967 16.136 12.0087 15.112C12.1207 14.088 12.2327 13.12 12.3447 12.208C12.4567 11.28 12.5687 10.52 12.6807 9.928H12.4647C12.0647 11.144 11.5767 12.472 11.0007 13.912C10.4407 15.352 9.88869 16.944 9.34469 18.688C8.78469 18.704 8.30469 18.728 7.90469 18.76C7.50469 18.776 7.04069 18.8 6.51269 18.832L7.28069 9.928H6.92069C6.90469 10.104 6.83269 10.448 6.70469 10.96C6.57669 11.456 6.42469 12.032 6.24869 12.688C6.07269 13.328 5.88869 13.968 5.69669 14.608C4.97669 17.12 4.59269 18.448 4.54469 18.592L0.584687 18.856ZM22.3801 18.952C22.4121 18.68 22.4441 18.416 22.4761 18.16C22.5081 17.904 22.5401 17.648 22.5721 17.392L22.7161 16.048C22.7321 15.824 22.7481 15.616 22.7641 15.424C22.7801 15.232 22.7961 15.056 22.8121 14.896H20.7241L19.7641 18.352C19.4121 18.4 18.9961 18.456 18.5161 18.52C18.0361 18.568 17.5881 18.616 17.1721 18.664C16.9161 18.696 16.6601 18.728 16.4041 18.76C16.1641 18.792 15.9161 18.824 15.6601 18.856L17.5561 12.568C17.7801 11.816 18.0361 10.96 18.3241 10C18.6121 9.04 18.9001 8.056 19.1881 7.048C19.4921 6.04 19.7721 5.096 20.0281 4.216C20.3001 3.32 20.5161 2.568 20.6761 1.96C21.7641 1.88 22.8681 1.784 23.9881 1.672C25.1241 1.56 26.2281 1.408 27.3001 1.216C27.2201 2.112 27.1401 3.128 27.0601 4.264C26.9961 5.384 26.9321 6.544 26.8681 7.744C26.8201 8.944 26.7641 10.128 26.7001 11.296C26.6681 12.4 26.6281 13.544 26.5801 14.728C26.5321 15.896 26.4841 17.096 26.4361 18.328C26.1961 18.36 25.9561 18.392 25.7161 18.424C25.4761 18.456 25.2361 18.488 24.9961 18.52C24.5961 18.584 24.1561 18.656 23.6761 18.736C23.1961 18.816 22.7641 18.888 22.3801 18.952ZM21.3001 12.496C21.3961 12.496 21.5721 12.488 21.8281 12.472C22.1001 12.456 22.3561 12.44 22.5961 12.424C22.8361 12.408 22.9801 12.4 23.0281 12.4C23.0281 12.192 23.0601 11.768 23.1241 11.128C23.1881 10.488 23.2521 9.816 23.3161 9.112C23.3481 8.696 23.3801 8.272 23.4121 7.84C23.4601 7.392 23.5081 6.936 23.5561 6.472L23.7001 4.384L23.3401 4.408L22.7881 6.472L21.3001 12.496ZM25.8269 18.856C26.5309 16.712 27.2029 14.624 27.8429 12.592C28.1149 11.76 28.3949 10.872 28.6829 9.928C28.9709 8.984 29.2589 8.04 29.5469 7.096C29.8349 6.136 30.1069 5.216 30.3629 4.336C30.6189 3.456 30.8349 2.672 31.0109 1.984C31.8909 1.984 32.7229 1.936 33.5069 1.84C33.9069 1.792 34.3149 1.744 34.7309 1.696C35.1629 1.648 35.6029 1.608 36.0509 1.576L35.9069 2.752C35.8749 2.976 35.8429 3.208 35.8109 3.448C35.7789 3.672 35.7469 3.904 35.7149 4.144C35.6829 4.384 35.6429 4.632 35.5949 4.888C35.5469 5.128 35.5069 5.376 35.4749 5.632C35.4109 6.128 35.3149 6.824 35.1869 7.72C35.0589 8.6 34.9069 9.56 34.7309 10.6H35.0429C35.5069 9.384 35.8909 8.376 36.1949 7.576C36.4989 6.76 36.7469 6.096 36.9389 5.584C37.2109 4.832 37.5069 4.072 37.8269 3.304C38.1469 2.536 38.4109 1.944 38.6189 1.528C39.0029 1.496 39.4589 1.448 39.9869 1.384C40.5309 1.304 41.0749 1.216 41.6189 1.12C42.1789 1.024 42.6589 0.943999 43.0589 0.879999C42.8349 2.224 42.6269 3.584 42.4349 4.96C42.2589 6.32 42.0989 7.624 41.9549 8.872C41.8269 10.104 41.7149 11.216 41.6189 12.208C41.5229 13.2 41.4349 14.184 41.3549 15.16C41.2749 16.12 41.1949 17.072 41.1149 18.016L36.9389 18.76C36.9389 18.728 36.9629 18.368 37.0109 17.68C37.0589 16.992 37.1389 16.136 37.2509 15.112C37.3629 14.088 37.4749 13.12 37.5869 12.208C37.6989 11.28 37.8109 10.52 37.9229 9.928H37.7069C37.3069 11.144 36.8189 12.472 36.2429 13.912C35.6829 15.352 35.1309 16.944 34.5869 18.688C34.0269 18.704 33.5469 18.728 33.1469 18.76C32.7469 18.776 32.2829 18.8 31.7549 18.832L32.5229 9.928H32.1629C32.1469 10.104 32.0749 10.448 31.9469 10.96C31.8189 11.456 31.6669 12.032 31.4909 12.688C31.3149 13.328 31.1309 13.968 30.9389 14.608C30.2189 17.12 29.8349 18.448 29.7869 18.592L25.8269 18.856ZM40.6862 18.856C41.3902 16.712 42.0623 14.624 42.7023 12.592C42.9743 11.76 43.2543 10.872 43.5423 9.928C43.8303 8.984 44.1183 8.04 44.4062 7.096C44.6943 6.136 44.9663 5.216 45.2223 4.336C45.4783 3.456 45.6943 2.672 45.8703 1.984C46.7503 1.984 47.5823 1.936 48.3663 1.84C48.7663 1.792 49.1743 1.744 49.5903 1.696C50.0223 1.648 50.4623 1.608 50.9103 1.576L50.7663 2.752C50.7343 2.976 50.7023 3.208 50.6703 3.448C50.6383 3.672 50.6063 3.904 50.5743 4.144C50.5423 4.384 50.5023 4.632 50.4543 4.888C50.4063 5.128 50.3663 5.376 50.3343 5.632C50.2703 6.128 50.1743 6.824 50.0463 7.72C49.9183 8.6 49.7663 9.56 49.5903 10.6H49.9023C50.3663 9.384 50.7503 8.376 51.0543 7.576C51.3583 6.76 51.6063 6.096 51.7983 5.584C52.0703 4.832 52.3663 4.072 52.6863 3.304C53.0063 2.536 53.2703 1.944 53.4783 1.528C53.8623 1.496 54.3183 1.448 54.8463 1.384C55.3903 1.304 55.9343 1.216 56.4783 1.12C57.0383 1.024 57.5183 0.943999 57.9183 0.879999C57.6943 2.224 57.4863 3.584 57.2943 4.96C57.1183 6.32 56.9583 7.624 56.8143 8.872C56.6863 10.104 56.5743 11.216 56.4783 12.208C56.3823 13.2 56.2943 14.184 56.2143 15.16C56.1343 16.12 56.0543 17.072 55.9743 18.016L51.7983 18.76C51.7983 18.728 51.8223 18.368 51.8703 17.68C51.9183 16.992 51.9983 16.136 52.1103 15.112C52.2223 14.088 52.3343 13.12 52.4463 12.208C52.5583 11.28 52.6703 10.52 52.7823 9.928H52.5663C52.1663 11.144 51.6783 12.472 51.1023 13.912C50.5423 15.352 49.9903 16.944 49.4463 18.688C48.8863 18.704 48.4063 18.728 48.0063 18.76C47.6063 18.776 47.1423 18.8 46.6143 18.832L47.3823 9.928H47.0223C47.0063 10.104 46.9343 10.448 46.8063 10.96C46.6783 11.456 46.5263 12.032 46.3503 12.688C46.1743 13.328 45.9903 13.968 45.7983 14.608C45.0783 17.12 44.6943 18.448 44.6463 18.592L40.6862 18.856ZM62.4816 18.952C62.5136 18.68 62.5456 18.416 62.5776 18.16C62.6096 17.904 62.6416 17.648 62.6736 17.392L62.8176 16.048C62.8336 15.824 62.8496 15.616 62.8656 15.424C62.8816 15.232 62.8976 15.056 62.9136 14.896H60.8256L59.8656 18.352C59.5136 18.4 59.0976 18.456 58.6176 18.52C58.1376 18.568 57.6896 18.616 57.2736 18.664C57.0176 18.696 56.7616 18.728 56.5056 18.76C56.2656 18.792 56.0176 18.824 55.7616 18.856L57.6576 12.568C57.8816 11.816 58.1376 10.96 58.4256 10C58.7136 9.04 59.0016 8.056 59.2896 7.048C59.5936 6.04 59.8736 5.096 60.1296 4.216C60.4016 3.32 60.6176 2.568 60.7776 1.96C61.8656 1.88 62.9696 1.784 64.0896 1.672C65.2256 1.56 66.3296 1.408 67.4016 1.216C67.3216 2.112 67.2416 3.128 67.1616 4.264C67.0976 5.384 67.0336 6.544 66.9696 7.744C66.9216 8.944 66.8656 10.128 66.8016 11.296C66.7696 12.4 66.7296 13.544 66.6816 14.728C66.6336 15.896 66.5856 17.096 66.5376 18.328C66.2976 18.36 66.0576 18.392 65.8176 18.424C65.5776 18.456 65.3376 18.488 65.0976 18.52C64.6976 18.584 64.2576 18.656 63.7776 18.736C63.2976 18.816 62.8656 18.888 62.4816 18.952ZM61.4016 12.496C61.4976 12.496 61.6736 12.488 61.9296 12.472C62.2016 12.456 62.4576 12.44 62.6976 12.424C62.9376 12.408 63.0816 12.4 63.1296 12.4C63.1296 12.192 63.1616 11.768 63.2256 11.128C63.2896 10.488 63.3536 9.816 63.4176 9.112C63.4496 8.696 63.4816 8.272 63.5136 7.84C63.5616 7.392 63.6096 6.936 63.6576 6.472L63.8016 4.384L63.4416 4.408L62.8896 6.472L61.4016 12.496ZM75.4084 13.288C74.5284 13.256 73.6964 13.232 72.9124 13.216C72.1444 13.2 71.4964 13.192 70.9684 13.192C70.4564 13.192 69.9044 13.208 69.3124 13.24C68.7204 13.256 68.1604 13.264 67.6324 13.264L68.7844 9.016C69.4564 9.032 70.0964 9.056 70.7044 9.088C71.3124 9.104 71.8164 9.112 72.2164 9.112C72.8244 9.112 73.4724 9.104 74.1604 9.088C74.8644 9.072 75.5524 9.04 76.2244 8.992L75.4084 13.288ZM74.5769 18.856C75.2809 16.712 75.9529 14.624 76.5929 12.592C76.8649 11.76 77.1449 10.872 77.4329 9.928C77.7209 8.984 78.0089 8.04 78.2969 7.096C78.5849 6.136 78.8569 5.216 79.1129 4.336C79.3689 3.456 79.5849 2.672 79.7609 1.984C80.6409 1.984 81.4729 1.936 82.2569 1.84C82.6569 1.792 83.0649 1.744 83.4809 1.696C83.9129 1.648 84.3529 1.608 84.8009 1.576L84.6569 2.752C84.6249 2.976 84.5929 3.208 84.5609 3.448C84.5289 3.672 84.4969 3.904 84.4649 4.144C84.4329 4.384 84.3929 4.632 84.3449 4.888C84.2969 5.128 84.2569 5.376 84.2249 5.632C84.1609 6.128 84.0649 6.824 83.9369 7.72C83.8089 8.6 83.6569 9.56 83.4809 10.6H83.7929C84.2569 9.384 84.6409 8.376 84.9449 7.576C85.2489 6.76 85.4969 6.096 85.6889 5.584C85.9609 4.832 86.2569 4.072 86.5769 3.304C86.8969 2.536 87.1609 1.944 87.3689 1.528C87.7529 1.496 88.2089 1.448 88.7369 1.384C89.2809 1.304 89.8249 1.216 90.3689 1.12C90.9289 1.024 91.4089 0.943999 91.8089 0.879999C91.5849 2.224 91.3769 3.584 91.1849 4.96C91.0089 6.32 90.8489 7.624 90.7049 8.872C90.5769 10.104 90.4649 11.216 90.3689 12.208C90.2729 13.2 90.1849 14.184 90.1049 15.16C90.0249 16.12 89.9449 17.072 89.8649 18.016L85.6889 18.76C85.6889 18.728 85.7129 18.368 85.7609 17.68C85.8089 16.992 85.8889 16.136 86.0009 15.112C86.1129 14.088 86.2249 13.12 86.3369 12.208C86.4489 11.28 86.5609 10.52 86.6729 9.928H86.4569C86.0569 11.144 85.5689 12.472 84.9929 13.912C84.4329 15.352 83.8809 16.944 83.3369 18.688C82.7769 18.704 82.2969 18.728 81.8969 18.76C81.4969 18.776 81.0329 18.8 80.5049 18.832L81.2729 9.928H80.9129C80.8969 10.104 80.8249 10.448 80.6969 10.96C80.5689 11.456 80.4169 12.032 80.2409 12.688C80.0649 13.328 79.8809 13.968 79.6889 14.608C78.9689 17.12 78.5849 18.448 78.5369 18.592L74.5769 18.856ZM90.2763 18.976C90.5003 18.048 90.7243 17 90.9482 15.832C91.1723 14.648 91.3963 13.424 91.6203 12.16C91.8443 10.896 92.0523 9.68 92.2443 8.512C92.4203 7.488 92.5883 6.448 92.7483 5.392C92.9243 4.336 93.0923 3.272 93.2523 2.2L96.9963 1.6L95.9163 7.912C95.6763 9.4 95.4603 10.736 95.2683 11.92C95.0923 13.104 94.9163 14.224 94.7403 15.28C94.5803 16.336 94.4123 17.416 94.2363 18.52C93.9323 18.52 93.5643 18.544 93.1323 18.592C92.7003 18.624 92.2683 18.672 91.8363 18.736C91.4043 18.784 91.0363 18.832 90.7323 18.88C90.4443 18.928 90.2923 18.96 90.2763 18.976ZM101.224 18.952C101.256 18.68 101.288 18.416 101.32 18.16C101.352 17.904 101.384 17.648 101.416 17.392L101.56 16.048C101.576 15.824 101.592 15.616 101.608 15.424C101.624 15.232 101.64 15.056 101.656 14.896H99.5678L98.6078 18.352C98.2558 18.4 97.8398 18.456 97.3598 18.52C96.8798 18.568 96.4318 18.616 96.0158 18.664C95.7598 18.696 95.5038 18.728 95.2478 18.76C95.0078 18.792 94.7598 18.824 94.5038 18.856L96.3998 12.568C96.6238 11.816 96.8798 10.96 97.1678 10C97.4558 9.04 97.7438 8.056 98.0318 7.048C98.3358 6.04 98.6158 5.096 98.8718 4.216C99.1438 3.32 99.3598 2.568 99.5198 1.96C100.608 1.88 101.712 1.784 102.832 1.672C103.968 1.56 105.072 1.408 106.144 1.216C106.064 2.112 105.984 3.128 105.904 4.264C105.84 5.384 105.776 6.544 105.712 7.744C105.664 8.944 105.608 10.128 105.544 11.296C105.512 12.4 105.472 13.544 105.424 14.728C105.376 15.896 105.328 17.096 105.28 18.328C105.04 18.36 104.8 18.392 104.56 18.424C104.32 18.456 104.08 18.488 103.84 18.52C103.44 18.584 103 18.656 102.52 18.736C102.04 18.816 101.608 18.888 101.224 18.952ZM100.144 12.496C100.24 12.496 100.416 12.488 100.672 12.472C100.944 12.456 101.2 12.44 101.44 12.424C101.68 12.408 101.824 12.4 101.872 12.4C101.872 12.192 101.904 11.768 101.968 11.128C102.032 10.488 102.096 9.816 102.16 9.112C102.192 8.696 102.224 8.272 102.256 7.84C102.304 7.392 102.352 6.936 102.4 6.472L102.544 4.384L102.184 4.408L101.632 6.472L100.144 12.496ZM107.455 13.456C107.711 12.464 107.959 11.48 108.199 10.504C108.439 9.528 108.679 8.552 108.919 7.576C109.143 6.6 109.375 5.624 109.615 4.648C109.871 3.656 110.127 2.672 110.383 1.696C111.295 1.552 112.127 1.432 112.879 1.336C113.631 1.24 114.247 1.152 114.727 1.072C113.863 3.088 113.071 5.12 112.351 7.168C111.647 9.2 110.943 11.248 110.239 13.312C109.775 13.312 109.311 13.328 108.847 13.36C108.383 13.392 107.919 13.424 107.455 13.456ZM107.407 19.552C106.927 19.552 106.527 19.432 106.207 19.192C105.903 18.968 105.671 18.688 105.511 18.352C105.367 18 105.295 17.648 105.295 17.296C105.295 16.656 105.503 16.104 105.919 15.64C106.351 15.16 106.943 14.92 107.695 14.92C108.623 14.92 109.319 15.144 109.783 15.592C110.247 16.024 110.479 16.52 110.479 17.08C110.479 17.72 110.215 18.296 109.687 18.808C109.159 19.304 108.399 19.552 107.407 19.552Z" fill="white"/>
</svg>
