<svg width="151" height="19" viewBox="0 0 151 19" fill="none" xmlns="http://www.w3.org/2000/svg">
<path d="M-1.5527e-05 18.3361C0.111984 17.2161 0.215984 16.1041 0.311984 15.0001C0.407984 13.8961 0.495984 12.8081 0.575984 11.7361C0.751984 9.78412 0.887984 7.86412 0.983984 5.97612C1.09598 4.08812 1.16798 2.32012 1.19998 0.672116C2.44798 0.672116 3.38398 0.648116 4.00798 0.600117C4.63198 0.536117 4.94398 0.504117 4.94398 0.504117C4.86398 1.43212 4.78398 2.28012 4.70398 3.04812C4.62398 3.80012 4.55198 4.47212 4.48798 5.06412L4.19998 7.96812C4.11998 8.84812 4.04798 9.59212 3.98398 10.2001C3.93598 10.8081 3.88798 11.3681 3.83998 11.8801C3.79198 12.3921 3.72798 12.9521 3.64798 13.5601H4.07998L6.76798 0.792116L8.08799 0.720117C8.29598 0.704117 8.50398 0.696117 8.71198 0.696117C8.91999 0.680116 9.13599 0.664116 9.35999 0.648116C9.58399 0.632116 9.79199 0.616117 9.98398 0.600117C10.192 0.584117 10.384 0.568117 10.56 0.552116C10.256 1.49612 9.94398 2.55212 9.62398 3.72012C9.31998 4.88812 9.00798 6.09612 8.68799 7.34412C8.38398 8.59212 8.07198 9.82412 7.75199 11.0401C7.49599 12.0641 7.23998 13.1121 6.98398 14.1841C6.72798 15.2401 6.47198 16.3121 6.21598 17.4001L-1.5527e-05 18.3361ZM11.9045 18.2161C10.8485 18.2161 9.98455 17.8081 9.31255 16.9921C8.64055 16.1761 8.30455 14.9441 8.30455 13.2961C8.30455 12.3841 8.41655 11.4241 8.64055 10.4161C8.86455 9.40812 9.17655 8.41612 9.57655 7.44012C9.97655 6.46412 10.4405 5.56012 10.9685 4.72812C11.8165 3.38412 12.7925 2.28812 13.8965 1.44012C15.0005 0.592116 16.1605 0.168117 17.3765 0.168117C18.3365 0.168117 19.0725 0.416117 19.5845 0.912117C20.1125 1.39212 20.4805 2.01612 20.6885 2.78412C20.8965 3.53612 21.0005 4.32012 21.0005 5.13612C21.0005 7.04012 20.7045 8.81612 20.1125 10.4641C19.5365 12.0961 18.7845 13.4801 17.8565 14.6161C16.9285 15.7841 15.9365 16.6801 14.8805 17.3041C13.8405 17.9121 12.8485 18.2161 11.9045 18.2161ZM13.2005 14.2561C13.9205 14.2561 14.5525 14.0161 15.0965 13.5361C15.6565 13.0561 16.1285 12.4481 16.5125 11.7121C16.8965 10.9601 17.1845 10.1761 17.3765 9.36012C17.5685 8.54412 17.6645 7.80812 17.6645 7.15212C17.6645 6.89612 17.6405 6.62412 17.5925 6.33612C17.5445 6.03212 17.4405 5.76812 17.2805 5.54412C17.1205 5.32012 16.8725 5.20812 16.5365 5.20812C15.8005 5.20812 15.1365 5.48012 14.5445 6.02412C13.9525 6.55212 13.4565 7.22412 13.0565 8.04012C12.6565 8.87212 12.3605 9.68812 12.1685 10.4881C11.9765 11.2881 11.8805 12.0161 11.8805 12.6721C11.8805 13.0081 12.0005 13.3601 12.2405 13.7281C12.4805 14.0801 12.8005 14.2561 13.2005 14.2561ZM21.5565 18.1441C21.7325 17.2641 21.9085 16.3921 22.0845 15.5281C22.2765 14.6481 22.4525 13.7841 22.6125 12.9361C23.2205 9.89612 23.7165 6.98412 24.1005 4.20012C23.9245 4.16812 23.7405 4.15212 23.5485 4.15212C23.3565 4.13612 23.1725 4.13612 22.9965 4.15212C22.6125 4.18412 22.2365 4.13612 21.8685 4.00812C21.8845 3.88012 21.8925 3.74412 21.8925 3.60012C21.8925 3.44012 21.8925 3.28012 21.8925 3.12012C21.8925 2.94412 21.8925 2.77612 21.8925 2.61612C21.8925 2.44012 21.9005 2.27212 21.9165 2.11212C21.9325 1.93612 21.9405 1.75212 21.9405 1.56012C21.9405 1.35212 21.9485 1.14412 21.9645 0.936117C22.3805 0.968116 22.7965 0.992116 23.2125 1.00812C23.6285 1.02412 24.0445 1.03212 24.4605 1.03212C25.6445 1.03212 26.7725 0.992117 27.8445 0.912117C28.9325 0.832116 29.9325 0.736116 30.8445 0.624116L30.5805 1.92012L30.3645 3.04812C30.2845 3.46412 30.2125 3.79212 30.1485 4.03212C29.9725 4.08012 29.7965 4.12012 29.6205 4.15212C29.4445 4.18412 29.2685 4.20812 29.0925 4.22412C28.9165 4.24012 28.7325 4.26412 28.5405 4.29612C28.3645 4.32812 28.1885 4.36012 28.0125 4.39212C27.7725 5.57612 27.5725 6.60012 27.4125 7.46412C27.2685 8.32812 27.1325 9.16012 27.0045 9.96012C26.8925 10.7441 26.7565 11.6081 26.5965 12.5521C26.3245 14.1681 26.0845 15.8081 25.8765 17.4721L21.5565 18.1441ZM28.2118 18.0961C28.4358 17.1681 28.6598 16.1201 28.8838 14.9521C29.1078 13.7681 29.3318 12.5441 29.5558 11.2801C29.7798 10.0161 29.9878 8.80012 30.1798 7.63212C30.3558 6.60812 30.5238 5.56812 30.6838 4.51212C30.8598 3.45612 31.0278 2.39212 31.1878 1.32012L34.9318 0.720117L33.8518 7.03212C33.6118 8.52012 33.3958 9.85612 33.2038 11.0401C33.0278 12.2241 32.8518 13.3441 32.6758 14.4001C32.5158 15.4561 32.3478 16.5361 32.1718 17.6401C31.8678 17.6401 31.4998 17.6641 31.0678 17.7121C30.6358 17.7441 30.2038 17.7921 29.7718 17.8561C29.3398 17.9041 28.9718 17.9521 28.6678 18.0001C28.3798 18.0481 28.2278 18.0801 28.2118 18.0961ZM33.0634 18.2401C33.5434 15.9361 33.9994 13.7041 34.4314 11.5441C34.7834 9.51212 35.1274 7.56012 35.4634 5.68812C35.7994 3.81612 36.0394 2.09612 36.1834 0.528116C36.2954 0.544116 36.3914 0.552116 36.4714 0.552116C36.5674 0.552116 36.6474 0.552116 36.7114 0.552116H37.2154C37.6314 0.552116 38.0954 0.544116 38.6074 0.528116C39.1194 0.496117 39.5914 0.472116 40.0234 0.456116C40.1354 1.01612 40.2394 1.56812 40.3354 2.11212C40.4474 2.65612 40.5434 3.18412 40.6234 3.69612C40.7034 4.14412 40.7914 4.60812 40.8874 5.08812C40.9834 5.55212 41.0794 6.02412 41.1754 6.50412C41.2554 6.98412 41.3354 7.43212 41.4154 7.84812C41.5114 8.24812 41.5914 8.61612 41.6554 8.95212C41.8474 8.00812 42.0234 7.08012 42.1834 6.16812C42.3594 5.25612 42.5274 4.43212 42.6874 3.69612L43.3834 0.480117L46.3114 0.120116C46.0394 1.33612 45.7834 2.52812 45.5434 3.69612C45.3034 4.86412 45.0794 5.99212 44.8714 7.08012C44.4714 9.03212 44.1194 10.8721 43.8154 12.6001C43.5114 14.3281 43.2794 15.8321 43.1194 17.1121C43.2954 17.1121 43.2634 17.1361 43.0234 17.1841C42.7994 17.2161 42.4634 17.2721 42.0154 17.3521C41.5674 17.4161 41.0874 17.5041 40.5754 17.6161C40.0634 17.7281 39.6074 17.8641 39.2074 18.0241C39.1594 17.3841 39.1114 16.7601 39.0634 16.1521C39.0154 15.5441 38.9594 14.9521 38.8954 14.3761C38.7994 13.3521 38.6874 12.3361 38.5594 11.3281C38.4314 10.3201 38.3034 9.52012 38.1754 8.92812C38.0634 9.63212 37.9274 10.4401 37.7674 11.3521C37.6074 12.2481 37.4314 13.1521 37.2394 14.0641L36.5674 17.4241L33.0634 18.2401ZM49.1469 18.6961C48.5549 18.6961 47.9869 18.5681 47.4429 18.3121C46.9149 18.0561 46.4589 17.6641 46.0749 17.1361C45.6749 16.6241 45.3629 15.9761 45.1389 15.1921C44.9149 14.4081 44.8029 13.4881 44.8029 12.4321C44.8029 10.3681 45.0989 8.56812 45.6909 7.03212C46.2829 5.49612 47.0349 4.21612 47.9469 3.19212C48.8429 2.16812 49.8029 1.40812 50.8269 0.912117C51.8669 0.416117 52.8349 0.168117 53.7309 0.168117C54.5949 0.168117 55.2989 0.360116 55.8429 0.744116C56.3869 1.11212 56.7869 1.60812 57.0429 2.23212C57.2989 2.85612 57.4269 3.55212 57.4269 4.32012L54.1389 4.94412C53.9949 4.30412 53.8029 3.84812 53.5629 3.57612C53.3229 3.30412 53.0509 3.16812 52.7469 3.16812C52.3949 3.16812 52.0269 3.36012 51.6429 3.74412C51.2749 4.12812 50.9069 4.64812 50.5389 5.30412C50.1869 5.94412 49.8669 6.66412 49.5789 7.46412C49.2909 8.26412 49.0509 9.08812 48.8589 9.93612C48.6829 10.7841 48.5789 11.5841 48.5469 12.3361C48.5469 13.3281 48.6909 14.0401 48.9789 14.4721C49.2829 14.8881 49.6669 15.0961 50.1309 15.0961C50.5789 15.0961 51.0189 14.9521 51.4509 14.6641C51.8989 14.3761 52.2669 13.9921 52.5549 13.5121C52.8589 13.0161 53.0189 12.4641 53.0349 11.8561L50.4669 12.2401L50.9229 9.86412L53.1309 9.57612C53.7389 9.49612 54.3789 9.40012 55.0509 9.28812C55.7389 9.17612 56.3389 9.07212 56.8509 8.97612C56.7389 10.6081 56.4189 12.0401 55.8909 13.2721C55.3789 14.4881 54.7389 15.4961 53.9709 16.2961C53.2029 17.0961 52.3949 17.6961 51.5469 18.0961C50.7149 18.4961 49.9149 18.6961 49.1469 18.6961ZM64.827 18.1681C63.819 18.1681 62.995 17.6961 62.355 16.7521C61.715 15.8081 61.395 14.5121 61.395 12.8641C61.395 11.3601 61.603 9.88012 62.019 8.42412C62.435 6.95212 63.019 5.63212 63.771 4.46412C64.523 3.29612 65.411 2.36012 66.435 1.65612C67.475 0.936117 68.619 0.576117 69.867 0.576117C70.651 0.576117 71.323 0.880117 71.883 1.48812C72.443 2.09612 72.723 2.91212 72.723 3.93612V4.22412C72.723 4.28812 72.723 4.34412 72.723 4.39212C72.723 4.44012 72.715 4.49612 72.699 4.56012L69.555 5.40012C69.363 5.00012 69.139 4.80012 68.883 4.80012C68.499 4.80012 68.091 5.11212 67.659 5.73612C67.243 6.36012 66.843 7.10412 66.459 7.96812C66.203 8.54412 65.971 9.13612 65.763 9.74412C65.571 10.3521 65.419 10.9201 65.307 11.4481C65.195 11.9761 65.139 12.4081 65.139 12.7441C65.139 13.2401 65.211 13.6001 65.355 13.8241C65.467 14.0321 65.643 14.1361 65.883 14.1361C66.123 14.1361 66.387 14.0241 66.675 13.8001C66.963 13.5601 67.227 13.2641 67.467 12.9121C67.723 12.5601 67.891 12.2081 67.971 11.8561L70.707 12.9601C69.923 14.7521 68.987 16.0721 67.899 16.9201C66.827 17.7521 65.803 18.1681 64.827 18.1681ZM74.7405 18.2161C73.6845 18.2161 72.8205 17.8081 72.1485 16.9921C71.4765 16.1761 71.1405 14.9441 71.1405 13.2961C71.1405 12.3841 71.2525 11.4241 71.4765 10.4161C71.7005 9.40812 72.0125 8.41612 72.4125 7.44012C72.8125 6.46412 73.2765 5.56012 73.8045 4.72812C74.6525 3.38412 75.6285 2.28812 76.7325 1.44012C77.8365 0.592116 78.9965 0.168117 80.2125 0.168117C81.1725 0.168117 81.9085 0.416117 82.4205 0.912117C82.9485 1.39212 83.3165 2.01612 83.5245 2.78412C83.7325 3.53612 83.8365 4.32012 83.8365 5.13612C83.8365 7.04012 83.5405 8.81612 82.9485 10.4641C82.3725 12.0961 81.6205 13.4801 80.6925 14.6161C79.7645 15.7841 78.7725 16.6801 77.7165 17.3041C76.6765 17.9121 75.6845 18.2161 74.7405 18.2161ZM76.0365 14.2561C76.7565 14.2561 77.3885 14.0161 77.9325 13.5361C78.4925 13.0561 78.9645 12.4481 79.3485 11.7121C79.7325 10.9601 80.0205 10.1761 80.2125 9.36012C80.4045 8.54412 80.5005 7.80812 80.5005 7.15212C80.5005 6.89612 80.4765 6.62412 80.4285 6.33612C80.3805 6.03212 80.2765 5.76812 80.1165 5.54412C79.9565 5.32012 79.7085 5.20812 79.3725 5.20812C78.6365 5.20812 77.9725 5.48012 77.3805 6.02412C76.7885 6.55212 76.2925 7.22412 75.8925 8.04012C75.4925 8.87212 75.1965 9.68812 75.0045 10.4881C74.8125 11.2881 74.7165 12.0161 74.7165 12.6721C74.7165 13.0081 74.8365 13.3601 75.0765 13.7281C75.3165 14.0801 75.6365 14.2561 76.0365 14.2561ZM81.5124 17.9761C82.2164 15.8321 82.8884 13.7441 83.5284 11.7121C83.8004 10.8801 84.0804 9.99212 84.3684 9.04812C84.6564 8.10412 84.9444 7.16012 85.2324 6.21612C85.5204 5.25612 85.7924 4.33612 86.0484 3.45612C86.3044 2.57612 86.5204 1.79212 86.6964 1.10412C87.5764 1.10412 88.4084 1.05612 89.1924 0.960116C89.5924 0.912116 90.0004 0.864116 90.4164 0.816117C90.8484 0.768116 91.2884 0.728117 91.7364 0.696117L91.5924 1.87212C91.5604 2.09612 91.5284 2.32812 91.4964 2.56812C91.4644 2.79212 91.4324 3.02412 91.4004 3.26412C91.3684 3.50412 91.3284 3.75212 91.2804 4.00812C91.2324 4.24812 91.1924 4.49612 91.1604 4.75212C91.0964 5.24812 91.0004 5.94412 90.8724 6.84012C90.7444 7.72012 90.5924 8.68012 90.4164 9.72012H90.7284C91.1924 8.50412 91.5764 7.49612 91.8804 6.69612C92.1844 5.88012 92.4324 5.21612 92.6244 4.70412C92.8964 3.95212 93.1924 3.19212 93.5124 2.42412C93.8324 1.65612 94.0964 1.06412 94.3044 0.648116C94.6884 0.616117 95.1444 0.568117 95.6724 0.504117C96.2164 0.424117 96.7604 0.336116 97.3044 0.240116C97.8644 0.144116 98.3444 0.064116 98.7444 0.000115871C98.5204 1.34412 98.3124 2.70412 98.1204 4.08012C97.9444 5.44012 97.7844 6.74412 97.6404 7.99212C97.5124 9.22412 97.4004 10.3361 97.3044 11.3281C97.2084 12.3201 97.1204 13.3041 97.0404 14.2801C96.9604 15.2401 96.8804 16.1921 96.8004 17.1361L92.6244 17.8801C92.6244 17.8481 92.6484 17.4881 92.6964 16.8001C92.7444 16.1121 92.8244 15.2561 92.9364 14.2321C93.0484 13.2081 93.1604 12.2401 93.2724 11.3281C93.3844 10.4001 93.4964 9.64012 93.6084 9.04812H93.3924C92.9924 10.2641 92.5044 11.5921 91.9284 13.0321C91.3684 14.4721 90.8164 16.0641 90.2724 17.8081C89.7124 17.8241 89.2324 17.8481 88.8324 17.8801C88.4324 17.8961 87.9684 17.9201 87.4404 17.9521L88.2084 9.04812H87.8484C87.8324 9.22412 87.7604 9.56812 87.6324 10.0801C87.5044 10.5761 87.3524 11.1521 87.1764 11.8081C87.0004 12.4481 86.8164 13.0881 86.6244 13.7281C85.9044 16.2401 85.5204 17.5681 85.4724 17.7121L81.5124 17.9761ZM97.0198 18.1441C97.4998 15.9841 97.9558 13.8721 98.3878 11.8081C98.5638 10.9761 98.7398 10.0881 98.9158 9.14412C99.1078 8.18412 99.2998 7.21612 99.4918 6.24012C99.6838 5.26412 99.8598 4.34412 100.02 3.48012C100.18 2.60012 100.308 1.83212 100.404 1.17612C101.044 0.984116 101.732 0.808116 102.468 0.648116C103.22 0.488116 103.892 0.408116 104.484 0.408116C105.444 0.408116 106.204 0.616117 106.764 1.03212C107.324 1.43212 107.724 1.97612 107.964 2.66412C108.204 3.35212 108.324 4.10412 108.324 4.92012C108.324 5.81612 108.156 6.68012 107.82 7.51212C107.5 8.32812 107.06 9.06412 106.5 9.72012C105.956 10.3761 105.324 10.8961 104.604 11.2801C103.9 11.6641 103.164 11.8561 102.396 11.8561H102.132C102.004 12.4001 101.884 12.9921 101.772 13.6321C101.66 14.2721 101.564 14.8641 101.484 15.4081C101.42 15.7281 101.364 16.0481 101.316 16.3681C101.268 16.6881 101.22 17.0081 101.172 17.3281L97.0198 18.1441ZM102.612 9.33612C102.98 9.24012 103.348 9.00012 103.716 8.61612C104.084 8.21612 104.388 7.71212 104.628 7.10412C104.868 6.49612 104.988 5.83212 104.988 5.11212C104.988 4.52012 104.852 4.07212 104.58 3.76812C104.324 3.46412 104.036 3.31212 103.716 3.31212C103.54 4.36812 103.364 5.36812 103.188 6.31212C103.012 7.25612 102.82 8.26412 102.612 9.33612ZM106.474 18.1681C106.65 16.9041 106.834 15.6321 107.026 14.3521C107.234 13.0721 107.442 11.8401 107.65 10.6561C107.874 9.45612 108.082 8.37612 108.274 7.41612C108.482 6.37612 108.69 5.32012 108.898 4.24812C109.106 3.17612 109.322 2.09612 109.546 1.00812L113.746 0.456116L112.498 5.88012C112.274 6.82412 112.042 7.84012 111.802 8.92812C111.578 10.0001 111.37 11.0401 111.178 12.0481C110.986 13.0561 110.834 13.9521 110.722 14.7361C111.122 14.7041 111.546 14.6881 111.994 14.6881C112.458 14.6721 112.866 14.6641 113.218 14.6641C113.234 15.0321 113.266 15.4241 113.314 15.8401C113.362 16.2401 113.41 16.5921 113.458 16.8961C113.522 17.1841 113.554 17.3441 113.554 17.3761C113.49 17.3761 113.426 17.3761 113.362 17.3761C113.314 17.3761 113.258 17.3681 113.194 17.3521H112.81C112.186 17.3521 111.49 17.3841 110.722 17.4481C109.97 17.4961 109.218 17.5841 108.466 17.7121C107.73 17.8241 107.066 17.9761 106.474 18.1681ZM113.62 18.1441L116.764 1.08012L124.348 0.432116C124.236 0.784116 124.14 1.14412 124.06 1.51212C123.98 1.81612 123.9 2.13612 123.82 2.47212C123.756 2.79212 123.7 3.08012 123.652 3.33612C123.444 3.35212 123.148 3.36812 122.764 3.38412C122.38 3.38412 121.988 3.39212 121.588 3.40812C121.188 3.40812 120.844 3.40812 120.556 3.40812C120.268 3.40812 120.116 3.40812 120.1 3.40812L119.26 7.70412L120.652 7.63212C120.828 7.61612 121.004 7.60812 121.18 7.60812C121.372 7.60812 121.556 7.60812 121.732 7.60812C121.908 7.60812 122.068 7.60812 122.212 7.60812C122.356 7.60812 122.468 7.60012 122.548 7.58412C122.516 7.80812 122.484 8.03212 122.452 8.25612C122.436 8.46412 122.412 8.68012 122.38 8.90412L122.164 10.2241C122.084 10.2401 121.98 10.2481 121.852 10.2481C121.724 10.2481 121.572 10.2481 121.396 10.2481C121.22 10.2641 121.036 10.2721 120.844 10.2721C120.652 10.2721 120.468 10.2801 120.292 10.2961C120.084 10.3121 119.868 10.3201 119.644 10.3201C119.42 10.3201 119.18 10.3281 118.924 10.3441L118.108 14.7601L121.612 14.2081L121.372 16.9441L113.62 18.1441ZM123.767 18.1441C123.943 17.2641 124.119 16.3921 124.295 15.5281C124.487 14.6481 124.663 13.7841 124.823 12.9361C125.431 9.89612 125.927 6.98412 126.311 4.20012C126.135 4.16812 125.951 4.15212 125.759 4.15212C125.567 4.13612 125.383 4.13612 125.207 4.15212C124.823 4.18412 124.447 4.13612 124.079 4.00812C124.095 3.88012 124.103 3.74412 124.103 3.60012C124.103 3.44012 124.103 3.28012 124.103 3.12012C124.103 2.94412 124.103 2.77612 124.103 2.61612C124.103 2.44012 124.111 2.27212 124.127 2.11212C124.143 1.93612 124.151 1.75212 124.151 1.56012C124.151 1.35212 124.159 1.14412 124.175 0.936117C124.591 0.968116 125.007 0.992116 125.423 1.00812C125.839 1.02412 126.255 1.03212 126.671 1.03212C127.855 1.03212 128.983 0.992117 130.055 0.912117C131.143 0.832116 132.143 0.736116 133.055 0.624116L132.791 1.92012L132.575 3.04812C132.495 3.46412 132.423 3.79212 132.359 4.03212C132.183 4.08012 132.007 4.12012 131.831 4.15212C131.655 4.18412 131.479 4.20812 131.303 4.22412C131.127 4.24012 130.943 4.26412 130.751 4.29612C130.575 4.32812 130.399 4.36012 130.223 4.39212C129.983 5.57612 129.783 6.60012 129.623 7.46412C129.479 8.32812 129.343 9.16012 129.215 9.96012C129.103 10.7441 128.967 11.6081 128.807 12.5521C128.535 14.1681 128.295 15.8081 128.087 17.4721L123.767 18.1441ZM130.495 18.1441L133.639 1.08012L141.223 0.432116C141.111 0.784116 141.015 1.14412 140.935 1.51212C140.855 1.81612 140.775 2.13612 140.695 2.47212C140.631 2.79212 140.575 3.08012 140.527 3.33612C140.319 3.35212 140.023 3.36812 139.639 3.38412C139.255 3.38412 138.863 3.39212 138.463 3.40812C138.063 3.40812 137.719 3.40812 137.431 3.40812C137.143 3.40812 136.991 3.40812 136.975 3.40812L136.135 7.70412L137.527 7.63212C137.703 7.61612 137.879 7.60812 138.055 7.60812C138.247 7.60812 138.431 7.60812 138.607 7.60812C138.783 7.60812 138.943 7.60812 139.087 7.60812C139.231 7.60812 139.343 7.60012 139.423 7.58412C139.391 7.80812 139.359 8.03212 139.327 8.25612C139.311 8.46412 139.287 8.68012 139.255 8.90412L139.039 10.2241C138.959 10.2401 138.855 10.2481 138.727 10.2481C138.599 10.2481 138.447 10.2481 138.271 10.2481C138.095 10.2641 137.911 10.2721 137.719 10.2721C137.527 10.2721 137.343 10.2801 137.167 10.2961C136.959 10.3121 136.743 10.3201 136.519 10.3201C136.295 10.3201 136.055 10.3281 135.799 10.3441L134.983 14.7601L138.487 14.2081L138.247 16.9441L130.495 18.1441ZM139.922 18.2401C139.698 18.2401 139.474 18.2241 139.25 18.1921C139.026 18.1761 138.802 18.1521 138.578 18.1201L139.85 11.6641C140.01 10.7841 140.178 9.85612 140.354 8.88012C140.546 7.88812 140.73 6.91212 140.906 5.95212C141.082 4.97612 141.234 4.07212 141.362 3.24012C141.506 2.40812 141.618 1.70412 141.698 1.12812C142.386 1.00012 143.082 0.880116 143.786 0.768116C144.49 0.656116 145.21 0.600117 145.946 0.600117C147.13 0.600117 148.066 0.848116 148.754 1.34412C149.442 1.82412 149.938 2.46412 150.242 3.26412C150.546 4.04812 150.698 4.91212 150.698 5.85612C150.698 6.70412 150.578 7.60012 150.338 8.54412C150.098 9.47212 149.754 10.4001 149.306 11.3281C148.874 12.2401 148.354 13.1041 147.746 13.9201C146.802 15.1841 145.65 16.2241 144.29 17.0401C142.946 17.8401 141.49 18.2401 139.922 18.2401ZM142.778 15.2161C143.338 14.8481 143.866 14.2881 144.362 13.5361C144.874 12.7841 145.354 11.8801 145.802 10.8241C146.202 9.84812 146.514 8.92812 146.738 8.06412C146.962 7.18412 147.074 6.45612 147.074 5.88012C147.074 5.28812 146.906 4.82412 146.57 4.48812C146.25 4.15212 145.738 3.98412 145.034 3.98412C144.778 5.36012 144.514 6.63212 144.242 7.80012C143.986 8.96812 143.73 10.1441 143.474 11.3281C143.234 12.5121 143.002 13.8081 142.778 15.2161Z" fill="#37383C" fill-opacity="0.28"/>
</svg>
