<svg width="20" height="20" viewBox="0 0 20 20" fill="none" xmlns="http://www.w3.org/2000/svg">
<path d="M14.0703 4C14.2118 4.00003 14.3489 4.02499 14.4814 4.0752C14.6141 4.12543 14.7318 4.20594 14.834 4.31543L15.6953 5.1875C15.8048 5.28973 15.8831 5.40796 15.9297 5.54102C15.9762 5.67385 15.9999 5.80661 16 5.93945C16 6.08145 15.9752 6.21774 15.9268 6.34668C15.8783 6.47557 15.801 6.59361 15.6953 6.7002L7.80176 14.5879H14.9414V16H4V13.6104L13.3105 4.30371C13.4172 4.2068 13.5352 4.13191 13.6641 4.0791C13.7931 4.02616 13.9288 4 14.0703 4ZM5.05859 14.0508V14.9414H5.94922L13.1748 7.71484L12.7217 7.27832L12.2842 6.8252L5.05859 14.0508Z" fill="white"/>
</svg>
