<svg width="75" height="12" viewBox="0 0 75 12" fill="none" xmlns="http://www.w3.org/2000/svg">
<path d="M2.85207 11.53C2.22207 11.53 1.70707 11.235 1.30707 10.645C0.90707 10.055 0.70707 9.245 0.70707 8.215C0.70707 7.275 0.83707 6.35 1.09707 5.44C1.35707 4.52 1.72207 3.695 2.19207 2.965C2.66207 2.235 3.21707 1.65 3.85707 1.21C4.50707 0.76 5.22207 0.535 6.00207 0.535C6.49207 0.535 6.91207 0.725 7.26207 1.105C7.61207 1.485 7.78707 1.995 7.78707 2.635V2.815C7.78707 2.855 7.78707 2.89 7.78707 2.92C7.78707 2.95 7.78207 2.985 7.77207 3.025L5.80707 3.55C5.68707 3.3 5.54707 3.175 5.38707 3.175C5.14707 3.175 4.89207 3.37 4.62207 3.76C4.36207 4.15 4.11207 4.615 3.87207 5.155C3.71207 5.515 3.56707 5.885 3.43707 6.265C3.31707 6.645 3.22207 7 3.15207 7.33C3.08207 7.66 3.04707 7.93 3.04707 8.14C3.04707 8.45 3.09207 8.675 3.18207 8.815C3.25207 8.945 3.36207 9.01 3.51207 9.01C3.66207 9.01 3.82707 8.94 4.00707 8.8C4.18707 8.65 4.35207 8.465 4.50207 8.245C4.66207 8.025 4.76707 7.805 4.81707 7.585L6.52707 8.275C6.03707 9.395 5.45207 10.22 4.77207 10.75C4.10207 11.27 3.46207 11.53 2.85207 11.53ZM6.51301 11.53C6.62301 10.74 6.73801 9.945 6.85801 9.145C6.98801 8.345 7.11801 7.575 7.24801 6.835C7.38801 6.085 7.51801 5.41 7.63801 4.81C7.76801 4.16 7.89801 3.5 8.02801 2.83C8.15801 2.16 8.29301 1.485 8.43301 0.804999L11.058 0.459999L10.278 3.85C10.138 4.44 9.99301 5.075 9.84301 5.755C9.70301 6.425 9.57301 7.075 9.45301 7.705C9.33301 8.335 9.23801 8.895 9.16801 9.385C9.41801 9.365 9.68301 9.355 9.96301 9.355C10.253 9.345 10.508 9.34 10.728 9.34C10.738 9.57 10.758 9.815 10.788 10.075C10.818 10.325 10.848 10.545 10.878 10.735C10.918 10.915 10.938 11.015 10.938 11.035C10.898 11.035 10.858 11.035 10.818 11.035C10.788 11.035 10.753 11.03 10.713 11.02H10.473C10.083 11.02 9.64801 11.04 9.16801 11.08C8.69801 11.11 8.22801 11.165 7.75801 11.245C7.29801 11.315 6.88301 11.41 6.51301 11.53ZM10.7694 11.485C10.9394 10.895 11.1044 10.225 11.2644 9.475C11.4344 8.725 11.5944 7.96 11.7444 7.18C11.9044 6.39 12.0544 5.645 12.1944 4.945C12.3244 4.305 12.4494 3.655 12.5694 2.995C12.6894 2.335 12.8094 1.67 12.9294 0.999999L15.2694 0.625C15.1394 1.295 15.0094 1.96 14.8794 2.62C14.7494 3.27 14.6194 3.92 14.4894 4.57C14.3494 5.27 14.2044 6.01 14.0544 6.79C13.9044 7.57 13.7594 8.34 13.6194 9.1C13.4794 9.85 13.3494 10.55 13.2294 11.2C13.0494 11.2 12.8244 11.215 12.5544 11.245C12.2844 11.265 12.0144 11.295 11.7444 11.335C11.4744 11.365 11.2444 11.395 11.0544 11.425C10.8744 11.455 10.7794 11.475 10.7694 11.485ZM16.5923 11.53C15.9623 11.53 15.4473 11.235 15.0473 10.645C14.6473 10.055 14.4473 9.245 14.4473 8.215C14.4473 7.275 14.5773 6.35 14.8373 5.44C15.0973 4.52 15.4623 3.695 15.9323 2.965C16.4023 2.235 16.9573 1.65 17.5973 1.21C18.2473 0.76 18.9623 0.535 19.7423 0.535C20.2323 0.535 20.6523 0.725 21.0023 1.105C21.3523 1.485 21.5273 1.995 21.5273 2.635V2.815C21.5273 2.855 21.5273 2.89 21.5273 2.92C21.5273 2.95 21.5223 2.985 21.5123 3.025L19.5473 3.55C19.4273 3.3 19.2873 3.175 19.1273 3.175C18.8873 3.175 18.6323 3.37 18.3623 3.76C18.1023 4.15 17.8523 4.615 17.6123 5.155C17.4523 5.515 17.3073 5.885 17.1773 6.265C17.0573 6.645 16.9623 7 16.8923 7.33C16.8223 7.66 16.7873 7.93 16.7873 8.14C16.7873 8.45 16.8323 8.675 16.9223 8.815C16.9923 8.945 17.1023 9.01 17.2523 9.01C17.4023 9.01 17.5673 8.94 17.7473 8.8C17.9273 8.65 18.0923 8.465 18.2423 8.245C18.4023 8.025 18.5073 7.805 18.5573 7.585L20.2673 8.275C19.7773 9.395 19.1923 10.22 18.5123 10.75C17.8423 11.27 17.2023 11.53 16.5923 11.53ZM20.1782 11.515C20.3282 10.815 20.4732 10.125 20.6132 9.445C20.7532 8.765 20.8882 8.095 21.0182 7.435C21.2282 6.245 21.4332 5.07 21.6332 3.91C21.8332 2.74 21.9782 1.625 22.0682 0.565L22.8482 0.61C22.9882 0.62 23.1232 0.63 23.2532 0.639999C23.3932 0.649999 23.5282 0.659999 23.6582 0.669999C23.8082 0.68 23.9582 0.69 24.1082 0.7C24.2582 0.7 24.4082 0.7 24.5582 0.7C24.5382 0.78 24.5032 0.94 24.4532 1.18C24.4132 1.42 24.3682 1.665 24.3182 1.915C24.2782 2.155 24.2482 2.32 24.2282 2.41L23.9582 3.895L24.0482 3.88C24.3382 3.43 24.6732 2.91 25.0532 2.32C25.4332 1.73 25.7882 1.165 26.1182 0.625C26.6182 0.585 27.1182 0.54 27.6182 0.49C28.1182 0.44 28.6182 0.375 29.1182 0.294999C28.8882 0.605 28.6582 0.914999 28.4282 1.225C28.1982 1.535 27.9732 1.845 27.7532 2.155C27.5232 2.475 27.2732 2.825 27.0032 3.205C26.7332 3.585 26.4732 3.96 26.2232 4.33C25.9832 4.69 25.7832 5 25.6232 5.26C25.7332 5.76 25.8532 6.255 25.9832 6.745C26.1132 7.235 26.2532 7.715 26.4032 8.185C26.5532 8.655 26.7032 9.13 26.8532 9.61C27.0032 10.09 27.1582 10.575 27.3182 11.065C27.0882 11.055 26.8532 11.05 26.6132 11.05C26.3732 11.04 26.1382 11.035 25.9082 11.035C25.6182 11.035 25.3382 11.04 25.0682 11.05C24.7982 11.05 24.5182 11.055 24.2282 11.065C24.1882 10.745 24.1432 10.415 24.0932 10.075C24.0432 9.725 23.9932 9.37 23.9432 9.01C23.8932 8.66 23.8432 8.315 23.7932 7.975C23.7432 7.625 23.6932 7.29 23.6432 6.97L23.3732 7.285C23.3032 7.575 23.2282 7.945 23.1482 8.395C23.1082 8.615 23.0632 8.835 23.0132 9.055C22.9732 9.265 22.9332 9.47 22.8932 9.67C22.8532 9.91 22.8082 10.155 22.7582 10.405C22.7082 10.645 22.6582 10.895 22.6082 11.155L20.1782 11.515ZM31.2816 11.515C31.3916 10.965 31.5016 10.42 31.6116 9.88C31.7316 9.33 31.8416 8.79 31.9416 8.26C32.3216 6.36 32.6316 4.54 32.8716 2.8C32.7616 2.78 32.6466 2.77 32.5266 2.77C32.4066 2.76 32.2916 2.76 32.1816 2.77C31.9416 2.79 31.7066 2.76 31.4766 2.68C31.4866 2.6 31.4916 2.515 31.4916 2.425C31.4916 2.325 31.4916 2.225 31.4916 2.125C31.4916 2.015 31.4916 1.91 31.4916 1.81C31.4916 1.7 31.4966 1.595 31.5066 1.495C31.5166 1.385 31.5216 1.27 31.5216 1.15C31.5216 1.02 31.5266 0.89 31.5366 0.76C31.7966 0.779999 32.0566 0.794999 32.3166 0.804999C32.5766 0.815 32.8366 0.82 33.0966 0.82C33.8366 0.82 34.5416 0.795 35.2116 0.745C35.8916 0.694999 36.5166 0.634999 37.0866 0.565L36.9216 1.375L36.7866 2.08C36.7366 2.34 36.6916 2.545 36.6516 2.695C36.5416 2.725 36.4316 2.75 36.3216 2.77C36.2116 2.79 36.1016 2.805 35.9916 2.815C35.8816 2.825 35.7666 2.84 35.6466 2.86C35.5366 2.88 35.4266 2.9 35.3166 2.92C35.1666 3.66 35.0416 4.3 34.9416 4.84C34.8516 5.38 34.7666 5.9 34.6866 6.4C34.6166 6.89 34.5316 7.43 34.4316 8.02C34.2616 9.03 34.1116 10.055 33.9816 11.095L31.2816 11.515ZM37.6857 11.56C37.0257 11.56 36.4857 11.305 36.0657 10.795C35.6457 10.285 35.4357 9.515 35.4357 8.485C35.4357 7.915 35.5057 7.315 35.6457 6.685C35.7857 6.055 35.9807 5.435 36.2307 4.825C36.4807 4.215 36.7707 3.65 37.1007 3.13C37.6307 2.29 38.2407 1.605 38.9307 1.075C39.6207 0.544999 40.3457 0.28 41.1057 0.28C41.7057 0.28 42.1657 0.435 42.4857 0.745C42.8157 1.045 43.0457 1.435 43.1757 1.915C43.3057 2.385 43.3707 2.875 43.3707 3.385C43.3707 4.575 43.1857 5.685 42.8157 6.715C42.4557 7.735 41.9857 8.6 41.4057 9.31C40.8257 10.04 40.2057 10.6 39.5457 10.99C38.8957 11.37 38.2757 11.56 37.6857 11.56ZM38.4957 9.085C38.9457 9.085 39.3407 8.935 39.6807 8.635C40.0307 8.335 40.3257 7.955 40.5657 7.495C40.8057 7.025 40.9857 6.535 41.1057 6.025C41.2257 5.515 41.2857 5.055 41.2857 4.645C41.2857 4.485 41.2707 4.315 41.2407 4.135C41.2107 3.945 41.1457 3.78 41.0457 3.64C40.9457 3.5 40.7907 3.43 40.5807 3.43C40.1207 3.43 39.7057 3.6 39.3357 3.94C38.9657 4.27 38.6557 4.69 38.4057 5.2C38.1557 5.72 37.9707 6.23 37.8507 6.73C37.7307 7.23 37.6707 7.685 37.6707 8.095C37.6707 8.305 37.7457 8.525 37.8957 8.755C38.0457 8.975 38.2457 9.085 38.4957 9.085ZM46.1829 11.635C46.2529 10.935 46.3179 10.24 46.3779 9.55C46.4379 8.86 46.4929 8.18 46.5429 7.51C46.6529 6.29 46.7379 5.09 46.7979 3.91C46.8679 2.73 46.9129 1.625 46.9329 0.594999C47.7129 0.594999 48.2979 0.579999 48.6879 0.55C49.0779 0.51 49.2729 0.49 49.2729 0.49C49.2229 1.07 49.1729 1.6 49.1229 2.08C49.0729 2.55 49.0279 2.97 48.9879 3.34L48.8079 5.155C48.7579 5.705 48.7129 6.17 48.6729 6.55C48.6429 6.93 48.6129 7.28 48.5829 7.6C48.5529 7.92 48.5129 8.27 48.4629 8.65H48.7329L50.4129 0.669999L51.2379 0.625C51.3679 0.615 51.4979 0.61 51.6279 0.61C51.7579 0.599999 51.8929 0.589999 52.0329 0.579999C52.1729 0.569999 52.3029 0.56 52.4229 0.55C52.5529 0.54 52.6729 0.53 52.7829 0.519999C52.5929 1.11 52.3979 1.77 52.1979 2.5C52.0079 3.23 51.8129 3.985 51.6129 4.765C51.4229 5.545 51.2279 6.315 51.0279 7.075C50.8679 7.715 50.7079 8.37 50.5479 9.04C50.3879 9.7 50.2279 10.37 50.0679 11.05L46.1829 11.635ZM53.6964 11.56C53.0364 11.56 52.4964 11.305 52.0764 10.795C51.6564 10.285 51.4464 9.515 51.4464 8.485C51.4464 7.915 51.5164 7.315 51.6564 6.685C51.7964 6.055 51.9914 5.435 52.2414 4.825C52.4914 4.215 52.7814 3.65 53.1114 3.13C53.6414 2.29 54.2514 1.605 54.9414 1.075C55.6314 0.544999 56.3564 0.28 57.1164 0.28C57.7164 0.28 58.1764 0.435 58.4964 0.745C58.8264 1.045 59.0564 1.435 59.1864 1.915C59.3164 2.385 59.3814 2.875 59.3814 3.385C59.3814 4.575 59.1964 5.685 58.8264 6.715C58.4664 7.735 57.9964 8.6 57.4164 9.31C56.8364 10.04 56.2164 10.6 55.5564 10.99C54.9064 11.37 54.2864 11.56 53.6964 11.56ZM54.5064 9.085C54.9564 9.085 55.3514 8.935 55.6914 8.635C56.0414 8.335 56.3364 7.955 56.5764 7.495C56.8164 7.025 56.9964 6.535 57.1164 6.025C57.2364 5.515 57.2964 5.055 57.2964 4.645C57.2964 4.485 57.2814 4.315 57.2514 4.135C57.2214 3.945 57.1564 3.78 57.0564 3.64C56.9564 3.5 56.8014 3.43 56.5914 3.43C56.1314 3.43 55.7164 3.6 55.3464 3.94C54.9764 4.27 54.6664 4.69 54.4164 5.2C54.1664 5.72 53.9814 6.23 53.8614 6.73C53.7414 7.23 53.6814 7.685 53.6814 8.095C53.6814 8.305 53.7564 8.525 53.9064 8.755C54.0564 8.975 54.2564 9.085 54.5064 9.085ZM59.4506 11.515C59.5606 10.965 59.6706 10.42 59.7806 9.88C59.9006 9.33 60.0106 8.79 60.1106 8.26C60.4906 6.36 60.8006 4.54 61.0406 2.8C60.9306 2.78 60.8156 2.77 60.6956 2.77C60.5756 2.76 60.4606 2.76 60.3506 2.77C60.1106 2.79 59.8756 2.76 59.6456 2.68C59.6556 2.6 59.6606 2.515 59.6606 2.425C59.6606 2.325 59.6606 2.225 59.6606 2.125C59.6606 2.015 59.6606 1.91 59.6606 1.81C59.6606 1.7 59.6656 1.595 59.6756 1.495C59.6856 1.385 59.6906 1.27 59.6906 1.15C59.6906 1.02 59.6956 0.89 59.7056 0.76C59.9656 0.779999 60.2256 0.794999 60.4856 0.804999C60.7456 0.815 61.0056 0.82 61.2656 0.82C62.0056 0.82 62.7106 0.795 63.3806 0.745C64.0606 0.694999 64.6856 0.634999 65.2556 0.565L65.0906 1.375L64.9556 2.08C64.9056 2.34 64.8606 2.545 64.8206 2.695C64.7106 2.725 64.6006 2.75 64.4906 2.77C64.3806 2.79 64.2706 2.805 64.1606 2.815C64.0506 2.825 63.9356 2.84 63.8156 2.86C63.7056 2.88 63.5956 2.9 63.4856 2.92C63.3356 3.66 63.2106 4.3 63.1106 4.84C63.0206 5.38 62.9356 5.9 62.8556 6.4C62.7856 6.89 62.7006 7.43 62.6006 8.02C62.4306 9.03 62.2806 10.055 62.1506 11.095L59.4506 11.515ZM63.6552 11.515L65.6202 0.849999L70.3602 0.444999C70.2902 0.664999 70.2302 0.89 70.1802 1.12C70.1302 1.31 70.0802 1.51 70.0302 1.72C69.9902 1.92 69.9552 2.1 69.9252 2.26C69.7952 2.27 69.6102 2.28 69.3702 2.29C69.1302 2.29 68.8852 2.295 68.6352 2.305C68.3852 2.305 68.1702 2.305 67.9902 2.305C67.8102 2.305 67.7152 2.305 67.7052 2.305L67.1802 4.99L68.0502 4.945C68.1602 4.935 68.2702 4.93 68.3802 4.93C68.5002 4.93 68.6152 4.93 68.7252 4.93C68.8352 4.93 68.9352 4.93 69.0252 4.93C69.1152 4.93 69.1852 4.925 69.2352 4.915C69.2152 5.055 69.1952 5.195 69.1752 5.335C69.1652 5.465 69.1502 5.6 69.1302 5.74L68.9952 6.565C68.9452 6.575 68.8802 6.58 68.8002 6.58C68.7202 6.58 68.6252 6.58 68.5152 6.58C68.4052 6.59 68.2902 6.595 68.1702 6.595C68.0502 6.595 67.9352 6.6 67.8252 6.61C67.6952 6.62 67.5602 6.625 67.4202 6.625C67.2802 6.625 67.1302 6.63 66.9702 6.64L66.4602 9.4L68.6502 9.055L68.5002 10.765L63.6552 11.515ZM70.1572 8.035C70.3172 7.415 70.4722 6.8 70.6222 6.19C70.7722 5.58 70.9222 4.97 71.0722 4.36C71.2122 3.75 71.3572 3.14 71.5072 2.53C71.6672 1.91 71.8272 1.295 71.9872 0.685C72.5572 0.595 73.0772 0.52 73.5472 0.459999C74.0172 0.399999 74.4022 0.344999 74.7022 0.294999C74.1622 1.555 73.6672 2.825 73.2172 4.105C72.7772 5.375 72.3372 6.655 71.8972 7.945C71.6072 7.945 71.3172 7.955 71.0272 7.975C70.7372 7.995 70.4472 8.015 70.1572 8.035ZM70.1272 11.845C69.8272 11.845 69.5772 11.77 69.3772 11.62C69.1872 11.48 69.0422 11.305 68.9422 11.095C68.8522 10.875 68.8072 10.655 68.8072 10.435C68.8072 10.035 68.9372 9.69 69.1972 9.4C69.4672 9.1 69.8372 8.95 70.3072 8.95C70.8872 8.95 71.3222 9.09 71.6122 9.37C71.9022 9.64 72.0472 9.95 72.0472 10.3C72.0472 10.7 71.8822 11.06 71.5522 11.38C71.2222 11.69 70.7472 11.845 70.1272 11.845Z" fill="#FB3F11"/>
</svg>
