<svg width="84" height="19" viewBox="0 0 84 19" fill="none" xmlns="http://www.w3.org/2000/svg">
<path d="M3.43245 17.9762C2.42445 17.9762 1.60045 17.5042 0.960453 16.5602C0.320453 15.6162 0.000453144 14.3202 0.000453144 12.6722C0.000453144 11.1682 0.208453 9.68822 0.624453 8.23222C1.04045 6.76022 1.62445 5.44022 2.37645 4.27222C3.12845 3.10422 4.01645 2.16822 5.04045 1.46422C6.08045 0.744222 7.22445 0.384223 8.47245 0.384223C9.25645 0.384223 9.92845 0.688222 10.4885 1.29622C11.0485 1.90422 11.3285 2.72022 11.3285 3.74422V4.03222C11.3285 4.09622 11.3285 4.15222 11.3285 4.20022C11.3285 4.24822 11.3205 4.30422 11.3045 4.36822L8.16045 5.20822C7.96845 4.80822 7.74445 4.60822 7.48845 4.60822C7.10445 4.60822 6.69645 4.92022 6.26445 5.54422C5.84845 6.16822 5.44845 6.91222 5.06445 7.77622C4.80845 8.35222 4.57645 8.94422 4.36845 9.55222C4.17645 10.1602 4.02445 10.7282 3.91245 11.2562C3.80045 11.7842 3.74445 12.2162 3.74445 12.5522C3.74445 13.0482 3.81645 13.4082 3.96045 13.6322C4.07245 13.8402 4.24845 13.9442 4.48845 13.9442C4.72845 13.9442 4.99245 13.8322 5.28045 13.6082C5.56845 13.3682 5.83245 13.0722 6.07245 12.7202C6.32845 12.3682 6.49645 12.0162 6.57645 11.6642L9.31245 12.7682C8.52845 14.5602 7.59245 15.8802 6.50445 16.7282C5.43245 17.5602 4.40845 17.9762 3.43245 17.9762ZM9.19395 17.9762C9.65795 15.7362 10.09 13.5522 10.49 11.4242C10.714 10.1282 10.938 8.81622 11.162 7.48822C11.402 6.16022 11.618 4.88822 11.81 3.67222C12.002 2.45622 12.146 1.36822 12.242 0.408222C12.674 0.424222 13.026 0.448222 13.298 0.480221C13.586 0.496222 13.85 0.512222 14.09 0.528222C14.346 0.544222 14.626 0.560222 14.93 0.576221C15.25 0.576221 15.65 0.576221 16.13 0.576221C15.858 1.71222 15.586 2.84822 15.314 3.98422C15.058 5.12022 14.818 6.26422 14.594 7.41622L16.97 7.15222C17.082 6.59222 17.186 6.04022 17.282 5.49622C17.394 4.93622 17.49 4.38422 17.57 3.84022C17.65 3.31222 17.746 2.77622 17.858 2.23222C17.986 1.67222 18.122 1.11222 18.266 0.552222C18.842 0.456222 19.426 0.384222 20.018 0.336222C20.61 0.272222 21.106 0.232222 21.506 0.216222C21.906 0.184222 22.106 0.168222 22.106 0.168222C21.898 0.808222 21.69 1.56022 21.482 2.42422C21.274 3.28822 21.074 4.20022 20.882 5.16022C20.69 6.12022 20.506 7.08022 20.33 8.04022C20.154 8.98422 19.994 9.86422 19.85 10.6802C19.674 11.7042 19.506 12.7362 19.346 13.7762C19.186 14.8002 19.026 15.8482 18.866 16.9202L15.122 17.3522C15.234 16.8722 15.33 16.4002 15.41 15.9362C15.506 15.4562 15.594 14.9922 15.674 14.5442C15.834 13.7762 15.994 12.9762 16.154 12.1442C16.33 11.3122 16.466 10.6002 16.562 10.0082L14.234 10.2242C14.17 10.5282 14.106 10.8562 14.042 11.2082C13.994 11.5602 13.93 11.9362 13.85 12.3362C13.77 12.7362 13.69 13.1282 13.61 13.5122C13.546 13.8802 13.482 14.2482 13.418 14.6162C13.338 15.0482 13.25 15.4802 13.154 15.9122C13.058 16.3442 12.97 16.7762 12.89 17.2082L9.19395 17.9762ZM19.7877 17.9522L22.9317 0.888222L30.5157 0.240222C30.4037 0.592222 30.3077 0.952222 30.2277 1.32022C30.1477 1.62422 30.0677 1.94422 29.9877 2.28022C29.9237 2.60022 29.8677 2.88822 29.8197 3.14422C29.6117 3.16022 29.3157 3.17622 28.9317 3.19222C28.5477 3.19222 28.1557 3.20022 27.7557 3.21622C27.3557 3.21622 27.0117 3.21622 26.7237 3.21622C26.4357 3.21622 26.2837 3.21622 26.2677 3.21622L25.4277 7.51222L26.8197 7.44022C26.9957 7.42422 27.1717 7.41622 27.3477 7.41622C27.5397 7.41622 27.7237 7.41622 27.8997 7.41622C28.0757 7.41622 28.2357 7.41622 28.3797 7.41622C28.5237 7.41622 28.6357 7.40822 28.7157 7.39222C28.6837 7.61622 28.6517 7.84022 28.6197 8.06422C28.6037 8.27222 28.5797 8.48822 28.5477 8.71222L28.3317 10.0322C28.2517 10.0482 28.1477 10.0562 28.0197 10.0562C27.8917 10.0562 27.7397 10.0562 27.5637 10.0562C27.3877 10.0722 27.2037 10.0802 27.0117 10.0802C26.8197 10.0802 26.6357 10.0882 26.4597 10.1042C26.2517 10.1202 26.0357 10.1282 25.8117 10.1282C25.5877 10.1282 25.3477 10.1362 25.0917 10.1522L24.2757 14.5682L27.7797 14.0162L27.5397 16.7522L19.7877 17.9522ZM27.9674 17.9522L31.1114 0.888222L38.6954 0.240222C38.5834 0.592222 38.4874 0.952222 38.4074 1.32022C38.3274 1.62422 38.2474 1.94422 38.1674 2.28022C38.1034 2.60022 38.0474 2.88822 37.9994 3.14422C37.7914 3.16022 37.4954 3.17622 37.1114 3.19222C36.7274 3.19222 36.3354 3.20022 35.9354 3.21622C35.5354 3.21622 35.1914 3.21622 34.9034 3.21622C34.6154 3.21622 34.4634 3.21622 34.4474 3.21622L33.6074 7.51222L34.9994 7.44022C35.1754 7.42422 35.3514 7.41622 35.5274 7.41622C35.7194 7.41622 35.9034 7.41622 36.0794 7.41622C36.2554 7.41622 36.4154 7.41622 36.5594 7.41622C36.7034 7.41622 36.8154 7.40822 36.8954 7.39222C36.8634 7.61622 36.8314 7.84022 36.7994 8.06422C36.7834 8.27222 36.7594 8.48822 36.7274 8.71222L36.5114 10.0322C36.4314 10.0482 36.3274 10.0562 36.1994 10.0562C36.0714 10.0562 35.9194 10.0562 35.7434 10.0562C35.5674 10.0722 35.3834 10.0802 35.1914 10.0802C34.9994 10.0802 34.8154 10.0882 34.6394 10.1042C34.4314 10.1202 34.2154 10.1282 33.9914 10.1282C33.7674 10.1282 33.5274 10.1362 33.2714 10.1522L32.4554 14.5682L35.9594 14.0162L35.7194 16.7522L27.9674 17.9522ZM36.0511 17.9522L37.2991 11.7122C37.4911 10.5602 37.6991 9.37622 37.9231 8.16022C38.1471 6.94422 38.3551 5.74422 38.5471 4.56022C38.7551 3.37622 38.9151 2.26422 39.0271 1.22422C39.9391 0.936222 40.9231 0.728221 41.9791 0.600221C43.0351 0.456222 44.0831 0.384223 45.1231 0.384223C46.3391 0.384223 47.1631 0.648222 47.5951 1.17622C48.0431 1.70422 48.2671 2.41622 48.2671 3.31222C48.2671 4.12822 48.0751 4.95222 47.6911 5.78422C47.3071 6.60022 46.8031 7.34422 46.1791 8.01622C45.5711 8.67222 44.8991 9.19222 44.1631 9.57622C44.4511 10.2162 44.7551 10.9202 45.0751 11.6882C45.4111 12.4402 45.7231 13.1602 46.0111 13.8482C46.1711 14.2482 46.3311 14.6482 46.4911 15.0482C46.6671 15.4482 46.8351 15.8482 46.9951 16.2482L43.2751 17.5442L42.4111 14.6642C42.1711 13.8642 41.9471 13.0962 41.7391 12.3602C41.5471 11.6082 41.4351 11.0802 41.4031 10.7762L41.0911 10.8722C41.0431 11.1282 40.9871 11.4082 40.9231 11.7122C40.8751 12.0002 40.8191 12.3202 40.7551 12.6722C40.6911 13.0242 40.6271 13.3682 40.5631 13.7042C40.4991 14.0242 40.4351 14.3442 40.3711 14.6642L39.9391 16.9442L36.0511 17.9522ZM41.6911 7.53622C41.9791 7.50422 42.3311 7.38422 42.7471 7.17622C43.1791 6.95222 43.6031 6.68022 44.0191 6.36022C44.4511 6.04022 44.8111 5.71222 45.0991 5.37622C45.3871 5.04022 45.5311 4.74422 45.5311 4.48822C45.5311 4.16822 45.3391 3.96022 44.9551 3.86422C44.5871 3.75222 44.0991 3.69622 43.4911 3.69622H42.9631C42.8671 3.71222 42.7791 3.72022 42.6991 3.72022C42.6191 3.72022 42.5391 3.72022 42.4591 3.72022L41.6911 7.53622ZM55.3791 12.2162C54.4991 12.1842 53.6671 12.1602 52.8831 12.1442C52.1151 12.1282 51.4671 12.1202 50.9391 12.1202C50.4271 12.1202 49.8751 12.1362 49.2831 12.1682C48.6911 12.1842 48.1311 12.1922 47.6031 12.1922L48.7551 7.94422C49.4271 7.96022 50.0671 7.98422 50.6751 8.01622C51.2831 8.03222 51.7871 8.04022 52.1871 8.04022C52.7951 8.04022 53.4431 8.03222 54.1311 8.01622C54.8351 8.00022 55.5231 7.96822 56.1951 7.92022L55.3791 12.2162ZM59.2276 18.3602C58.7476 18.3602 58.2596 18.2562 57.7636 18.0482C57.2676 17.8402 56.8516 17.5202 56.5156 17.0882C56.1796 16.6562 56.0116 16.1042 56.0116 15.4322V15.2402C56.0116 15.1602 56.0196 15.0962 56.0356 15.0482C56.0836 14.6322 56.1476 14.0882 56.2276 13.4162C56.3236 12.7442 56.4356 12.0162 56.5636 11.2322C56.6916 10.4322 56.8196 9.64022 56.9476 8.85622C57.0916 8.07222 57.2196 7.36022 57.3316 6.72022C57.5716 5.44022 57.7636 4.40822 57.9076 3.62422C58.0516 2.84022 58.1636 2.24022 58.2436 1.82422C58.3396 1.39222 58.4116 1.07222 58.4596 0.864222C58.6356 0.848222 58.8196 0.832222 59.0116 0.816221C59.2196 0.784222 59.4356 0.760222 59.6596 0.744222C59.8836 0.712222 60.0996 0.688221 60.3076 0.672222C60.5316 0.656222 60.7476 0.640222 60.9556 0.624222L62.4196 0.480221C62.2116 1.45622 62.0116 2.38422 61.8196 3.26422C61.6436 4.12822 61.4756 4.95222 61.3156 5.73622L60.2116 11.0402C60.1156 11.4402 60.0436 11.7762 59.9956 12.0482C59.9316 12.3042 59.8596 12.6322 59.7796 13.0322C59.7156 13.4162 59.6836 13.7682 59.6836 14.0882C59.6836 14.3442 59.7476 14.5602 59.8756 14.7362C60.0036 14.8962 60.1636 14.9762 60.3556 14.9762C60.6276 14.9762 60.8516 14.8722 61.0276 14.6642C61.2036 14.4562 61.3476 14.2002 61.4596 13.8962C61.5716 13.5922 61.6596 13.2882 61.7236 12.9842C61.7876 12.6642 61.8436 12.4082 61.8916 12.2162C62.0516 11.4802 62.1956 10.7682 62.3236 10.0802C62.4676 9.37622 62.6116 8.63222 62.7556 7.84822C62.9156 7.06422 63.0916 6.16022 63.2836 5.13622C63.4116 4.43222 63.5396 3.72022 63.6676 3.00022C63.8116 2.26422 63.9476 1.52022 64.0756 0.768222L67.7236 0.528222C67.7236 0.528222 67.6516 0.912222 67.5076 1.68022C67.3636 2.44822 67.1556 3.60822 66.8836 5.16022C66.7716 5.75222 66.6436 6.41622 66.4996 7.15222C66.3716 7.88822 66.2276 8.63222 66.0676 9.38422C65.9076 10.1362 65.7556 10.8482 65.6116 11.5202C65.4836 12.1922 65.3636 12.7682 65.2516 13.2482C64.9316 14.5602 64.4356 15.5922 63.7636 16.3442C63.0916 17.0802 62.3476 17.6002 61.5316 17.9042C60.7316 18.2082 59.9636 18.3602 59.2276 18.3602ZM65.2503 17.9522C65.7303 15.7922 66.1863 13.6802 66.6183 11.6162C66.7943 10.7842 66.9703 9.89622 67.1463 8.95222C67.3383 7.99222 67.5303 7.02422 67.7223 6.04822C67.9143 5.07222 68.0903 4.15222 68.2503 3.28822C68.4103 2.40822 68.5383 1.64022 68.6343 0.984222C69.2743 0.792222 69.9623 0.616221 70.6983 0.456222C71.4503 0.296222 72.1223 0.216222 72.7143 0.216222C73.6743 0.216222 74.4343 0.424222 74.9943 0.840222C75.5543 1.24022 75.9543 1.78422 76.1943 2.47222C76.4343 3.16022 76.5543 3.91222 76.5543 4.72822C76.5543 5.62422 76.3863 6.48822 76.0503 7.32022C75.7303 8.13622 75.2903 8.87222 74.7303 9.52822C74.1863 10.1842 73.5543 10.7042 72.8343 11.0882C72.1303 11.4722 71.3943 11.6642 70.6263 11.6642H70.3623C70.2343 12.2082 70.1143 12.8002 70.0023 13.4402C69.8903 14.0802 69.7943 14.6722 69.7143 15.2162C69.6503 15.5362 69.5943 15.8562 69.5463 16.1762C69.4983 16.4962 69.4503 16.8162 69.4023 17.1362L65.2503 17.9522ZM70.8423 9.14422C71.2103 9.04822 71.5783 8.80822 71.9463 8.42422C72.3143 8.02422 72.6183 7.52022 72.8583 6.91222C73.0983 6.30422 73.2183 5.64022 73.2183 4.92022C73.2183 4.32822 73.0823 3.88022 72.8103 3.57622C72.5543 3.27222 72.2663 3.12022 71.9463 3.12022C71.7703 4.17622 71.5943 5.17622 71.4183 6.12022C71.2423 7.06422 71.0503 8.07222 70.8423 9.14422ZM76.48 12.3842C76.736 11.3922 76.984 10.4082 77.224 9.43222C77.464 8.45622 77.704 7.48022 77.944 6.50422C78.168 5.52822 78.4 4.55222 78.64 3.57622C78.896 2.58422 79.152 1.60022 79.408 0.624222C80.32 0.480222 81.152 0.360222 81.904 0.264221C82.656 0.168221 83.272 0.0802217 83.752 0.000221729C82.888 2.01622 82.096 4.04822 81.376 6.09622C80.672 8.12822 79.968 10.1762 79.264 12.2402C78.8 12.2402 78.336 12.2562 77.872 12.2882C77.408 12.3202 76.944 12.3522 76.48 12.3842ZM76.432 18.4802C75.952 18.4802 75.552 18.3602 75.232 18.1202C74.928 17.8962 74.696 17.6162 74.536 17.2802C74.392 16.9282 74.32 16.5762 74.32 16.2242C74.32 15.5842 74.528 15.0322 74.944 14.5682C75.376 14.0882 75.968 13.8482 76.72 13.8482C77.648 13.8482 78.344 14.0722 78.808 14.5202C79.272 14.9522 79.504 15.4482 79.504 16.0082C79.504 16.6482 79.24 17.2242 78.712 17.7362C78.184 18.2322 77.424 18.4802 76.432 18.4802Z" fill="white"/>
</svg>
