<svg width="24" height="24" viewBox="0 0 24 24" fill="none" xmlns="http://www.w3.org/2000/svg">
<path d="M7 22C7.83333 22 8.54167 21.7083 9.125 21.125C9.70833 20.5417 10 19.8333 10 19C10 18.9 9.975 18.6667 9.925 18.3L16.95 14.2C17.2167 14.45 17.525 14.6458 17.875 14.7875C18.225 14.9292 18.6 15 19 15C19.8333 15 20.5417 14.7083 21.125 14.125C21.7083 13.5417 22 12.8333 22 12C22 11.1667 21.7083 10.4583 21.125 9.875C20.5417 9.29167 19.8333 9 19 9C18.6 9 18.225 9.07083 17.875 9.2125C17.525 9.35417 17.2167 9.55 16.95 9.8L9.925 5.7C9.95833 5.58333 9.97917 5.47083 9.9875 5.3625C9.99583 5.25417 10 5.13333 10 5C10 4.16667 9.70833 3.45833 9.125 2.875C8.54167 2.29167 7.83333 2 7 2C6.16667 2 5.45833 2.29167 4.875 2.875C4.29167 3.45833 4 4.16667 4 5C4 5.83333 4.29167 6.54167 4.875 7.125C5.45833 7.70833 6.16667 8 7 8C7.4 8 7.775 7.92917 8.125 7.7875C8.475 7.64583 8.78333 7.45 9.05 7.2L16.075 11.3C16.0417 11.4167 16.0208 11.5292 16.0125 11.6375C16.0042 11.7458 16 11.8667 16 12C16 12.1333 16.0042 12.2542 16.0125 12.3625C16.0208 12.4708 16.0417 12.5833 16.075 12.7L9.05 16.8C8.78333 16.55 8.475 16.3542 8.125 16.2125C7.775 16.0708 7.4 16 7 16C6.16667 16 5.45833 16.2917 4.875 16.875C4.29167 17.4583 4 18.1667 4 19C4 19.8333 4.29167 20.5417 4.875 21.125C5.45833 21.7083 6.16667 22 7 22ZM7 20C6.71667 20 6.47917 19.9042 6.2875 19.7125C6.09583 19.5208 6 19.2833 6 19C6 18.7167 6.09583 18.4792 6.2875 18.2875C6.47917 18.0958 6.71667 18 7 18C7.28333 18 7.52083 18.0958 7.7125 18.2875C7.90417 18.4792 8 18.7167 8 19C8 19.2833 7.90417 19.5208 7.7125 19.7125C7.52083 19.9042 7.28333 20 7 20ZM19 13C18.7167 13 18.4792 12.9042 18.2875 12.7125C18.0958 12.5208 18 12.2833 18 12C18 11.7167 18.0958 11.4792 18.2875 11.2875C18.4792 11.0958 18.7167 11 19 11C19.2833 11 19.5208 11.0958 19.7125 11.2875C19.9042 11.4792 20 11.7167 20 12C20 12.2833 19.9042 12.5208 19.7125 12.7125C19.5208 12.9042 19.2833 13 19 13ZM7 6C6.71667 6 6.47917 5.90417 6.2875 5.7125C6.09583 5.52083 6 5.28333 6 5C6 4.71667 6.09583 4.47917 6.2875 4.2875C6.47917 4.09583 6.71667 4 7 4C7.28333 4 7.52083 4.09583 7.7125 4.2875C7.90417 4.47917 8 4.71667 8 5C8 5.28333 7.90417 5.52083 7.7125 5.7125C7.52083 5.90417 7.28333 6 7 6Z" fill="white"/>
</svg>
