 <svg
                width="152"
                height="119"
                viewBox="0 0 152 119"
                fill="none"
                xmlns="http://www.w3.org/2000/svg"
              >
                <rect
                  x="30.1465"
                  y="58.1664"
                  width="43.2751"
                  height="21.6376"
                  fill="#848588"
                />
                <path
                  d="M60.4395 68.609C64.4584 67.453 69.1073 66.7658 73.4033 67.5973C75.6857 68.0391 77.2639 69.1964 78.2471 70.8082C79.21 72.3869 79.5592 74.329 79.5615 76.3043C79.5661 80.2485 78.1876 84.6474 76.9336 87.4869L76.9014 87.5592L76.8564 87.6256C75.3825 89.7936 72.5708 93.0793 68.8789 95.9772C65.1905 98.8722 60.5564 101.433 55.4434 102.042C43.0033 103.522 27.0828 99.1097 19.6016 87.611C13.8048 78.701 10.0656 72.3975 8.91309 70.3453L8.24512 69.1559L9.60449 69.0416L26.9746 67.5846L26.9951 67.5826H27.0166C30.172 67.4708 35.1808 67.5841 39.9854 68.2897C42.388 68.6425 44.7625 69.1468 46.8379 69.8551C48.6421 70.4708 50.2767 71.259 51.5059 72.2809C53.5545 71.1323 56.7684 69.6649 60.4395 68.609Z"
                  fill="white"
                  stroke="#848588"
                  stroke-width="1.7544"
                />
                <path
                  d="M41.793 37.993C45.1774 37.9405 48.4857 39.0431 51.3652 41.8768C53.9878 39.1357 60.1994 36.0227 69.1699 39.8925C75.4453 42.5997 79.2179 49.2939 80.6465 55.4218C81.3644 58.5011 81.5135 61.5253 81.0527 63.9462C80.6013 66.3179 79.4976 68.3848 77.4629 69.0243C74.104 70.0796 69.5224 69.607 65.8135 68.661C63.9418 68.1836 62.2344 67.571 60.9512 66.9286C60.312 66.6086 59.7495 66.2674 59.3203 65.913C58.9643 65.6189 58.5856 65.2213 58.4326 64.7255C56.6642 65.3174 54.7129 65.8039 52.8193 65.9667C50.5621 66.1607 48.263 65.906 46.4785 64.6971L46.4619 64.6962L46.3984 64.6493C46.2677 64.6023 46.1522 64.5379 46.0527 64.4579C43.9865 65.6322 41.1277 67.1262 37.6592 68.4657C29.3616 71.6701 17.5206 74.021 4.68066 69.0048L3.41992 68.5126L4.38477 67.5624C6.26234 65.7139 9.19937 62.7511 11.9033 59.8739C14.6331 56.9692 17.0498 54.2295 17.9531 52.7968C18.6123 51.7513 20.3072 49.7922 22.6123 47.6591C24.9326 45.5118 27.9289 43.1339 31.2285 41.2753C34.5198 39.4213 38.1748 38.0494 41.793 37.993Z"
                  fill="white"
                  stroke="#848588"
                  stroke-width="1.7544"
                />
                <path
                  d="M114.148 2.95426C115.795 2.72077 117.741 3.35401 119.954 4.83116C122.304 6.39938 124.35 9.47977 126.081 13.3289C127.827 17.2105 129.31 22.0034 130.461 27.1515C132.247 35.1334 133.253 44.043 133.196 51.8475C133.624 49.7413 133.984 47.3038 134.239 44.7972C134.536 41.8815 134.692 38.8897 134.663 36.2398C134.633 33.5724 134.416 31.315 133.996 29.8327C133.081 26.6055 132.808 23.9558 133.421 22.0324C133.737 21.0416 134.292 20.2309 135.111 19.6611C135.92 19.0982 136.921 18.8157 138.059 18.7544C139.341 18.6853 140.75 19.1904 142.097 20.1326C143.455 21.0824 144.806 22.5136 145.996 24.4063C148.377 28.1958 150.141 33.8833 150.008 41.4789C149.875 49.0996 147.381 55.6064 145.285 61.8654C143.177 68.1606 141.452 74.2399 142.574 81.2606C144.981 96.317 141.563 105.988 134.77 111.34C128.033 116.648 118.239 117.486 108.359 115.51C98.4533 113.529 88.276 108.689 80.5942 102.381C72.9393 96.0961 67.601 88.2117 67.7423 80.1091C67.8285 75.1623 69.941 71.9192 72.8731 70.6903C72.2989 70.673 71.6798 70.6138 71.0059 70.5073C69.9929 70.3473 69.2032 69.8382 68.6784 69.0515C68.1728 68.2936 67.9534 67.3413 67.9171 66.3308C67.8447 64.3159 68.4885 61.7774 69.5768 59.1985C71.7506 54.0476 75.8884 48.3062 80.6057 45.708C86.4109 42.5106 92.4038 43.6315 97.1078 46.8504C100.775 49.3596 103.71 53.1711 105.25 57.3103C105.27 56.7679 105.265 56.1761 105.23 55.5382C105.105 53.272 104.631 50.5776 103.89 47.7871C102.404 42.1847 99.8886 36.3546 97.1357 32.9298C94.2228 29.3062 92.1142 25.3979 91.3823 21.8679C90.6476 18.324 91.287 14.9996 94.1152 12.9034C95.6251 11.7846 97.3486 11.7148 99.0263 12.278C100.671 12.8302 102.319 13.9985 103.85 15.4465C106.918 18.3488 109.746 22.5881 111.415 26.1679C112.872 29.294 114.427 33.0196 115.791 37.3309C115.775 37.2452 115.761 37.1589 115.745 37.0732C114.376 29.709 112.563 22.4275 111.111 18.0657C110.354 15.7932 109.905 13.4906 109.8 11.3963C109.696 9.315 109.929 7.3753 110.595 5.87029C111.272 4.33958 112.436 3.19719 114.148 2.95426ZM89.4432 60.6485C88.6193 60.1084 87.8102 59.9132 86.9377 60.1018C86.0303 60.2981 84.9313 60.9361 83.6144 62.3216C82.2597 63.7467 81.2388 65.0063 80.3596 66.0965C79.4933 67.1706 78.7275 68.13 77.9261 68.8718C77.3477 69.4073 76.7334 69.8416 76.0235 70.1543C78.8399 70.3108 81.6687 72.0849 83.4953 75.2531C85.5823 78.8729 87.6465 80.8636 89.4974 81.6839C91.2824 82.4751 92.9607 82.2205 94.5074 81.1022C95.9889 80.0308 96.8405 78.0886 96.884 75.595C96.9273 73.11 96.1572 70.18 94.5207 67.3416C93.6697 65.8657 92.8404 64.4746 91.9883 63.2978C91.1315 62.1146 90.292 61.205 89.4432 60.6485Z"
                  fill="white"
                  stroke="#848588"
                  stroke-width="1.7544"
                  stroke-linejoin="round"
                />
              </svg>