          <svg
            width="20"
            height="20"
            viewBox="0 0 20 20"
            fill="none"
            xmlns="http://www.w3.org/2000/svg"
          >
            <path
              d="M10.0061 9.88755C10.3761 9.88755 10.6909 9.75581 10.9505 9.49234C11.2102 9.22887 11.3401 8.91213 11.3401 8.54213C11.3401 8.17213 11.2083 7.85727 10.9447 7.59755C10.6812 7.33796 10.3645 7.20817 9.99445 7.20817C9.62445 7.20817 9.30966 7.33991 9.05008 7.60338C8.79036 7.86699 8.66049 8.1838 8.66049 8.5538C8.66049 8.9238 8.7923 9.23859 9.05591 9.49817C9.31938 9.75775 9.63612 9.88755 10.0061 9.88755ZM10.0003 16.1569C11.5889 14.7669 12.8261 13.4122 13.7117 12.0928C14.5974 10.7733 15.0403 9.60984 15.0403 8.60234C15.0403 7.13873 14.5646 5.92109 13.6132 4.94942C12.6618 3.97775 11.4575 3.49192 10.0003 3.49192C8.54306 3.49192 7.33876 3.97775 6.38737 4.94942C5.43598 5.92109 4.96029 7.13873 4.96029 8.60234C4.96029 9.60984 5.40313 10.7733 6.28883 12.0928C7.17452 13.4122 8.41167 14.7669 10.0003 16.1569ZM10.0003 17.5911C7.95904 15.8557 6.42813 14.2405 5.40758 12.7455C4.38716 11.2505 3.87695 9.86942 3.87695 8.60234C3.87695 6.9015 4.44688 5.44532 5.58674 4.2338C6.72674 3.02227 8.19445 2.4165 9.98987 2.4165C11.7853 2.4165 13.2565 3.02227 14.4034 4.2338C15.5502 5.44532 16.1236 6.9015 16.1236 8.60234C16.1236 9.86942 15.617 11.2474 14.6036 12.7363C13.5903 14.225 12.0558 15.8433 10.0003 17.5911Z"
              fill="#191919"
            />
          </svg>