<svg width="201" height="200" viewBox="0 0 201 200" fill="none" xmlns="http://www.w3.org/2000/svg">
<ellipse cx="101.137" cy="163.258" rx="49.6212" ry="14.7727" fill="#B3B7B9"/>
<path d="M69.7908 153.075C72.3461 151.366 75.8169 150.757 77.2535 150.757C79.0756 150.757 80.9961 148.782 80.9961 148.782L83.582 146.206L82.72 144.489L84.4439 141.054L89.6157 140.196H93.0635L95.6493 144.489L94.7874 147.064L96.5113 151.357L97.3732 156.509V157.368C97.3732 157.94 96.5113 157.646 96.5113 158.333C96.5113 159.02 95.9366 158.512 95.6493 159.085L82.72 166.666L68.9202 164.393L67.0262 160.605L66.1643 159.747C65.5896 158.888 67.0262 154.924 69.7908 153.075Z" fill="white"/>
<path d="M94.8139 147.015C95.668 148.14 97.3762 151.233 97.3762 154.608C97.3762 158.827 93.1655 161.364 89.3776 163.636C85.5897 165.909 79.2615 167.218 71.5746 165.53C63.8877 163.843 65.6997 156.296 67.4079 154.608C69.1161 152.921 72.5325 149.546 78.5112 151.233C83.2942 152.583 86.7675 155.733 87.9063 157.139" stroke="#B3B7B9" stroke-width="2.27273" stroke-linecap="round"/>
<path d="M78.3906 150.757C78.7063 150 81.4649 146.863 83.7376 146.257" stroke="#B3B7B9" stroke-width="2.27273"/>
<path d="M86.3794 148.529C82.1804 146.798 82.1805 142.469 84.6999 140.737C87.2192 139.006 91.4182 139.006 93.9376 140.737C96.4569 142.469 97.2967 146.798 91.4182 148.529" stroke="#B3B7B9" stroke-width="2.27273" stroke-linecap="round"/>
<path d="M89.3848 108.09C89.3848 109.814 88.0268 123.605 89.3848 141.707" stroke="#B3B7B9" stroke-width="9.09091" stroke-linecap="round"/>
<path d="M137.483 156.44C136.104 153.681 129.829 153.031 128.392 153.031C126.57 153.031 125.741 151.137 125.741 151.137L122.214 149.047L123.076 147.323L121.352 143.875L116.18 143.013H112.732L110.146 147.323L111.008 149.909L109.284 154.219L108.423 159.39C108.423 159.39 111.845 163.258 112.732 164.015C113.619 164.773 119.301 167.803 119.301 167.803H132.559L137.483 166.667L140.134 161.743C140.709 160.881 138.862 159.198 137.483 156.44Z" fill="white"/>
<path d="M111.008 149.908C110.146 151.057 108.422 154.218 108.422 157.666C108.422 161.976 114.461 165.423 117.449 166.285C120.437 167.147 126.93 168.871 134.688 167.147C142.446 165.423 139.755 159.091 138.998 157.666C138.24 156.241 134.047 152.064 128.013 153.787C123.186 155.167 119.46 158.815 118.311 160.252" stroke="#B3B7B9" stroke-width="2.27273" stroke-linecap="round"/>
<path d="M127.254 153.409C127.254 151.515 125.535 149.932 123.466 149.243" stroke="#B3B7B9" stroke-width="2.27273" stroke-linecap="round"/>
<path d="M119.629 151.633C123.938 149.909 123.938 145.599 121.352 143.875C118.767 142.151 114.457 142.151 111.871 143.875C109.285 145.599 108.423 149.909 114.457 151.633" stroke="#B3B7B9" stroke-width="2.27273" stroke-linecap="round"/>
<path d="M115.029 106.114C115.029 107.838 117.865 126.635 116.507 144.736" stroke="#B3B7B9" stroke-width="9.09091" stroke-linecap="round"/>
<path d="M140.594 106.476L136.048 106.476C136.048 108.227 137.054 109.823 138.635 110.578C140.215 111.332 142.088 111.112 143.45 110.012L140.594 106.476ZM162.46 93.7356C164.297 92.0249 164.4 89.1487 162.689 87.3115C160.978 85.4742 158.102 85.3716 156.265 87.0823L159.362 90.4089L162.46 93.7356ZM140.594 84.2949L136.048 84.2949L136.048 106.476L140.594 106.476L145.139 106.476L145.139 84.2949L140.594 84.2949ZM140.594 106.476C143.45 110.012 143.45 110.012 143.451 110.012C143.451 110.012 143.451 110.011 143.451 110.011C143.452 110.011 143.452 110.01 143.453 110.01C143.455 110.008 143.457 110.006 143.46 110.004C143.466 109.999 143.475 109.992 143.486 109.983C143.509 109.965 143.542 109.937 143.586 109.902C143.673 109.831 143.802 109.727 143.967 109.592C144.298 109.323 144.778 108.932 145.376 108.442C146.572 107.461 148.243 106.083 150.145 104.489C153.935 101.314 158.701 97.2354 162.46 93.7356L159.362 90.4089L156.265 87.0823C152.686 90.415 148.067 94.3702 144.307 97.5205C142.435 99.0893 140.789 100.447 139.613 101.411C139.025 101.893 138.554 102.277 138.231 102.539C138.07 102.671 137.946 102.772 137.862 102.839C137.82 102.873 137.789 102.899 137.768 102.916C137.757 102.924 137.749 102.931 137.744 102.935C137.742 102.937 137.74 102.938 137.739 102.939C137.738 102.94 137.738 102.94 137.737 102.94C137.737 102.94 137.737 102.94 137.737 102.94C137.737 102.94 137.737 102.94 140.594 106.476Z" fill="#B3B7B9"/>
<path d="M64.6418 108.951L69.1568 108.426C69.3613 110.183 68.5276 111.9 67.0198 112.825C65.5121 113.751 63.6043 113.717 62.1298 112.74L64.6418 108.951ZM41.5685 98.9081C39.4992 97.4869 38.9738 94.6572 40.395 92.5879C41.8163 90.5186 44.6459 89.9932 46.7153 91.4144L44.1419 95.1613L41.5685 98.9081ZM62.0781 86.9189L66.5931 86.3936L69.1568 108.426L64.6418 108.951L60.1268 109.477L57.5631 87.4443L62.0781 86.9189ZM64.6418 108.951C62.1298 112.74 62.1298 112.74 62.1297 112.74C62.1296 112.74 62.1294 112.739 62.1292 112.739C62.1288 112.739 62.1282 112.739 62.1274 112.738C62.1259 112.737 62.1236 112.736 62.1206 112.734C62.1146 112.73 62.1057 112.724 62.0939 112.716C62.0703 112.7 62.0353 112.677 61.9894 112.647C61.8975 112.586 61.7619 112.496 61.5864 112.379C61.2355 112.146 60.7253 111.807 60.0873 111.382C58.8113 110.533 57.0235 109.341 54.9759 107.971C50.8843 105.234 45.7409 101.774 41.5685 98.9081L44.1419 95.1613L46.7153 91.4144C50.8409 94.248 55.9474 97.6832 60.0314 100.416C62.0714 101.781 63.8528 102.968 65.1239 103.814C65.7595 104.237 66.2674 104.575 66.6162 104.806C66.7906 104.922 66.9252 105.011 67.0161 105.072C67.0616 105.102 67.0961 105.125 67.1192 105.14C67.1308 105.148 67.1395 105.154 67.1453 105.157C67.1481 105.159 67.1503 105.161 67.1517 105.162C67.1524 105.162 67.153 105.163 67.1533 105.163C67.1535 105.163 67.1536 105.163 67.1537 105.163C67.1538 105.163 67.1538 105.163 64.6418 108.951Z" fill="#B3B7B9"/>
<path d="M42.5381 98.873C38.6715 100.01 36.7908 97.1847 36.3338 95.6302L47.0926 88.8482C47.7831 88.6452 49.3599 88.9055 50.1434 91.5705C51.1227 94.9018 47.3715 97.4522 42.5381 98.873Z" fill="white" stroke="#B3B7B9" stroke-width="2.27273" stroke-linecap="round" stroke-linejoin="round"/>
<path d="M37.4933 71.6244C33.7774 74.2089 34.4024 78.6572 34.1195 80.2325L31.2068 83.1713C29.6183 81.1514 23.6558 77.3336 18.0661 76.5894C12.4765 75.8451 10.2442 77.894 9.82671 79.0115C7.92843 79.3209 4.19643 80.6667 4.45465 83.5751C4.77742 87.2105 8.00863 85.5145 16.0861 87.6164C24.1635 89.7183 27.8384 94.6065 32.5638 95.4556C37.2891 96.3047 40.0944 95.6975 42.3946 94.618C44.6947 93.5384 47.6771 92.2779 48.1393 88.5976C48.6016 84.9172 44.7085 80.943 43.0661 80.4311L41.1682 76.5126C42.5685 75.3549 44.9234 73.5713 44.2786 71.8679C43.6337 70.1645 41.2093 69.0399 37.4933 71.6244Z" fill="white" stroke="#B3B7B9" stroke-width="2.27273" stroke-linecap="round" stroke-linejoin="round"/>
<path d="M41.4601 87.5507C41.2464 86.8238 39.9644 82.4629 31.5421 83.3596" stroke="#B3B7B9" stroke-width="2.27273" stroke-linecap="round" stroke-linejoin="round"/>
<path d="M9.98195 78.7548C9.57881 79.8642 10.1306 81.8122 12.7613 82.8225C16.0496 84.0854 18.9477 83.6741 23.5106 86.7918" stroke="#B3B7B9" stroke-width="2.27273" stroke-linecap="round" stroke-linejoin="round"/>
<path d="M133.695 49.2604C146.42 67.5891 145.697 70.3768 153.333 76.2893C141.88 85.158 131.015 108.217 101.158 108.217C67.4345 108.217 64.5297 89.888 47.9863 76.2893C56.8943 65.6468 51.6257 66.4066 64.9876 49.2604C78.3496 32.1141 94.0771 39.4063 98.9553 46.3042C104.682 39.4063 120.969 30.9316 133.695 49.2604Z" fill="white" stroke="#B3B7B9" stroke-width="3.78788" stroke-linecap="round"/>
<path d="M106.773 66.4092C112.437 73.9751 123.869 74.94 136.542 76.6431C116.36 76.6431 105.356 76.0813 98.4409 82.2693C92.7386 76.6431 77.5767 77.4494 63.709 76.6431C80.0833 77.5951 84.691 71.6538 90.3616 66.4092C97.4064 70.9787 104.948 68.3132 106.773 66.4092Z" fill="#B3B7B9"/>
<path d="M151.419 42.2088C151.403 38.5578 152.305 37.4237 153.967 36.3361C155.35 35.435 156.406 34.6582 156.422 33.3842C156.406 32.2346 155.49 31.4577 154.34 31.4577C153.112 31.4577 152.072 32.3588 152.04 33.695H146.572C146.634 28.9253 150.145 26.8901 154.371 26.8901C159.032 26.8901 162.45 28.9719 162.45 33.0735C162.45 35.7302 161.005 37.2994 158.876 38.5423C157.276 39.5055 156.453 40.3911 156.453 42.2088V42.706H151.419V42.2088ZM150.984 47.025C150.968 45.3782 152.336 44.0421 153.998 44.0421C155.583 44.0421 156.997 45.3782 157.012 47.025C156.997 48.7029 155.583 50.0391 153.998 50.0391C152.336 50.0391 150.968 48.7029 150.984 47.025Z" fill="#B3B7B9"/>
<path d="M162.505 93.801C166.457 94.5944 168.083 91.6154 168.401 90.0267L157.09 84.2141C156.384 84.0724 154.836 84.4699 154.289 87.1934C153.606 90.5976 157.566 92.8094 162.505 93.801Z" fill="white" stroke="#B3B7B9" stroke-width="2.27273" stroke-linecap="round" stroke-linejoin="round"/>
<path d="M165.141 66.214C169.069 68.4628 168.837 72.9488 169.256 74.4932L172.416 77.1654C173.821 75.014 179.426 70.6882 184.929 69.4568C190.432 68.2254 192.835 70.0707 193.349 71.1473C195.267 71.289 199.102 72.3024 199.1 75.2223C199.097 78.872 195.73 77.4659 187.868 80.2678C180.006 83.0697 176.774 88.2612 172.141 89.5213C167.508 90.7814 164.66 90.4225 162.274 89.5488C159.889 88.675 156.807 87.6809 156.024 84.0552C155.241 80.4295 158.771 76.1293 160.362 75.4754L161.909 71.4056C160.413 70.3751 157.91 68.8049 158.403 67.0515C158.896 65.2981 161.213 63.9652 165.141 66.214Z" fill="white" stroke="#B3B7B9" stroke-width="2.27273" stroke-linecap="round" stroke-linejoin="round"/>
<path d="M162.59 82.4275C162.739 81.6847 163.633 77.2282 172.102 77.383" stroke="#B3B7B9" stroke-width="2.27273" stroke-linecap="round" stroke-linejoin="round"/>
<path d="M193.171 70.9051C193.67 71.9749 193.291 73.9638 190.759 75.2008C187.594 76.7471 184.671 76.5915 180.399 80.0972" stroke="#B3B7B9" stroke-width="2.27273" stroke-linecap="round" stroke-linejoin="round"/>
</svg>
