<svg width="91" height="16" viewBox="0 0 91 16" fill="none" xmlns="http://www.w3.org/2000/svg">
<g filter="url(#filter0_d_538_4634)">
<path d="M1.06832 13.898C1.56699 12.3793 2.04299 10.9003 2.49632 9.461C2.68899 8.87167 2.88732 8.24267 3.09132 7.574C3.29532 6.90533 3.49932 6.23667 3.70332 5.568C3.90732 4.888 4.09999 4.23633 4.28132 3.613C4.46265 2.98967 4.61565 2.43433 4.74032 1.947C5.36365 1.947 5.95299 1.913 6.50832 1.845C6.79165 1.811 7.08065 1.777 7.37532 1.743C7.68132 1.709 7.99299 1.68067 8.31032 1.658L8.20832 2.491C8.18565 2.64967 8.16299 2.814 8.14032 2.984C8.11765 3.14267 8.09499 3.307 8.07232 3.477C8.04965 3.647 8.02132 3.82267 7.98732 4.004C7.95332 4.174 7.92499 4.34967 7.90232 4.531C7.85699 4.88233 7.78899 5.37533 7.69832 6.01C7.60765 6.63333 7.49999 7.31333 7.37532 8.05H7.59632C7.92499 7.18867 8.19699 6.47467 8.41232 5.908C8.62765 5.33 8.80332 4.85967 8.93932 4.497C9.13199 3.96433 9.34165 3.426 9.56832 2.882C9.79499 2.338 9.98199 1.91867 10.1293 1.624C10.4013 1.60133 10.7243 1.56733 11.0983 1.522C11.4837 1.46533 11.869 1.403 12.2543 1.335C12.651 1.267 12.991 1.21033 13.2743 1.165C13.1157 2.117 12.9683 3.08033 12.8323 4.055C12.7077 5.01833 12.5943 5.942 12.4923 6.826C12.4017 7.69867 12.3223 8.48633 12.2543 9.189C12.1863 9.89167 12.124 10.5887 12.0673 11.28C12.0107 11.96 11.954 12.6343 11.8973 13.303L8.93932 13.83C8.93932 13.8073 8.95632 13.5523 8.99032 13.065C9.02432 12.5777 9.08099 11.9713 9.16032 11.246C9.23965 10.5207 9.31899 9.835 9.39832 9.189C9.47765 8.53167 9.55699 7.99333 9.63632 7.574H9.48332C9.19999 8.43533 8.85432 9.376 8.44632 10.396C8.04965 11.416 7.65865 12.5437 7.27332 13.779C6.87665 13.7903 6.53665 13.8073 6.25332 13.83C5.96999 13.8413 5.64132 13.8583 5.26732 13.881L5.81132 7.574H5.55632C5.54499 7.69867 5.49399 7.94233 5.40332 8.305C5.31265 8.65633 5.20499 9.06433 5.08032 9.529C4.95565 9.98233 4.82532 10.4357 4.68932 10.889C4.17932 12.6683 3.90732 13.609 3.87332 13.711L1.06832 13.898ZM17.3567 13.966C17.3794 13.7733 17.402 13.5863 17.4247 13.405C17.4474 13.2237 17.47 13.0423 17.4927 12.861L17.5947 11.909C17.606 11.7503 17.6174 11.603 17.6287 11.467C17.64 11.331 17.6514 11.2063 17.6627 11.093H16.1837L15.5037 13.541C15.2544 13.575 14.9597 13.6147 14.6197 13.66C14.2797 13.694 13.9624 13.728 13.6677 13.762C13.4864 13.7847 13.305 13.8073 13.1237 13.83C12.9537 13.8527 12.778 13.8753 12.5967 13.898L13.9397 9.444C14.0984 8.91133 14.2797 8.305 14.4837 7.625C14.6877 6.945 14.8917 6.248 15.0957 5.534C15.311 4.82 15.5094 4.15133 15.6907 3.528C15.8834 2.89333 16.0364 2.36067 16.1497 1.93C16.9204 1.87333 17.7024 1.80533 18.4957 1.726C19.3004 1.64667 20.0824 1.539 20.8417 1.403C20.785 2.03767 20.7284 2.75733 20.6717 3.562C20.6264 4.35533 20.581 5.177 20.5357 6.027C20.5017 6.877 20.462 7.71567 20.4167 8.543C20.394 9.325 20.3657 10.1353 20.3317 10.974C20.2977 11.8013 20.2637 12.6513 20.2297 13.524C20.0597 13.5467 19.8897 13.5693 19.7197 13.592C19.5497 13.6147 19.3797 13.6373 19.2097 13.66C18.9264 13.7053 18.6147 13.7563 18.2747 13.813C17.9347 13.8697 17.6287 13.9207 17.3567 13.966ZM16.5917 9.393C16.6597 9.393 16.7844 9.38733 16.9657 9.376C17.1584 9.36467 17.3397 9.35333 17.5097 9.342C17.6797 9.33067 17.7817 9.325 17.8157 9.325C17.8157 9.17767 17.8384 8.87733 17.8837 8.424C17.929 7.97067 17.9744 7.49467 18.0197 6.996C18.0424 6.70133 18.065 6.401 18.0877 6.095C18.1217 5.77767 18.1557 5.45467 18.1897 5.126L18.2917 3.647L18.0367 3.664L17.6457 5.126L16.5917 9.393ZM20.6482 13.898C21.1469 12.3793 21.6229 10.9003 22.0762 9.461C22.2689 8.87167 22.4672 8.24267 22.6712 7.574C22.8752 6.90533 23.0792 6.23667 23.2832 5.568C23.4872 4.888 23.6799 4.23633 23.8612 3.613C24.0425 2.98967 24.1955 2.43433 24.3202 1.947C24.9435 1.947 25.5329 1.913 26.0882 1.845C26.3715 1.811 26.6605 1.777 26.9552 1.743C27.2612 1.709 27.5729 1.68067 27.8902 1.658L27.7882 2.491C27.7655 2.64967 27.7429 2.814 27.7202 2.984C27.6975 3.14267 27.6749 3.307 27.6522 3.477C27.6295 3.647 27.6012 3.82267 27.5672 4.004C27.5332 4.174 27.5049 4.34967 27.4822 4.531C27.4369 4.88233 27.3689 5.37533 27.2782 6.01C27.1875 6.63333 27.0799 7.31333 26.9552 8.05H27.1762C27.5049 7.18867 27.7769 6.47467 27.9922 5.908C28.2075 5.33 28.3832 4.85967 28.5192 4.497C28.7119 3.96433 28.9215 3.426 29.1482 2.882C29.3749 2.338 29.5619 1.91867 29.7092 1.624C29.9812 1.60133 30.3042 1.56733 30.6782 1.522C31.0635 1.46533 31.4489 1.403 31.8342 1.335C32.2309 1.267 32.5709 1.21033 32.8542 1.165C32.6955 2.117 32.5482 3.08033 32.4122 4.055C32.2875 5.01833 32.1742 5.942 32.0722 6.826C31.9815 7.69867 31.9022 8.48633 31.8342 9.189C31.7662 9.89167 31.7039 10.5887 31.6472 11.28C31.5905 11.96 31.5339 12.6343 31.4772 13.303L28.5192 13.83C28.5192 13.8073 28.5362 13.5523 28.5702 13.065C28.6042 12.5777 28.6609 11.9713 28.7402 11.246C28.8195 10.5207 28.8989 9.835 28.9782 9.189C29.0575 8.53167 29.1369 7.99333 29.2162 7.574H29.0632C28.7799 8.43533 28.4342 9.376 28.0262 10.396C27.6295 11.416 27.2385 12.5437 26.8532 13.779C26.4565 13.7903 26.1165 13.8073 25.8332 13.83C25.5499 13.8413 25.2212 13.8583 24.8472 13.881L25.3912 7.574H25.1362C25.1249 7.69867 25.0739 7.94233 24.9832 8.305C24.8925 8.65633 24.7849 9.06433 24.6602 9.529C24.5355 9.98233 24.4052 10.4357 24.2692 10.889C23.7592 12.6683 23.4872 13.609 23.4532 13.711L20.6482 13.898ZM32.0236 13.898C32.5223 12.3793 32.9983 10.9003 33.4516 9.461C33.6443 8.87167 33.8426 8.24267 34.0466 7.574C34.2506 6.90533 34.4546 6.23667 34.6586 5.568C34.8626 4.888 35.0553 4.23633 35.2366 3.613C35.4179 2.98967 35.5709 2.43433 35.6956 1.947C36.3189 1.947 36.9083 1.913 37.4636 1.845C37.7469 1.811 38.0359 1.777 38.3306 1.743C38.6366 1.709 38.9483 1.68067 39.2656 1.658L39.1636 2.491C39.1409 2.64967 39.1183 2.814 39.0956 2.984C39.0729 3.14267 39.0503 3.307 39.0276 3.477C39.0049 3.647 38.9766 3.82267 38.9426 4.004C38.9086 4.174 38.8803 4.34967 38.8576 4.531C38.8123 4.88233 38.7443 5.37533 38.6536 6.01C38.5629 6.63333 38.4553 7.31333 38.3306 8.05H38.5516C38.8803 7.18867 39.1523 6.47467 39.3676 5.908C39.5829 5.33 39.7586 4.85967 39.8946 4.497C40.0873 3.96433 40.2969 3.426 40.5236 2.882C40.7503 2.338 40.9373 1.91867 41.0846 1.624C41.3566 1.60133 41.6796 1.56733 42.0536 1.522C42.4389 1.46533 42.8243 1.403 43.2096 1.335C43.6063 1.267 43.9463 1.21033 44.2296 1.165C44.0709 2.117 43.9236 3.08033 43.7876 4.055C43.6629 5.01833 43.5496 5.942 43.4476 6.826C43.3569 7.69867 43.2776 8.48633 43.2096 9.189C43.1416 9.89167 43.0793 10.5887 43.0226 11.28C42.9659 11.96 42.9093 12.6343 42.8526 13.303L39.8946 13.83C39.8946 13.8073 39.9116 13.5523 39.9456 13.065C39.9796 12.5777 40.0363 11.9713 40.1156 11.246C40.1949 10.5207 40.2743 9.835 40.3536 9.189C40.4329 8.53167 40.5123 7.99333 40.5916 7.574H40.4386C40.1553 8.43533 39.8096 9.376 39.4016 10.396C39.0049 11.416 38.6139 12.5437 38.2286 13.779C37.8319 13.7903 37.4919 13.8073 37.2086 13.83C36.9253 13.8413 36.5966 13.8583 36.2226 13.881L36.7666 7.574H36.5116C36.5003 7.69867 36.4493 7.94233 36.3586 8.305C36.2679 8.65633 36.1603 9.06433 36.0356 9.529C35.9109 9.98233 35.7806 10.4357 35.6446 10.889C35.1346 12.6683 34.8626 13.609 34.8286 13.711L32.0236 13.898ZM48.312 13.966C48.3347 13.7733 48.3573 13.5863 48.38 13.405C48.4027 13.2237 48.4253 13.0423 48.448 12.861L48.55 11.909C48.5613 11.7503 48.5727 11.603 48.584 11.467C48.5953 11.331 48.6067 11.2063 48.618 11.093H47.139L46.459 13.541C46.2097 13.575 45.915 13.6147 45.575 13.66C45.235 13.694 44.9177 13.728 44.623 13.762C44.4417 13.7847 44.2603 13.8073 44.079 13.83C43.909 13.8527 43.7333 13.8753 43.552 13.898L44.895 9.444C45.0537 8.91133 45.235 8.305 45.439 7.625C45.643 6.945 45.847 6.248 46.051 5.534C46.2663 4.82 46.4647 4.15133 46.646 3.528C46.8387 2.89333 46.9917 2.36067 47.105 1.93C47.8757 1.87333 48.6577 1.80533 49.451 1.726C50.2557 1.64667 51.0377 1.539 51.797 1.403C51.7403 2.03767 51.6837 2.75733 51.627 3.562C51.5817 4.35533 51.5363 5.177 51.491 6.027C51.457 6.877 51.4173 7.71567 51.372 8.543C51.3493 9.325 51.321 10.1353 51.287 10.974C51.253 11.8013 51.219 12.6513 51.185 13.524C51.015 13.5467 50.845 13.5693 50.675 13.592C50.505 13.6147 50.335 13.6373 50.165 13.66C49.8817 13.7053 49.57 13.7563 49.23 13.813C48.89 13.8697 48.584 13.9207 48.312 13.966ZM47.547 9.393C47.615 9.393 47.7397 9.38733 47.921 9.376C48.1137 9.36467 48.295 9.35333 48.465 9.342C48.635 9.33067 48.737 9.325 48.771 9.325C48.771 9.17767 48.7937 8.87733 48.839 8.424C48.8843 7.97067 48.9297 7.49467 48.975 6.996C48.9977 6.70133 49.0203 6.401 49.043 6.095C49.077 5.77767 49.111 5.45467 49.145 5.126L49.247 3.647L48.992 3.664L48.601 5.126L47.547 9.393ZM58.3185 9.954C57.6951 9.93133 57.1058 9.91433 56.5505 9.903C56.0065 9.89167 55.5475 9.886 55.1735 9.886C54.8108 9.886 54.4198 9.89733 54.0005 9.92C53.5811 9.93133 53.1845 9.937 52.8105 9.937L53.6265 6.928C54.1025 6.93933 54.5558 6.95633 54.9865 6.979C55.4171 6.99033 55.7741 6.996 56.0575 6.996C56.4881 6.996 56.9471 6.99033 57.4345 6.979C57.9331 6.96767 58.4205 6.945 58.8965 6.911L58.3185 9.954ZM58.5795 13.898C59.0781 12.3793 59.5541 10.9003 60.0075 9.461C60.2001 8.87167 60.3985 8.24267 60.6025 7.574C60.8065 6.90533 61.0105 6.23667 61.2145 5.568C61.4185 4.888 61.6111 4.23633 61.7925 3.613C61.9738 2.98967 62.1268 2.43433 62.2515 1.947C62.8748 1.947 63.4641 1.913 64.0195 1.845C64.3028 1.811 64.5918 1.777 64.8865 1.743C65.1925 1.709 65.5041 1.68067 65.8215 1.658L65.7195 2.491C65.6968 2.64967 65.6741 2.814 65.6515 2.984C65.6288 3.14267 65.6061 3.307 65.5835 3.477C65.5608 3.647 65.5325 3.82267 65.4985 4.004C65.4645 4.174 65.4361 4.34967 65.4135 4.531C65.3681 4.88233 65.3001 5.37533 65.2095 6.01C65.1188 6.63333 65.0111 7.31333 64.8865 8.05H65.1075C65.4361 7.18867 65.7081 6.47467 65.9235 5.908C66.1388 5.33 66.3145 4.85967 66.4505 4.497C66.6431 3.96433 66.8528 3.426 67.0795 2.882C67.3061 2.338 67.4931 1.91867 67.6405 1.624C67.9125 1.60133 68.2355 1.56733 68.6095 1.522C68.9948 1.46533 69.3801 1.403 69.7655 1.335C70.1621 1.267 70.5021 1.21033 70.7855 1.165C70.6268 2.117 70.4795 3.08033 70.3435 4.055C70.2188 5.01833 70.1055 5.942 70.0035 6.826C69.9128 7.69867 69.8335 8.48633 69.7655 9.189C69.6975 9.89167 69.6351 10.5887 69.5785 11.28C69.5218 11.96 69.4651 12.6343 69.4085 13.303L66.4505 13.83C66.4505 13.8073 66.4675 13.5523 66.5015 13.065C66.5355 12.5777 66.5921 11.9713 66.6715 11.246C66.7508 10.5207 66.8301 9.835 66.9095 9.189C66.9888 8.53167 67.0681 7.99333 67.1475 7.574H66.9945C66.7111 8.43533 66.3655 9.376 65.9575 10.396C65.5608 11.416 65.1698 12.5437 64.7845 13.779C64.3878 13.7903 64.0478 13.8073 63.7645 13.83C63.4811 13.8413 63.1525 13.8583 62.7785 13.881L63.3225 7.574H63.0675C63.0561 7.69867 63.0051 7.94233 62.9145 8.305C62.8238 8.65633 62.7161 9.06433 62.5915 9.529C62.4668 9.98233 62.3365 10.4357 62.2005 10.889C61.6905 12.6683 61.4185 13.609 61.3845 13.711L58.5795 13.898ZM70.5498 13.983C70.7085 13.3257 70.8672 12.5833 71.0258 11.756C71.1845 10.9173 71.3432 10.0503 71.5018 9.155C71.6605 8.25967 71.8078 7.39833 71.9438 6.571C72.0685 5.84567 72.1875 5.109 72.3008 4.361C72.4255 3.613 72.5445 2.85933 72.6578 2.1L75.3098 1.675L74.5448 6.146C74.3748 7.2 74.2218 8.14633 74.0858 8.985C73.9612 9.82367 73.8365 10.617 73.7118 11.365C73.5985 12.113 73.4795 12.878 73.3548 13.66C73.1395 13.66 72.8788 13.677 72.5728 13.711C72.2668 13.7337 71.9608 13.7677 71.6548 13.813C71.3488 13.847 71.0882 13.881 70.8728 13.915C70.6688 13.949 70.5612 13.9717 70.5498 13.983ZM79.1544 13.966C79.177 13.7733 79.1997 13.5863 79.2224 13.405C79.245 13.2237 79.2677 13.0423 79.2904 12.861L79.3924 11.909C79.4037 11.7503 79.415 11.603 79.4264 11.467C79.4377 11.331 79.449 11.2063 79.4604 11.093H77.9814L77.3014 13.541C77.052 13.575 76.7574 13.6147 76.4174 13.66C76.0774 13.694 75.76 13.728 75.4654 13.762C75.284 13.7847 75.1027 13.8073 74.9214 13.83C74.7514 13.8527 74.5757 13.8753 74.3944 13.898L75.7374 9.444C75.896 8.91133 76.0774 8.305 76.2814 7.625C76.4854 6.945 76.6894 6.248 76.8934 5.534C77.1087 4.82 77.307 4.15133 77.4884 3.528C77.681 2.89333 77.834 2.36067 77.9474 1.93C78.718 1.87333 79.5 1.80533 80.2934 1.726C81.098 1.64667 81.88 1.539 82.6394 1.403C82.5827 2.03767 82.526 2.75733 82.4694 3.562C82.424 4.35533 82.3787 5.177 82.3334 6.027C82.2994 6.877 82.2597 7.71567 82.2144 8.543C82.1917 9.325 82.1634 10.1353 82.1294 10.974C82.0954 11.8013 82.0614 12.6513 82.0274 13.524C81.8574 13.5467 81.6874 13.5693 81.5174 13.592C81.3474 13.6147 81.1774 13.6373 81.0074 13.66C80.724 13.7053 80.4124 13.7563 80.0724 13.813C79.7324 13.8697 79.4264 13.9207 79.1544 13.966ZM78.3894 9.393C78.4574 9.393 78.582 9.38733 78.7634 9.376C78.956 9.36467 79.1374 9.35333 79.3074 9.342C79.4774 9.33067 79.5794 9.325 79.6134 9.325C79.6134 9.17767 79.636 8.87733 79.6814 8.424C79.7267 7.97067 79.772 7.49467 79.8174 6.996C79.84 6.70133 79.8627 6.401 79.8854 6.095C79.9194 5.77767 79.9534 5.45467 79.9874 5.126L80.0894 3.647L79.8344 3.664L79.4434 5.126L78.3894 9.393ZM84.4179 10.073C84.5992 9.37033 84.7749 8.67333 84.9449 7.982C85.1149 7.29067 85.2849 6.59933 85.4549 5.908C85.6135 5.21667 85.7779 4.52533 85.9479 3.834C86.1292 3.13133 86.3105 2.43433 86.4919 1.743C87.1379 1.641 87.7272 1.556 88.2599 1.488C88.7925 1.42 89.2289 1.35767 89.5689 1.301C88.9569 2.729 88.3959 4.16833 87.8859 5.619C87.3872 7.05833 86.8885 8.509 86.3899 9.971C86.0612 9.971 85.7325 9.98233 85.4039 10.005C85.0752 10.0277 84.7465 10.0503 84.4179 10.073ZM84.3839 14.391C84.0439 14.391 83.7605 14.306 83.5339 14.136C83.3185 13.9773 83.1542 13.779 83.0409 13.541C82.9389 13.2917 82.8879 13.0423 82.8879 12.793C82.8879 12.3397 83.0352 11.9487 83.3299 11.62C83.6359 11.28 84.0552 11.11 84.5879 11.11C85.2452 11.11 85.7382 11.2687 86.0669 11.586C86.3955 11.892 86.5599 12.2433 86.5599 12.64C86.5599 13.0933 86.3729 13.5013 85.9989 13.864C85.6249 14.2153 85.0865 14.391 84.3839 14.391Z" fill="white"/>
</g>
<defs>
<filter id="filter0_d_538_4634" x="0.0683594" y="0.164978" width="90.501" height="15.226" filterUnits="userSpaceOnUse" color-interpolation-filters="sRGB">
<feFlood flood-opacity="0" result="BackgroundImageFix"/>
<feColorMatrix in="SourceAlpha" type="matrix" values="0 0 0 0 0 0 0 0 0 0 0 0 0 0 0 0 0 0 127 0" result="hardAlpha"/>
<feOffset/>
<feGaussianBlur stdDeviation="0.5"/>
<feComposite in2="hardAlpha" operator="out"/>
<feColorMatrix type="matrix" values="0 0 0 0 0 0 0 0 0 0 0 0 0 0 0 0 0 0 0.25 0"/>
<feBlend mode="normal" in2="BackgroundImageFix" result="effect1_dropShadow_538_4634"/>
<feBlend mode="normal" in="SourceGraphic" in2="effect1_dropShadow_538_4634" result="shape"/>
</filter>
</defs>
</svg>
