<svg width="20" height="20" viewBox="0 0 20 20" fill="none" xmlns="http://www.w3.org/2000/svg">
<path d="M12.3333 17L7.66667 15.3667L4.05 16.7667C3.79074 16.8704 3.55093 16.8412 3.33056 16.6792C3.11019 16.5171 3 16.3 3 16.0278V5.13889C3 4.97037 3.04861 4.8213 3.14583 4.69167C3.24306 4.56204 3.37593 4.46481 3.54444 4.4L7.66667 3L12.3333 4.63333L15.95 3.23333C16.2093 3.12963 16.4491 3.1588 16.6694 3.32083C16.8898 3.48287 17 3.7 17 3.97222V14.8611C17 15.0296 16.9514 15.1787 16.8542 15.3083C16.7569 15.438 16.6241 15.5352 16.4556 15.6L12.3333 17ZM11.5556 15.0944V5.99444L8.44444 4.90556V14.0056L11.5556 15.0944ZM13.1111 15.0944L15.4444 14.3167V5.1L13.1111 5.99444V15.0944ZM4.55556 14.9L6.88889 14.0056V4.90556L4.55556 5.68333V14.9Z" fill="white"/>
</svg>
