   <svg
              width="30"
              height="16"
              viewBox="0 0 30 16"
              fill="none"
              xmlns="http://www.w3.org/2000/svg"
            >
              <path
                d="M0.47623 15.095C0.85623 13.271 1.21723 11.504 1.55923 9.794C1.8379 8.18533 2.11023 6.64 2.37623 5.158C2.64223 3.676 2.83223 2.31433 2.94623 1.073C3.0349 1.08567 3.1109 1.092 3.17423 1.092C3.25023 1.092 3.31356 1.092 3.36423 1.092H3.76323C4.09256 1.092 4.4599 1.08567 4.86523 1.073C5.27056 1.04767 5.64423 1.02867 5.98623 1.016C6.0749 1.45933 6.15723 1.89633 6.23323 2.327C6.3219 2.75767 6.3979 3.17567 6.46123 3.581C6.52456 3.93567 6.59423 4.303 6.67023 4.683C6.74623 5.05033 6.82223 5.424 6.89823 5.804C6.96156 6.184 7.0249 6.53867 7.08823 6.868C7.16423 7.18467 7.22756 7.476 7.27823 7.742C7.43023 6.99467 7.56956 6.26 7.69623 5.538C7.83556 4.816 7.96856 4.16367 8.09523 3.581L8.64623 1.035L10.9642 0.749999C10.7489 1.71267 10.5462 2.65633 10.3562 3.581C10.1662 4.50567 9.9889 5.39867 9.82423 6.26C9.50756 7.80533 9.2289 9.262 8.98823 10.63C8.74756 11.998 8.5639 13.1887 8.43723 14.202C8.57656 14.202 8.55123 14.221 8.36123 14.259C8.1839 14.2843 7.9179 14.3287 7.56323 14.392C7.20856 14.4427 6.82856 14.5123 6.42323 14.601C6.0179 14.6897 5.6569 14.7973 5.34023 14.924C5.30223 14.4173 5.26423 13.9233 5.22623 13.442C5.18823 12.9607 5.1439 12.492 5.09323 12.036C5.01723 11.2253 4.92856 10.421 4.82723 9.623C4.7259 8.825 4.62456 8.19167 4.52323 7.723C4.43456 8.28033 4.3269 8.92 4.20023 9.642C4.07356 10.3513 3.93423 11.067 3.78223 11.789L3.25023 14.449L0.47623 15.095ZM9.50405 15.019L11.9931 1.51L17.9971 0.996999C17.9084 1.27567 17.8324 1.56067 17.7691 1.852C17.7057 2.09267 17.6424 2.346 17.5791 2.612C17.5284 2.86533 17.4841 3.09333 17.4461 3.296C17.2814 3.30867 17.0471 3.32133 16.7431 3.334C16.4391 3.334 16.1287 3.34033 15.8121 3.353C15.4954 3.353 15.2231 3.353 14.9951 3.353C14.7671 3.353 14.6467 3.353 14.6341 3.353L13.9691 6.754L15.0711 6.697C15.2104 6.68433 15.3497 6.678 15.4891 6.678C15.6411 6.678 15.7867 6.678 15.9261 6.678C16.0654 6.678 16.1921 6.678 16.3061 6.678C16.4201 6.678 16.5087 6.67167 16.5721 6.659C16.5467 6.83633 16.5214 7.01367 16.4961 7.191C16.4834 7.35567 16.4644 7.52667 16.4391 7.704L16.2681 8.749C16.2047 8.76167 16.1224 8.768 16.0211 8.768C15.9197 8.768 15.7994 8.768 15.6601 8.768C15.5207 8.78067 15.3751 8.787 15.2231 8.787C15.0711 8.787 14.9254 8.79333 14.7861 8.806C14.6214 8.81867 14.4504 8.825 14.2731 8.825C14.0957 8.825 13.9057 8.83133 13.7031 8.844L13.0571 12.34L15.8311 11.903L15.6411 14.069L9.50405 15.019ZM16.9866 15.076L18.4306 1.586C18.722 1.57333 19.007 1.55433 19.2856 1.529C19.577 1.491 19.8556 1.44667 20.1216 1.396C20.375 1.34533 20.6346 1.30733 20.9006 1.282C21.1666 1.244 21.4263 1.21867 21.6796 1.206L21.6226 1.586C21.61 1.71267 21.5846 1.85833 21.5466 2.023C21.5213 2.175 21.496 2.35233 21.4706 2.555C21.4073 2.99833 21.3313 3.505 21.2426 4.075C21.154 4.645 21.0526 5.27833 20.9386 5.975C20.8626 6.40567 20.774 6.925 20.6726 7.533C20.584 8.141 20.4763 8.83133 20.3496 9.604H20.6346C20.7993 9.02133 20.9513 8.48933 21.0906 8.008C21.23 7.52667 21.3503 7.10233 21.4516 6.735C21.553 6.36767 21.648 6.03833 21.7366 5.747C21.838 5.443 21.9203 5.17067 21.9836 4.93C22.2496 3.99267 22.465 3.22633 22.6296 2.631C22.7943 2.03567 22.902 1.64933 22.9526 1.472H23.1236C23.453 1.472 23.795 1.44667 24.1496 1.396C24.517 1.34533 24.8463 1.28833 25.1376 1.225C25.125 1.27567 25.0996 1.48467 25.0616 1.852C25.0236 2.21933 24.9793 2.669 24.9286 3.201C24.878 3.733 24.8273 4.284 24.7766 4.854C24.688 5.93067 24.6056 6.868 24.5296 7.666C24.4663 8.464 24.4093 9.11 24.3586 9.604H24.7006L26.5056 1.434L27.7786 1.263C27.956 1.23767 28.1396 1.21233 28.3296 1.187C28.5196 1.16167 28.716 1.13633 28.9186 1.111C29.286 1.06033 29.6343 1.00333 29.9636 0.94C29.5836 2.004 29.2036 3.258 28.8236 4.702C28.4436 6.146 28.0636 7.609 27.6836 9.091C27.481 9.90167 27.2783 10.725 27.0756 11.561C26.8856 12.3843 26.6956 13.2267 26.5056 14.088L22.2116 14.81L23.0476 7.476H22.8196L20.9386 14.373L16.9866 15.076Z"
                fill="#2E2F33"
                fill-opacity="0.88"
              />
            </svg>