<svg width="20" height="20" viewBox="0 0 20 20" fill="none" xmlns="http://www.w3.org/2000/svg">
<path d="M10.0313 16.25C8.28639 16.25 6.80854 15.6447 5.59771 14.434C4.38674 13.2233 3.78125 11.7457 3.78125 10.0013C3.78125 8.25681 4.38674 6.77882 5.59771 5.56729C6.80854 4.35576 8.28639 3.75 10.0313 3.75C11.0056 3.75 11.9276 3.9666 12.7973 4.39979C13.6669 4.83313 14.3901 5.44451 14.9671 6.23396V3.75H16.2171V8.84604H11.121V7.59625H14.4127C13.9735 6.79167 13.3645 6.15785 12.5856 5.69479C11.8069 5.2316 10.9554 5 10.0313 5C8.64236 5 7.46181 5.48611 6.48958 6.45833C5.51736 7.43056 5.03125 8.61111 5.03125 10C5.03125 11.3889 5.51736 12.5694 6.48958 13.5417C7.46181 14.5139 8.64236 15 10.0313 15C11.1007 15 12.066 14.6944 12.9271 14.0833C13.7882 13.4722 14.3924 12.6667 14.7396 11.6667H16.0569C15.6787 13.0267 14.9338 14.1306 13.8221 14.9783C12.7104 15.8261 11.4468 16.25 10.0313 16.25Z" fill="#191919"/>
</svg>
<svg width="20" height="20" viewBox="0 0 20 20" fill="none" xmlns="http://www.w3.org/2000/svg">
<path d="M10.0313 16.25C8.28639 16.25 6.80854 15.6447 5.59771 14.434C4.38674 13.2233 3.78125 11.7457 3.78125 10.0013C3.78125 8.25681 4.38674 6.77882 5.59771 5.56729C6.80854 4.35576 8.28639 3.75 10.0313 3.75C11.0056 3.75 11.9276 3.9666 12.7973 4.39979C13.6669 4.83313 14.3901 5.44451 14.9671 6.23396V3.75H16.2171V8.84604H11.121V7.59625H14.4127C13.9735 6.79167 13.3645 6.15785 12.5856 5.69479C11.8069 5.2316 10.9554 5 10.0313 5C8.64236 5 7.46181 5.48611 6.48958 6.45833C5.51736 7.43056 5.03125 8.61111 5.03125 10C5.03125 11.3889 5.51736 12.5694 6.48958 13.5417C7.46181 14.5139 8.64236 15 10.0313 15C11.1007 15 12.066 14.6944 12.9271 14.0833C13.7882 13.4722 14.3924 12.6667 14.7396 11.6667H16.0569C15.6787 13.0267 14.9338 14.1306 13.8221 14.9783C12.7104 15.8261 11.4468 16.25 10.0313 16.25Z" fill="#191919"/>
</svg>
